G04*
G04 #@! TF.GenerationSoftware,Altium Limited,Altium Designer,20.2.4 (192)*
G04*
G04 Layer_Physical_Order=1*
G04 Layer_Color=255*
%FSLAX25Y25*%
%MOIN*%
G70*
G04*
G04 #@! TF.SameCoordinates,B3AF9CCF-9D14-4356-84A3-7319CC5DFEB4*
G04*
G04*
G04 #@! TF.FilePolarity,Positive*
G04*
G01*
G75*
%ADD12C,0.00800*%
%ADD13C,0.01500*%
%ADD14C,0.01000*%
%ADD19R,0.03661X0.03425*%
%ADD20R,0.05512X0.01181*%
%ADD21R,0.03900X0.04300*%
%ADD22R,0.04567X0.05787*%
%ADD23R,0.05787X0.04567*%
%ADD24R,0.03425X0.03661*%
%ADD25R,0.03937X0.04331*%
%ADD26R,0.05512X0.03937*%
%ADD27R,0.04331X0.03937*%
%ADD28R,0.16929X0.09843*%
%ADD29R,0.03543X0.03150*%
%ADD30R,0.03150X0.03543*%
%ADD31R,0.06299X0.07874*%
%ADD49C,0.01968*%
%ADD61R,0.14173X0.38189*%
%ADD62R,0.02362X0.02055*%
%ADD63R,0.00394X0.00394*%
%ADD64C,0.02000*%
%ADD65C,0.01800*%
%ADD66C,0.07000*%
%ADD67O,0.08858X0.17717*%
%ADD68O,0.17717X0.08858*%
%ADD69O,0.19685X0.09843*%
%ADD70C,0.06000*%
%ADD71C,0.07677*%
%ADD72R,0.07677X0.07677*%
%ADD73C,0.06457*%
%ADD74C,0.04331*%
%ADD75C,0.01800*%
%ADD76C,0.01850*%
G36*
X244759Y351611D02*
X244596Y351623D01*
X244435Y351645D01*
X244275Y351674D01*
X244116Y351712D01*
X243960Y351759D01*
X243807Y351813D01*
X243656Y351875D01*
X243509Y351945D01*
X243366Y352023D01*
X243227Y352108D01*
X243093Y352200D01*
X242964Y352299D01*
X242840Y352405D01*
X242722Y352517D01*
X242610Y352635D01*
X242504Y352759D01*
X242405Y352888D01*
X242313Y353023D01*
X242228Y353161D01*
X242150Y353305D01*
X242080Y353451D01*
X242018Y353602D01*
X241963Y353755D01*
X241917Y353911D01*
X241879Y354070D01*
X241849Y354230D01*
X241828Y354391D01*
X241815Y354554D01*
X241811Y354716D01*
Y354835D01*
X241815Y355001D01*
X241828Y355168D01*
X241850Y355333D01*
X241881Y355498D01*
X241920Y355660D01*
X241967Y355820D01*
X242023Y355978D01*
X242087Y356132D01*
X242159Y356282D01*
X242238Y356429D01*
X242325Y356572D01*
X242420Y356709D01*
X242522Y356841D01*
X242630Y356968D01*
X242745Y357090D01*
X242866Y357205D01*
X242993Y357313D01*
X243126Y357415D01*
X243263Y357509D01*
X243406Y357596D01*
X243552Y357676D01*
X243703Y357748D01*
X243857Y357812D01*
X244015Y357868D01*
X244175Y357915D01*
X244337Y357954D01*
X244501Y357984D01*
X244667Y358006D01*
X244833Y358019D01*
X245000Y358024D01*
X245039D01*
X245204Y358019D01*
X245369Y358006D01*
X245532Y357985D01*
X245694Y357955D01*
X245855Y357916D01*
X246013Y357870D01*
X246168Y357814D01*
X246320Y357751D01*
X246469Y357680D01*
X246614Y357602D01*
X246755Y357516D01*
X246891Y357422D01*
X247022Y357322D01*
X247147Y357215D01*
X247267Y357101D01*
X247380Y356981D01*
X247487Y356856D01*
X247587Y356725D01*
X247681Y356589D01*
X247767Y356449D01*
X247846Y356304D01*
X247917Y356155D01*
X247980Y356003D01*
X248035Y355847D01*
X248082Y355689D01*
X248120Y355529D01*
X248150Y355367D01*
X248172Y355203D01*
X248185Y355039D01*
X248189Y354874D01*
Y354756D01*
X248185Y354591D01*
X248172Y354427D01*
X248150Y354263D01*
X248120Y354101D01*
X248082Y353941D01*
X248035Y353783D01*
X247980Y353627D01*
X247917Y353475D01*
X247846Y353326D01*
X247767Y353181D01*
X247681Y353041D01*
X247587Y352905D01*
X247487Y352774D01*
X247380Y352648D01*
X247267Y352529D01*
X247147Y352415D01*
X247022Y352308D01*
X246891Y352208D01*
X246755Y352114D01*
X246614Y352028D01*
X246469Y351950D01*
X246320Y351879D01*
X246168Y351816D01*
X246013Y351760D01*
X245855Y351714D01*
X245694Y351675D01*
X245532Y351645D01*
X245369Y351624D01*
X245204Y351611D01*
X245039Y351606D01*
Y352787D01*
X245142Y352790D01*
X245245Y352798D01*
X245347Y352812D01*
X245449Y352830D01*
X245549Y352854D01*
X245648Y352884D01*
X245745Y352918D01*
X245840Y352958D01*
X245933Y353002D01*
X246024Y353051D01*
X246111Y353105D01*
X246196Y353163D01*
X246278Y353226D01*
X246357Y353293D01*
X246431Y353364D01*
X246502Y353439D01*
X246569Y353517D01*
X246632Y353599D01*
X246690Y353684D01*
X246744Y353772D01*
X246793Y353862D01*
X246838Y353955D01*
X246877Y354050D01*
X246912Y354148D01*
X246941Y354246D01*
X246965Y354347D01*
X246984Y354448D01*
X246997Y354550D01*
X247005Y354653D01*
X247008Y354756D01*
Y354835D01*
X247005Y354940D01*
X246997Y355045D01*
X246983Y355149D01*
X246964Y355252D01*
X246939Y355354D01*
X246910Y355455D01*
X246874Y355554D01*
X246834Y355651D01*
X246789Y355746D01*
X246739Y355839D01*
X246684Y355928D01*
X246624Y356015D01*
X246560Y356098D01*
X246492Y356178D01*
X246420Y356254D01*
X246343Y356327D01*
X246264Y356395D01*
X246180Y356459D01*
X246094Y356519D01*
X246004Y356574D01*
X245912Y356624D01*
X245817Y356669D01*
X245720Y356709D01*
X245620Y356744D01*
X245520Y356774D01*
X245417Y356799D01*
X245314Y356818D01*
X245210Y356832D01*
X245105Y356840D01*
X245000Y356842D01*
X244961D01*
X244858Y356840D01*
X244755Y356832D01*
X244653Y356818D01*
X244551Y356800D01*
X244451Y356775D01*
X244352Y356746D01*
X244255Y356712D01*
X244160Y356672D01*
X244067Y356628D01*
X243976Y356579D01*
X243888Y356525D01*
X243804Y356467D01*
X243722Y356404D01*
X243643Y356337D01*
X243569Y356266D01*
X243498Y356191D01*
X243431Y356113D01*
X243368Y356031D01*
X243310Y355946D01*
X243256Y355858D01*
X243207Y355768D01*
X243162Y355675D01*
X243123Y355579D01*
X243089Y355482D01*
X243059Y355383D01*
X243035Y355283D01*
X243016Y355182D01*
X243003Y355080D01*
X242995Y354977D01*
X242992Y354874D01*
Y354756D01*
X242995Y354653D01*
X243003Y354550D01*
X243016Y354448D01*
X243035Y354347D01*
X243059Y354246D01*
X243089Y354148D01*
X243123Y354050D01*
X243162Y353955D01*
X243207Y353862D01*
X243256Y353772D01*
X243310Y353684D01*
X243368Y353599D01*
X243431Y353517D01*
X243498Y353439D01*
X243569Y353364D01*
X243643Y353293D01*
X243722Y353226D01*
X243804Y353163D01*
X243888Y353105D01*
X243976Y353051D01*
X244067Y353002D01*
X244160Y352958D01*
X244255Y352918D01*
X244352Y352884D01*
X244451Y352854D01*
X244551Y352830D01*
X244653Y352812D01*
X244755Y352798D01*
X244858Y352790D01*
X244961Y352787D01*
Y351606D01*
X244921D01*
X244759Y351611D01*
D02*
G37*
D12*
X163361Y271500D02*
X209600D01*
X141600Y249739D02*
X163361Y271500D01*
X236976Y265529D02*
X240900D01*
X236100Y266405D02*
X236976Y265529D01*
X21000Y194980D02*
X42720Y216700D01*
X21000Y183343D02*
Y194980D01*
Y183343D02*
X25000Y179343D01*
Y175000D02*
Y179343D01*
X42720Y216700D02*
X134000D01*
X25000Y185000D02*
Y197000D01*
X37836Y209836D02*
X129664D01*
X25000Y197000D02*
X37836Y209836D01*
X134000Y216700D02*
X139000Y221700D01*
Y249500D01*
X141600Y221772D02*
Y249739D01*
X129664Y209836D02*
X141600Y221772D01*
X163725Y274225D02*
X203900D01*
X139000Y249500D02*
X163725Y274225D01*
X231400Y265229D02*
X231518D01*
X234246Y262501D01*
X235599D01*
X235800Y262300D01*
X261848Y263752D02*
Y279015D01*
X259597Y281266D02*
X261848Y279015D01*
X256805Y281266D02*
X259597D01*
X256614Y281457D02*
X256805Y281266D01*
X261848Y263752D02*
X264300Y261300D01*
X253300Y203600D02*
Y229900D01*
X134350Y84650D02*
X253300Y203600D01*
X99750Y84650D02*
X134350D01*
X64785Y49685D02*
X99750Y84650D01*
X49567Y49685D02*
X64785D01*
X20243Y11700D02*
X20433Y11890D01*
X12700Y11700D02*
X20243D01*
D13*
X170650Y233555D02*
X200000D01*
X153661Y229936D02*
Y247000D01*
X157205D02*
X170650Y233555D01*
X125422Y201696D02*
X153661Y229936D01*
Y257539D02*
X154061Y257939D01*
X153661Y247000D02*
Y257539D01*
X239882Y236613D02*
X240761Y237491D01*
X239882Y236518D02*
Y236613D01*
X240761Y237491D02*
Y238581D01*
X243978D01*
X228125Y299067D02*
X229993D01*
X233358Y299145D02*
X233386Y299173D01*
X233360Y283452D02*
X233386Y283425D01*
X227975Y299217D02*
X228125Y299067D01*
X230071Y299145D02*
X233358D01*
X227748Y283452D02*
X233360D01*
X229993Y299067D02*
X230071Y299145D01*
X111000Y138800D02*
X120000Y129800D01*
X64800Y119800D02*
X70200D01*
X55000Y135000D02*
X70200Y119800D01*
X120000D01*
X247558Y340525D02*
X248692Y341659D01*
X236137Y340525D02*
X247558D01*
X235661Y341000D02*
X236137Y340525D01*
X251122Y349878D02*
X254575Y346425D01*
Y343058D02*
Y346425D01*
X253176Y341659D02*
X254575Y343058D01*
X248692Y341659D02*
X253176D01*
X207200Y306300D02*
Y306800D01*
X200000Y314000D02*
X207200Y306800D01*
X200255Y303500D02*
X230125D01*
X248604Y349939D02*
X257593D01*
X248543Y349878D02*
X248604Y349939D01*
X257593D02*
X257653Y350000D01*
X244803Y237756D02*
Y237756D01*
X243978Y238581D02*
X244803Y237756D01*
X153661Y325433D02*
Y335000D01*
Y325433D02*
X154000Y325095D01*
Y325000D02*
Y325095D01*
X111000Y187275D02*
X118947Y195222D01*
X125422Y198747D02*
Y201696D01*
X121896Y195222D02*
X125422Y198747D01*
X118947Y195222D02*
X121896D01*
X111000Y138800D02*
Y187275D01*
X40000Y95000D02*
X64800Y119800D01*
X200000Y233555D02*
X240602D01*
X244803Y237756D01*
X248543Y349878D02*
X251122D01*
X241303Y346642D02*
X241457D01*
X235661Y341000D02*
X241303Y346642D01*
X200000Y325000D02*
X200610D01*
X216610Y341000D01*
X235661D01*
X200000Y314000D02*
Y325000D01*
X167205D02*
X200000D01*
X157205Y335000D02*
X167205Y325000D01*
X153661Y335000D02*
X157205D01*
X153661Y247000D02*
X157205D01*
D14*
X130850Y135556D02*
G03*
X134299Y139299I-850J4244D01*
G01*
X283071Y332000D02*
X291172D01*
X293000Y333828D01*
X290770Y339000D02*
X291000D01*
X289961Y339809D02*
X290770Y339000D01*
X245700Y265827D02*
X256614Y276741D01*
X245700Y265713D02*
Y265827D01*
X229038Y260662D02*
X233287D01*
X227930Y261770D02*
Y280406D01*
Y261770D02*
X229038Y260662D01*
X233386Y276982D02*
X234669Y275699D01*
X240500Y272071D02*
X240900Y271671D01*
X234669Y273284D02*
Y275699D01*
Y273284D02*
X235882Y272071D01*
X233386Y276982D02*
Y279488D01*
X235882Y272071D02*
X240500D01*
X222523Y261452D02*
X223975Y260000D01*
X222523Y261452D02*
Y287523D01*
X137734Y25472D02*
X246900Y134637D01*
Y183264D01*
X242800Y187364D02*
X246900Y183264D01*
X136900Y120579D02*
Y137471D01*
X158600Y159171D02*
Y159171D01*
X136900Y137471D02*
X158600Y159171D01*
X134299Y139299D02*
X173000Y178000D01*
X130850Y130650D02*
Y135556D01*
X318825Y191975D02*
X347825D01*
X268883Y241916D02*
X318825Y191975D01*
X251470Y241916D02*
X268883D01*
X245197Y232244D02*
X275856D01*
X322100Y186000D02*
X340864D01*
X275856Y232244D02*
X322100Y186000D01*
X242400Y183500D02*
X243100Y184200D01*
X242400Y134663D02*
Y183500D01*
X183209Y75472D02*
X242400Y134663D01*
X242800Y187364D02*
Y189500D01*
X252529Y243516D02*
X308832D01*
X247837Y244642D02*
X248309D01*
X246813Y248836D02*
X249473Y246176D01*
X248895Y244056D02*
X249125D01*
X248309Y244642D02*
X248895Y244056D01*
X247837Y244642D02*
Y245541D01*
X249473Y246176D02*
X249869D01*
X246813Y248836D02*
Y253684D01*
X249869Y246176D02*
X252529Y243516D01*
X93000Y72000D02*
X99528Y65472D01*
X121793D01*
X20433Y24882D02*
Y32433D01*
X158600Y159171D02*
X177429Y178000D01*
X223230Y310000D02*
X224214Y309016D01*
X233386Y293268D02*
X241063D01*
X249255Y301848D02*
X250981D01*
X248000Y276000D02*
Y294205D01*
X241063Y301142D02*
X242000Y300205D01*
X263279Y293268D02*
X265616Y290931D01*
X248000Y300593D02*
X249255Y301848D01*
X237304Y309630D02*
X242000Y304934D01*
X233386Y310984D02*
X233476Y310894D01*
X227904Y311800D02*
X229028Y312924D01*
X256524Y310894D02*
X256614Y310984D01*
Y295236D02*
X263573D01*
X256614Y305079D02*
X261921D01*
X250032Y306966D02*
X252588Y309523D01*
X242000Y289475D02*
Y294205D01*
X226039Y314961D02*
X233347D01*
X274807Y290931D02*
X282025Y283712D01*
X233386Y285394D02*
X237919D01*
X284000Y254000D02*
Y284000D01*
X267992Y309008D02*
X268000Y309000D01*
X223000Y310000D02*
X223230D01*
X242000Y304934D02*
X245000Y301934D01*
X227900Y311800D02*
X227904D01*
X266279Y292531D02*
X275469D01*
X224123Y278781D02*
X225905Y277000D01*
X253590Y310894D02*
X256524D01*
X287000Y248000D02*
X287025D01*
X256614Y303110D02*
X263890D01*
X249255Y306966D02*
X250032D01*
X245000Y301934D02*
X248000Y304934D01*
X242000Y276000D02*
Y289475D01*
X233358Y312924D02*
X233386Y312953D01*
X282025Y259161D02*
Y283712D01*
X248000Y300205D02*
Y300593D01*
X242000Y300205D02*
Y304934D01*
X229028Y312924D02*
X233358D01*
X281975Y253025D02*
X287000Y248000D01*
X237304Y309630D02*
Y309999D01*
X256622Y309008D02*
X267992D01*
X233386Y301142D02*
X241063D01*
X252588Y309523D02*
Y309892D01*
X256614Y309016D02*
X256622Y309008D01*
X224214Y309016D02*
X233386D01*
X264953Y307047D02*
X267000Y305000D01*
X248000Y304934D02*
Y319000D01*
X229171Y297205D02*
X233386D01*
X224123Y284953D02*
X228501Y289331D01*
X263573Y295236D02*
X266279Y292531D01*
X248000Y304934D02*
Y305711D01*
X241063Y293268D02*
X242000Y294205D01*
X233347Y314961D02*
X233386Y314921D01*
X250981Y301848D02*
X251688Y301142D01*
X245000Y297205D02*
X248000Y300205D01*
X245000Y297205D02*
X248000Y294205D01*
X281975Y253025D02*
Y259111D01*
X233476Y310894D02*
X236410D01*
X256614Y276741D02*
Y279488D01*
X222523Y287523D02*
X226299Y291299D01*
X251688Y301142D02*
X256614D01*
X248000Y300205D02*
Y304934D01*
X242000Y294205D02*
X245000Y297205D01*
X226000Y315000D02*
X226039Y314961D01*
X256614Y293268D02*
X263279D01*
X281975Y259111D02*
X282025Y259161D01*
X252588Y309892D02*
X253590Y310894D01*
X261921Y305079D02*
X263890Y303110D01*
X248000Y305711D02*
X249255Y306966D01*
X237919Y285394D02*
X242000Y289475D01*
X275469Y292531D02*
X284000Y284000D01*
X236410Y310894D02*
X237304Y309999D01*
X227100Y295133D02*
X229171Y297205D01*
X224123Y278781D02*
Y284953D01*
X226299Y291299D02*
X233386D01*
X228501Y289331D02*
X233386D01*
X265616Y290931D02*
X274807D01*
X256614Y307047D02*
X264953D01*
X124586Y118265D02*
X125414D01*
X120450Y114128D02*
X124586Y118265D01*
X128207Y115472D02*
X131793D01*
X125414Y118265D02*
X128207Y115472D01*
X113137Y114128D02*
X120450D01*
X338000Y279000D02*
Y279071D01*
X336339Y280733D02*
X338000Y279071D01*
X336339Y280733D02*
Y293000D01*
X186000Y246661D02*
X186339Y247000D01*
X186000Y238000D02*
Y246661D01*
X279000Y254071D02*
X280000Y255071D01*
X209988Y311665D02*
X211457Y310197D01*
Y310000D02*
Y310197D01*
X218800Y310657D02*
X219000Y310457D01*
X218543Y310000D02*
X219000Y310457D01*
X218800Y310657D02*
Y314800D01*
X350286Y183200D02*
X353200D01*
X347950Y180864D02*
X350286Y183200D01*
X224488Y350000D02*
X225200Y350712D01*
Y354800D01*
X223166Y328071D02*
X224200Y329105D01*
Y331000D01*
X220000Y328071D02*
X223166D01*
X225723Y282613D02*
X227930Y280406D01*
X228705Y287272D02*
X233295D01*
X225723Y284290D02*
X228705Y287272D01*
X225723Y282613D02*
Y284290D01*
X200000Y240445D02*
X205655D01*
X448545Y80100D02*
X453800D01*
X448445Y80000D02*
X448545Y80100D01*
X244100Y343605D02*
X245000Y344505D01*
X244100Y342800D02*
Y343605D01*
X249224Y345006D02*
X250230Y344000D01*
X252300D01*
X249458Y339809D02*
X289961D01*
X247858Y338209D02*
X249458Y339809D01*
X285463Y284800D02*
X299300D01*
X276132Y294131D02*
X285463Y284800D01*
X227805Y292975D02*
X230067Y295236D01*
X233386D01*
X223739Y292975D02*
X227805D01*
X220400Y296845D02*
X222445Y298890D01*
X220400Y292500D02*
Y296845D01*
X218047Y287283D02*
X223739Y292975D01*
X200213Y287283D02*
X218047D01*
X200000Y290900D02*
Y296355D01*
X279580Y298900D02*
X282800D01*
X279276Y299205D02*
X279580Y298900D01*
X230293Y303332D02*
X232039Y305079D01*
X270000Y247929D02*
X270171Y248100D01*
X274800D01*
X274535Y252000D02*
X275071D01*
X279071Y248000D01*
X279000Y247929D02*
X279071Y248000D01*
X267714Y245116D02*
X290117D01*
X308832Y243516D02*
X327000Y261685D01*
X290117Y245116D02*
X291000Y246000D01*
Y263172D01*
X273921Y318311D02*
Y318921D01*
X270532Y314921D02*
X273921Y318311D01*
X256614Y314921D02*
X270532D01*
X120000Y29800D02*
X120850Y30650D01*
X129550Y75472D02*
X183209D01*
X125672Y25472D02*
X137734D01*
X120000Y19800D02*
X125672Y25472D01*
X120000Y69800D02*
X120850Y70650D01*
X124728D01*
X129550Y75472D01*
X242118Y251260D02*
X247837Y245541D01*
X251161Y269025D02*
X252839D01*
X254025Y267839D01*
Y264396D02*
Y267839D01*
X253881Y264252D02*
X254025Y264396D01*
X249975Y267839D02*
X251161Y269025D01*
X242118Y258740D02*
X249975Y266597D01*
Y267839D01*
X252000Y266000D02*
Y267000D01*
X250669Y264669D02*
X252000Y266000D01*
X253881Y261809D02*
Y264252D01*
Y261809D02*
X254525Y261164D01*
Y256316D02*
Y261164D01*
X250669Y258740D02*
Y264669D01*
X239118Y329260D02*
X244402D01*
X238331D02*
X239118D01*
X242378Y326000D01*
X245000D01*
X236525Y248602D02*
Y257424D01*
X239547Y241025D02*
X241839D01*
X243096Y242031D02*
X251355D01*
X241839Y241025D02*
X242433Y240431D01*
X247227D01*
X236525Y248602D02*
X243096Y242031D01*
X236000Y240000D02*
X238522D01*
X239547Y241025D01*
X230882Y272071D02*
X231000D01*
X229530Y273423D02*
X230882Y272071D01*
X229530Y273423D02*
Y280534D01*
X231882Y255000D02*
X232669D01*
X230413Y253532D02*
X231882Y255000D01*
X211457Y310197D02*
Y320590D01*
X205000Y250000D02*
X209929D01*
X199071Y280000D02*
X205000D01*
X347950Y133466D02*
Y180864D01*
Y133466D02*
X352000Y129416D01*
X346350Y109786D02*
Y180515D01*
Y109786D02*
X351161Y104975D01*
X340864Y186000D02*
X346350Y180515D01*
X364328Y119350D02*
X368624Y115055D01*
X349975Y133704D02*
X359550Y124128D01*
X361793D01*
X364328Y121593D01*
Y119350D02*
Y121593D01*
X352000Y107000D02*
Y129416D01*
X349975Y133704D02*
Y180025D01*
X344000Y109873D02*
Y180000D01*
Y109873D02*
X350498Y103375D01*
X347825Y191975D02*
X360000Y179800D01*
X357136Y210000D02*
X364161Y217025D01*
X332375Y210000D02*
X357136D01*
X364161Y217025D02*
X368975D01*
X295228Y271555D02*
X295783Y271000D01*
X296000D01*
X290000Y271555D02*
X295228D01*
X355523Y107659D02*
Y111444D01*
X358207Y114128D01*
X351161Y104975D02*
X352839D01*
X355523Y107659D01*
X365000Y108679D02*
Y110921D01*
X361793Y114128D02*
X365000Y110921D01*
Y108679D02*
X368207Y105472D01*
X358207Y114128D02*
X361793D01*
X215197Y45000D02*
X269998Y99800D01*
X364328Y88007D02*
Y101593D01*
X350498Y103375D02*
X355769D01*
X356522Y104128D02*
X361793D01*
X269998Y99800D02*
X360000D01*
X355769Y103375D02*
X356522Y104128D01*
X361793D02*
X364328Y101593D01*
X375928Y89607D02*
Y109993D01*
X370850Y94528D02*
X374328Y98007D01*
Y101593D01*
X368624Y115055D02*
X370867D01*
X370000Y89800D02*
X370850Y90650D01*
X370450Y105472D02*
X374328Y101593D01*
X370867Y115055D02*
X375928Y109993D01*
X370850Y90650D02*
Y94528D01*
X368207Y105472D02*
X370450D01*
X370850Y84528D02*
X375928Y89607D01*
X360850Y80650D02*
Y84528D01*
X360000Y79800D02*
X360850Y80650D01*
Y84528D02*
X364328Y88007D01*
X278071Y298000D02*
X279276Y299205D01*
X368975Y217025D02*
X382000Y204000D01*
X370000Y79800D02*
X370850Y80650D01*
Y84528D01*
X245000Y344505D02*
Y346642D01*
X323000Y289000D02*
X331939Y280061D01*
X238878Y349878D02*
X241457D01*
X237000Y348000D02*
X238878Y349878D01*
X265000Y351346D02*
X265347Y351000D01*
X265000Y351346D02*
Y355000D01*
X248543Y346642D02*
X248697D01*
X249224Y346114D01*
Y345006D02*
Y346114D01*
X247872Y234920D02*
Y239787D01*
X247227Y240431D02*
X247872Y239787D01*
X245197Y232244D02*
X247872Y234920D01*
X251355Y242031D02*
X251470Y241916D01*
X278437Y280008D02*
Y284437D01*
Y280008D02*
X278445Y280000D01*
X266941Y294131D02*
X276132D01*
X263867Y297205D02*
X266941Y294131D01*
X263321Y285394D02*
X263646Y285069D01*
X272071Y287882D02*
Y288000D01*
X263646Y285069D02*
X269258D01*
X272071Y287882D01*
X265335Y298000D02*
X271929D01*
X264161Y299173D02*
X265335Y298000D01*
X272000Y278945D02*
X278543Y272401D01*
X272000Y278945D02*
Y279555D01*
Y273000D02*
Y278945D01*
X271555Y280000D02*
X272000Y279555D01*
X265882Y325929D02*
X273000D01*
X263587Y328224D02*
X265882Y325929D01*
X274000Y311000D02*
Y311197D01*
X272532Y312665D02*
X274000Y311197D01*
X272335Y312665D02*
X272532D01*
X272047Y312953D02*
X272335Y312665D01*
X256614Y312953D02*
X272047D01*
X265000Y270000D02*
Y274929D01*
X261000Y246000D02*
X266830D01*
X267714Y245116D01*
X255740Y251260D02*
X261000Y246000D01*
X233287Y260662D02*
X236525Y257424D01*
X233295Y287272D02*
X233386Y287362D01*
X230362Y281366D02*
X233295D01*
X229530Y280534D02*
X230362Y281366D01*
X120450Y74128D02*
X125272Y78950D01*
X96128Y74128D02*
X120450D01*
X256614Y297205D02*
X263867D01*
X131793Y115472D02*
X136900Y120579D01*
X130000Y129800D02*
X130850Y130650D01*
X63000Y75000D02*
X74009D01*
X113137Y114128D01*
X71100Y150900D02*
X120000Y199800D01*
X51076Y150900D02*
X71100D01*
X20433Y32433D02*
X63000Y75000D01*
X216000Y250000D02*
X220929D01*
X382000Y69586D02*
Y204000D01*
X360000Y59800D02*
X365415Y65215D01*
X377629D01*
X382000Y69586D01*
X246813Y253684D02*
X248129Y255000D01*
X253209D02*
X254525Y256316D01*
X241331Y258740D02*
X242118D01*
X248129Y255000D02*
X253209D01*
X129150Y68950D02*
X130000Y69800D01*
X125272Y68950D02*
X129150D01*
X121793Y65472D02*
X125272Y68950D01*
X129150Y78950D02*
X130000Y79800D01*
X125272Y78950D02*
X129150D01*
X96000Y74000D02*
X96128Y74128D01*
X40000Y155000D02*
X46976D01*
X51076Y150900D01*
X275000Y16750D02*
X275250Y17000D01*
X280000D01*
X255000Y16750D02*
X255250Y17000D01*
X260000D01*
X235000Y16750D02*
X235250Y17000D01*
X241000D01*
X215000Y16750D02*
X215250Y17000D01*
X221000D01*
X215000Y23450D02*
Y39488D01*
X235000Y23450D02*
Y39488D01*
X255000Y23450D02*
Y39488D01*
X275000Y23450D02*
Y39488D01*
X300396Y19800D02*
X360000D01*
X275197Y45000D02*
X300396Y19800D01*
X275000Y45000D02*
X275197D01*
X255000D02*
X255197D01*
X261198Y51000D01*
X284000D01*
X305200Y29800D02*
X360000D01*
X284000Y51000D02*
X305200Y29800D01*
X279998Y89800D02*
X360000D01*
X235197Y45000D02*
X279998Y89800D01*
X235000Y45000D02*
X235197D01*
X215000D02*
X215197D01*
X230000Y344000D02*
Y350000D01*
X127244Y245000D02*
Y263594D01*
X130000Y266350D01*
Y266550D01*
X238331Y336740D02*
X239799Y338209D01*
X247858D01*
X327000Y242000D02*
Y252065D01*
X331939Y257004D01*
Y280061D01*
X327000Y299172D02*
Y325315D01*
X291000Y263172D02*
X327000Y299172D01*
X257475Y335424D02*
X258119Y336069D01*
X318069D01*
X257475Y329846D02*
Y335424D01*
X318069Y336069D02*
X327000Y345000D01*
X273071Y332000D02*
X277271D01*
X256889Y329260D02*
X257475Y329846D01*
X277271Y332000D02*
X277671Y331600D01*
X277887D01*
X252669Y329260D02*
X256889D01*
X250669Y251260D02*
X255740D01*
X240445Y357445D02*
X245061D01*
X238000Y355000D02*
X240445Y357445D01*
X215555Y293785D02*
Y299000D01*
X215000Y293230D02*
X215555Y293785D01*
X215000Y293000D02*
Y293230D01*
X218543Y309803D02*
Y310000D01*
Y309803D02*
X220011Y308335D01*
X220209D01*
X221496Y307047D01*
X233386D01*
X211555Y277000D02*
X212000Y277445D01*
Y283000D01*
X218445Y277000D02*
Y282325D01*
X218000Y282770D02*
X218445Y282325D01*
X218000Y282770D02*
Y283000D01*
X199000Y286071D02*
X200213Y287283D01*
X263890Y303110D02*
X265000Y302000D01*
X263587Y328224D02*
Y331532D01*
X262118Y333000D02*
X263587Y331532D01*
X261331Y333000D02*
X262118D01*
X220118Y321929D02*
X227413Y329224D01*
Y331532D01*
X228882Y333000D01*
X229669D01*
X220000Y321929D02*
X220118D01*
X210118D02*
X220000D01*
X210000D02*
X210118D01*
X211457Y320590D01*
X244402Y329260D02*
X251882Y336740D01*
X252669D01*
X241331Y251260D02*
X242118D01*
X248130Y257272D01*
X249201D01*
X250669Y258740D01*
X269189Y255000D02*
X270118Y254071D01*
X259331Y255000D02*
X269189D01*
X231598Y256071D02*
X232669Y255000D01*
X221000Y256071D02*
X231598D01*
X218445Y265099D02*
Y277000D01*
Y265099D02*
X218543Y265000D01*
X210118Y256071D02*
X221000D01*
X211457Y257410D02*
Y265000D01*
X210118Y256071D02*
X211457Y257410D01*
X210000Y256071D02*
X210118D01*
X270118Y254071D02*
X279000D01*
X271457Y255410D02*
Y265000D01*
X270118Y254071D02*
X271457Y255410D01*
X278543Y265000D02*
Y272401D01*
X256614Y283425D02*
X262528D01*
X264882Y281071D01*
X265000D01*
X233295Y281366D02*
X233386Y281457D01*
X256614Y285394D02*
X263321D01*
X262413Y288000D02*
X265929D01*
X261083Y289331D02*
X262413Y288000D01*
X256614Y289331D02*
X261083D01*
X256614Y299173D02*
X264161D01*
X273000Y325929D02*
X283000D01*
X283061D01*
X284273Y324716D01*
Y314384D02*
Y324716D01*
X281087Y311197D02*
X284273Y314384D01*
X281087Y311000D02*
Y311197D01*
X280890Y318390D02*
Y319000D01*
X275469Y312969D02*
X280890Y318390D01*
X275469Y312469D02*
Y312969D01*
X274000Y311000D02*
X275469Y312469D01*
X273921Y318921D02*
X274000Y319000D01*
X232039Y305079D02*
X233386D01*
X186000Y279000D02*
Y290661D01*
X186339Y291000D01*
X49567Y11890D02*
X49677Y12000D01*
X58000D01*
X220929Y250000D02*
X221000Y249929D01*
X209929Y250000D02*
X210000Y249929D01*
X130000Y273250D02*
X137033D01*
X137784Y274000D01*
X138000D01*
X283000Y332071D02*
X283071Y332000D01*
X273000Y332071D02*
X273071Y332000D01*
X210000Y328071D02*
X210071Y328000D01*
X215000D01*
X200000Y331890D02*
Y338000D01*
X186339Y335000D02*
Y343267D01*
X188000Y344929D01*
Y345000D01*
D19*
X231400Y271371D02*
D03*
Y265229D02*
D03*
X240900Y271671D02*
D03*
Y265529D02*
D03*
X265000Y281071D02*
D03*
Y274929D02*
D03*
X273000Y332071D02*
D03*
Y325929D02*
D03*
X283000Y332071D02*
D03*
Y325929D02*
D03*
X279000Y247929D02*
D03*
Y254071D02*
D03*
X270000Y247929D02*
D03*
Y254071D02*
D03*
X221000Y249929D02*
D03*
Y256071D02*
D03*
X210000Y249929D02*
D03*
Y256071D02*
D03*
X199000Y286071D02*
D03*
Y279929D02*
D03*
X220000Y328071D02*
D03*
Y321929D02*
D03*
X210000Y328071D02*
D03*
Y321929D02*
D03*
D20*
X256614Y314921D02*
D03*
Y312953D02*
D03*
Y310984D02*
D03*
Y309016D02*
D03*
Y307047D02*
D03*
Y305079D02*
D03*
Y303110D02*
D03*
Y301142D02*
D03*
Y299173D02*
D03*
Y297205D02*
D03*
Y295236D02*
D03*
Y293268D02*
D03*
Y291299D02*
D03*
Y289331D02*
D03*
Y287362D02*
D03*
Y285394D02*
D03*
Y283425D02*
D03*
Y281457D02*
D03*
Y279488D02*
D03*
X233386D02*
D03*
Y281457D02*
D03*
Y283425D02*
D03*
Y285394D02*
D03*
Y287362D02*
D03*
Y289331D02*
D03*
Y291299D02*
D03*
Y293268D02*
D03*
Y295236D02*
D03*
Y297205D02*
D03*
Y299173D02*
D03*
Y301142D02*
D03*
Y303110D02*
D03*
Y305079D02*
D03*
Y307047D02*
D03*
Y309016D02*
D03*
Y310984D02*
D03*
Y312953D02*
D03*
Y314921D02*
D03*
D21*
X275000Y16750D02*
D03*
Y23450D02*
D03*
X255000Y16750D02*
D03*
Y23450D02*
D03*
X235000Y16750D02*
D03*
Y23450D02*
D03*
X215000Y16750D02*
D03*
Y23450D02*
D03*
X130000Y266550D02*
D03*
Y273250D02*
D03*
D22*
X448445Y80000D02*
D03*
X441555D02*
D03*
X278445Y280000D02*
D03*
X271555D02*
D03*
X274000Y319000D02*
D03*
X280890D02*
D03*
X211555Y277000D02*
D03*
X218445D02*
D03*
X215555Y299000D02*
D03*
X222445D02*
D03*
D23*
X290000Y271555D02*
D03*
Y278445D02*
D03*
X200000Y240445D02*
D03*
Y233555D02*
D03*
Y296355D02*
D03*
Y303245D02*
D03*
Y331890D02*
D03*
Y325000D02*
D03*
D24*
X265929Y288000D02*
D03*
X272071D02*
D03*
X271929Y298000D02*
D03*
X278071D02*
D03*
D25*
X278543Y265000D02*
D03*
X271457D02*
D03*
X274000Y311000D02*
D03*
X281087D02*
D03*
X218543Y265000D02*
D03*
X211457D02*
D03*
X218543Y310000D02*
D03*
X211457D02*
D03*
D26*
X229669Y333000D02*
D03*
X238331Y336740D02*
D03*
Y329260D02*
D03*
X261331Y333000D02*
D03*
X252669Y329260D02*
D03*
Y336740D02*
D03*
X232669Y255000D02*
D03*
X241331Y258740D02*
D03*
Y251260D02*
D03*
X259331Y255000D02*
D03*
X250669Y251260D02*
D03*
Y258740D02*
D03*
D27*
X257653Y350000D02*
D03*
X264347D02*
D03*
D28*
X303661Y293000D02*
D03*
X336339D02*
D03*
X153661Y335000D02*
D03*
X186339D02*
D03*
X153661Y247000D02*
D03*
X186339D02*
D03*
X153661Y291000D02*
D03*
X186339D02*
D03*
D29*
X245000Y237756D02*
D03*
Y232245D02*
D03*
X215000Y44999D02*
D03*
Y39488D02*
D03*
X235000Y44999D02*
D03*
Y39488D02*
D03*
X255000Y44999D02*
D03*
Y39488D02*
D03*
X275000Y44999D02*
D03*
Y39488D02*
D03*
D30*
X224488Y350000D02*
D03*
X230000D02*
D03*
X127245Y245000D02*
D03*
X132756D02*
D03*
D31*
X20433Y11890D02*
D03*
Y24882D02*
D03*
Y49685D02*
D03*
X49567Y11890D02*
D03*
Y49685D02*
D03*
D49*
X250118Y299764D02*
D03*
X245000D02*
D03*
X239882D02*
D03*
X250118Y304882D02*
D03*
X245000D02*
D03*
X239882D02*
D03*
Y315118D02*
D03*
X245000D02*
D03*
X250118D02*
D03*
X239882Y310000D02*
D03*
X245000D02*
D03*
X250118D02*
D03*
Y284409D02*
D03*
X245000D02*
D03*
X239882D02*
D03*
X250118Y279291D02*
D03*
X245000D02*
D03*
X239882D02*
D03*
Y289528D02*
D03*
X245000D02*
D03*
X250118D02*
D03*
X239882Y294646D02*
D03*
X245000D02*
D03*
X250118D02*
D03*
X245000Y354807D02*
D03*
D61*
Y297205D02*
D03*
D62*
X248543Y346642D02*
D03*
Y349878D02*
D03*
X241457D02*
D03*
Y346642D02*
D03*
X245000D02*
D03*
D63*
X245061Y357445D02*
D03*
D64*
X134200Y224400D02*
Y224800D01*
X132756Y226244D02*
X134200Y224800D01*
X132756Y226244D02*
Y245000D01*
X133331Y245575D01*
Y245772D01*
X137000Y249441D01*
Y259929D01*
X153661Y276590D01*
Y291000D01*
X139000Y133700D02*
X181322Y176022D01*
X139000Y100000D02*
Y133700D01*
X145000Y214000D02*
X181322Y177678D01*
Y176022D02*
Y177678D01*
X125172Y94972D02*
X133972D01*
X139000Y100000D01*
X199000Y303245D02*
X200000D01*
X169450D02*
X199000D01*
X157205Y291000D02*
X169450Y303245D01*
X153661Y291000D02*
X157205D01*
X120000Y89800D02*
X125172Y94972D01*
X445000Y105000D02*
Y217255D01*
Y103647D02*
Y105000D01*
X330083Y332172D02*
X445000Y217255D01*
X303661Y316661D02*
X319172Y332172D01*
X330083D01*
X303661Y293000D02*
Y316661D01*
X441555Y80000D02*
Y100202D01*
X445000Y103647D01*
X455000Y58622D02*
Y66543D01*
X449219Y72325D02*
X455000Y66543D01*
X448620Y72325D02*
X449219D01*
X441555Y79390D02*
X448620Y72325D01*
X441555Y79390D02*
Y80000D01*
X300118Y293000D02*
X303661D01*
X291118Y302000D02*
X300118Y293000D01*
X265000Y302000D02*
X291118D01*
X303000Y292339D02*
X303661Y293000D01*
X303000Y281000D02*
Y292339D01*
X290000Y278445D02*
X300445D01*
X303000Y281000D01*
D65*
X200000Y303245D02*
X200255Y303500D01*
X230125D02*
X230293Y303332D01*
D66*
X475000Y105000D02*
D03*
X445000D02*
D03*
D67*
X473504Y46811D02*
D03*
D68*
X455000Y35000D02*
D03*
D69*
Y58622D02*
D03*
D70*
X55000Y185000D02*
D03*
Y175000D02*
D03*
Y165000D02*
D03*
Y155000D02*
D03*
Y145000D02*
D03*
Y135000D02*
D03*
X40000Y95000D02*
D03*
Y105000D02*
D03*
Y115000D02*
D03*
Y125000D02*
D03*
Y135000D02*
D03*
Y145000D02*
D03*
Y155000D02*
D03*
Y165000D02*
D03*
Y175000D02*
D03*
Y185000D02*
D03*
X25000D02*
D03*
Y175000D02*
D03*
Y165000D02*
D03*
Y155000D02*
D03*
Y145000D02*
D03*
Y135000D02*
D03*
D71*
X327000Y345000D02*
D03*
Y261685D02*
D03*
D72*
Y325315D02*
D03*
Y242000D02*
D03*
D73*
X120000Y19800D02*
D03*
X130000D02*
D03*
X120000Y29800D02*
D03*
X130000D02*
D03*
X120000Y39800D02*
D03*
X130000D02*
D03*
X120000Y49800D02*
D03*
X130000D02*
D03*
X120000Y59800D02*
D03*
X130000D02*
D03*
X120000Y69800D02*
D03*
X130000D02*
D03*
X120000Y79800D02*
D03*
X130000D02*
D03*
X120000Y89800D02*
D03*
X130000D02*
D03*
X120000Y99800D02*
D03*
X130000D02*
D03*
X120000Y109800D02*
D03*
X130000D02*
D03*
X120000Y119800D02*
D03*
X130000D02*
D03*
X120000Y129800D02*
D03*
X130000D02*
D03*
X120000Y139800D02*
D03*
X130000D02*
D03*
X120000Y149800D02*
D03*
X130000D02*
D03*
X120000Y159800D02*
D03*
X130000D02*
D03*
X120000Y169800D02*
D03*
X130000D02*
D03*
X120000Y179800D02*
D03*
X130000D02*
D03*
X120000Y189800D02*
D03*
X130000D02*
D03*
X120000Y199800D02*
D03*
X130000D02*
D03*
X360000Y19800D02*
D03*
X370000D02*
D03*
X360000Y29800D02*
D03*
X370000D02*
D03*
X360000Y39800D02*
D03*
X370000D02*
D03*
X360000Y49800D02*
D03*
X370000D02*
D03*
X360000Y59800D02*
D03*
X370000D02*
D03*
X360000Y69800D02*
D03*
X370000D02*
D03*
X360000Y79800D02*
D03*
X370000D02*
D03*
X360000Y89800D02*
D03*
X370000D02*
D03*
X360000Y99800D02*
D03*
X370000D02*
D03*
X360000Y109800D02*
D03*
X370000D02*
D03*
X360000Y119800D02*
D03*
X370000D02*
D03*
X360000Y129800D02*
D03*
X370000D02*
D03*
X360000Y139800D02*
D03*
X370000D02*
D03*
X360000Y149800D02*
D03*
X370000D02*
D03*
X360000Y159800D02*
D03*
X370000D02*
D03*
X360000Y169800D02*
D03*
X370000D02*
D03*
X360000Y179800D02*
D03*
X370000D02*
D03*
X360000Y189800D02*
D03*
X370000D02*
D03*
X360000Y199800D02*
D03*
X370000D02*
D03*
D74*
X35000Y11890D02*
D03*
Y30000D02*
D03*
D75*
X293000Y333828D02*
D03*
X12700Y11700D02*
D03*
X338000Y279000D02*
D03*
X186000Y238000D02*
D03*
X224200Y331000D02*
D03*
X205655Y240445D02*
D03*
X453800Y80100D02*
D03*
X282800Y298900D02*
D03*
X274800Y248100D02*
D03*
X274535Y252000D02*
D03*
X205000Y250000D02*
D03*
Y280000D02*
D03*
X296000Y271000D02*
D03*
X265000Y355000D02*
D03*
Y270000D02*
D03*
X216000Y250000D02*
D03*
X230000Y344000D02*
D03*
X277887Y331600D02*
D03*
X200000Y290900D02*
D03*
X186000Y279000D02*
D03*
X58000Y12000D02*
D03*
X215000Y328000D02*
D03*
X188000Y345000D02*
D03*
X200000Y338000D02*
D03*
X138000Y274000D02*
D03*
D76*
X291000Y339000D02*
D03*
X245700Y265713D02*
D03*
X209600Y271500D02*
D03*
X236100Y266405D02*
D03*
X134200Y224400D02*
D03*
X154061Y257939D02*
D03*
X203900Y274225D02*
D03*
X235800Y262300D02*
D03*
X223975Y260000D02*
D03*
X243100Y184200D02*
D03*
X242800Y189500D02*
D03*
X239882Y236518D02*
D03*
X249125Y244056D02*
D03*
X264300Y261300D02*
D03*
X253300Y229900D02*
D03*
X93000Y72000D02*
D03*
X284000Y254000D02*
D03*
X225905Y277000D02*
D03*
X242000Y276000D02*
D03*
X227975Y299217D02*
D03*
X223000Y310000D02*
D03*
X227748Y283452D02*
D03*
X267000Y305000D02*
D03*
X248000Y319000D02*
D03*
X227900Y311800D02*
D03*
X227100Y295133D02*
D03*
X248000Y276000D02*
D03*
X226000Y315000D02*
D03*
X287025Y248000D02*
D03*
X268000Y309000D02*
D03*
X218800Y314800D02*
D03*
X353200Y183200D02*
D03*
X225200Y354800D02*
D03*
X244100Y342800D02*
D03*
X252300Y344000D02*
D03*
X299300Y284800D02*
D03*
X207200Y306300D02*
D03*
X220400Y292500D02*
D03*
X252000Y267000D02*
D03*
X245000Y326000D02*
D03*
X236000Y240000D02*
D03*
X349975Y180025D02*
D03*
X344000Y180000D02*
D03*
X352000Y107000D02*
D03*
X332375Y210000D02*
D03*
X154000Y325000D02*
D03*
X323000Y289000D02*
D03*
X237000Y348000D02*
D03*
X387000Y110000D02*
D03*
X278437Y284437D02*
D03*
X272000Y273000D02*
D03*
X145000Y214000D02*
D03*
X177429Y178000D02*
D03*
X173000D02*
D03*
X96000Y74000D02*
D03*
X280000Y17000D02*
D03*
X260000D02*
D03*
X241000D02*
D03*
X221000D02*
D03*
X238000Y355000D02*
D03*
X215000Y293000D02*
D03*
X212000Y283000D02*
D03*
X218000D02*
D03*
M02*
