G04*
G04 #@! TF.GenerationSoftware,Altium Limited,Altium Designer,20.2.4 (192)*
G04*
G04 Layer_Physical_Order=3*
G04 Layer_Color=16440176*
%FSLAX25Y25*%
%MOIN*%
G70*
G04*
G04 #@! TF.SameCoordinates,B3AF9CCF-9D14-4356-84A3-7319CC5DFEB4*
G04*
G04*
G04 #@! TF.FilePolarity,Positive*
G04*
G01*
G75*
%ADD14C,0.01000*%
%ADD66C,0.07000*%
%ADD67O,0.08858X0.17717*%
%ADD68O,0.17717X0.08858*%
%ADD70C,0.06000*%
%ADD73C,0.06457*%
%ADD75C,0.01800*%
%ADD76C,0.01850*%
G36*
X488369Y214324D02*
Y1631D01*
X1631D01*
Y214324D01*
X145676Y358369D01*
X344324D01*
X488369Y214324D01*
D02*
G37*
%LPC*%
G36*
X225200Y356355D02*
X224605Y356237D01*
X224100Y355900D01*
X223763Y355395D01*
X223645Y354800D01*
X223763Y354205D01*
X224100Y353700D01*
X224605Y353363D01*
X225200Y353245D01*
X225795Y353363D01*
X226300Y353700D01*
X226637Y354205D01*
X226755Y354800D01*
X226637Y355395D01*
X226300Y355900D01*
X225795Y356237D01*
X225200Y356355D01*
D02*
G37*
G36*
X245000Y356422D02*
X244382Y356299D01*
X243858Y355949D01*
X243508Y355425D01*
X243385Y354807D01*
X243508Y354189D01*
X243858Y353665D01*
X244382Y353315D01*
X245000Y353192D01*
X245618Y353315D01*
X246142Y353665D01*
X246492Y354189D01*
X246615Y354807D01*
X246492Y355425D01*
X246142Y355949D01*
X245618Y356299D01*
X245000Y356422D01*
D02*
G37*
G36*
X237000Y349555D02*
X236405Y349437D01*
X235900Y349100D01*
X235563Y348595D01*
X235445Y348000D01*
X235563Y347405D01*
X235900Y346900D01*
X236405Y346563D01*
X237000Y346445D01*
X237595Y346563D01*
X238100Y346900D01*
X238437Y347405D01*
X238555Y348000D01*
X238437Y348595D01*
X238100Y349100D01*
X237595Y349437D01*
X237000Y349555D01*
D02*
G37*
G36*
X252300Y345555D02*
X251705Y345437D01*
X251200Y345100D01*
X250863Y344595D01*
X250745Y344000D01*
X250863Y343405D01*
X251200Y342900D01*
X251705Y342563D01*
X252300Y342445D01*
X252895Y342563D01*
X253400Y342900D01*
X253737Y343405D01*
X253855Y344000D01*
X253737Y344595D01*
X253400Y345100D01*
X252895Y345437D01*
X252300Y345555D01*
D02*
G37*
G36*
X244100Y344355D02*
X243505Y344237D01*
X243000Y343900D01*
X242663Y343395D01*
X242545Y342800D01*
X242663Y342205D01*
X243000Y341700D01*
X243505Y341363D01*
X244100Y341245D01*
X244695Y341363D01*
X245200Y341700D01*
X245537Y342205D01*
X245655Y342800D01*
X245537Y343395D01*
X245200Y343900D01*
X244695Y344237D01*
X244100Y344355D01*
D02*
G37*
G36*
X327000Y349477D02*
X325841Y349324D01*
X324762Y348877D01*
X323834Y348166D01*
X323123Y347238D01*
X322676Y346159D01*
X322523Y345000D01*
X322676Y343841D01*
X323123Y342762D01*
X323834Y341834D01*
X324762Y341123D01*
X325841Y340676D01*
X327000Y340523D01*
X328159Y340676D01*
X329238Y341123D01*
X330166Y341834D01*
X330877Y342762D01*
X331324Y343841D01*
X331477Y345000D01*
X331324Y346159D01*
X330877Y347238D01*
X330166Y348166D01*
X329238Y348877D01*
X328159Y349324D01*
X327000Y349477D01*
D02*
G37*
G36*
X291000Y340555D02*
X290405Y340437D01*
X289900Y340100D01*
X289563Y339595D01*
X289445Y339000D01*
X289563Y338405D01*
X289900Y337900D01*
X290405Y337563D01*
X291000Y337445D01*
X291595Y337563D01*
X292100Y337900D01*
X292437Y338405D01*
X292555Y339000D01*
X292437Y339595D01*
X292100Y340100D01*
X291595Y340437D01*
X291000Y340555D01*
D02*
G37*
G36*
X245000Y327555D02*
X244405Y327437D01*
X243900Y327100D01*
X243563Y326595D01*
X243445Y326000D01*
X243563Y325405D01*
X243900Y324900D01*
X244405Y324563D01*
X245000Y324445D01*
X245595Y324563D01*
X246100Y324900D01*
X246437Y325405D01*
X246555Y326000D01*
X246437Y326595D01*
X246100Y327100D01*
X245595Y327437D01*
X245000Y327555D01*
D02*
G37*
G36*
X154000Y326555D02*
X153405Y326437D01*
X152900Y326100D01*
X152563Y325595D01*
X152445Y325000D01*
X152563Y324405D01*
X152900Y323900D01*
X153405Y323563D01*
X154000Y323445D01*
X154595Y323563D01*
X155100Y323900D01*
X155437Y324405D01*
X155555Y325000D01*
X155437Y325595D01*
X155100Y326100D01*
X154595Y326437D01*
X154000Y326555D01*
D02*
G37*
G36*
X331439Y329753D02*
X322561D01*
Y320876D01*
X331439D01*
Y329753D01*
D02*
G37*
G36*
X250118Y316733D02*
X249500Y316610D01*
X248976Y316260D01*
X248626Y315736D01*
X248503Y315118D01*
X248626Y314500D01*
X248976Y313976D01*
X249500Y313626D01*
X250118Y313503D01*
X250736Y313626D01*
X251260Y313976D01*
X251610Y314500D01*
X251733Y315118D01*
X251610Y315736D01*
X251260Y316260D01*
X250736Y316610D01*
X250118Y316733D01*
D02*
G37*
G36*
X245000D02*
X244382Y316610D01*
X243858Y316260D01*
X243508Y315736D01*
X243385Y315118D01*
X243508Y314500D01*
X243858Y313976D01*
X244382Y313626D01*
X245000Y313503D01*
X245618Y313626D01*
X246142Y313976D01*
X246492Y314500D01*
X246615Y315118D01*
X246492Y315736D01*
X246142Y316260D01*
X245618Y316610D01*
X245000Y316733D01*
D02*
G37*
G36*
X239882D02*
X239264Y316610D01*
X238740Y316260D01*
X238390Y315736D01*
X238267Y315118D01*
X238390Y314500D01*
X238740Y313976D01*
X239264Y313626D01*
X239882Y313503D01*
X240500Y313626D01*
X241024Y313976D01*
X241374Y314500D01*
X241497Y315118D01*
X241374Y315736D01*
X241024Y316260D01*
X240500Y316610D01*
X239882Y316733D01*
D02*
G37*
G36*
X226000Y316555D02*
X225405Y316437D01*
X224900Y316100D01*
X224563Y315595D01*
X224445Y315000D01*
X224563Y314405D01*
X224900Y313900D01*
X225405Y313563D01*
X226000Y313445D01*
X226595Y313563D01*
X227100Y313900D01*
X227437Y314405D01*
X227555Y315000D01*
X227437Y315595D01*
X227100Y316100D01*
X226595Y316437D01*
X226000Y316555D01*
D02*
G37*
G36*
X227900Y313355D02*
X227305Y313237D01*
X226800Y312900D01*
X226463Y312395D01*
X226345Y311800D01*
X226463Y311205D01*
X226800Y310700D01*
X227305Y310363D01*
X227900Y310245D01*
X228495Y310363D01*
X229000Y310700D01*
X229337Y311205D01*
X229455Y311800D01*
X229337Y312395D01*
X229000Y312900D01*
X228495Y313237D01*
X227900Y313355D01*
D02*
G37*
G36*
X223000Y311555D02*
X222405Y311437D01*
X221900Y311100D01*
X221563Y310595D01*
X221445Y310000D01*
X221563Y309405D01*
X221900Y308900D01*
X222405Y308563D01*
X223000Y308445D01*
X223595Y308563D01*
X224100Y308900D01*
X224437Y309405D01*
X224555Y310000D01*
X224437Y310595D01*
X224100Y311100D01*
X223595Y311437D01*
X223000Y311555D01*
D02*
G37*
G36*
X250118Y311615D02*
X249500Y311492D01*
X248976Y311142D01*
X248626Y310618D01*
X248503Y310000D01*
X248626Y309382D01*
X248976Y308858D01*
X249500Y308508D01*
X250118Y308385D01*
X250736Y308508D01*
X251260Y308858D01*
X251610Y309382D01*
X251733Y310000D01*
X251610Y310618D01*
X251260Y311142D01*
X250736Y311492D01*
X250118Y311615D01*
D02*
G37*
G36*
X245000D02*
X244382Y311492D01*
X243858Y311142D01*
X243508Y310618D01*
X243385Y310000D01*
X243508Y309382D01*
X243858Y308858D01*
X244382Y308508D01*
X245000Y308385D01*
X245618Y308508D01*
X246142Y308858D01*
X246492Y309382D01*
X246615Y310000D01*
X246492Y310618D01*
X246142Y311142D01*
X245618Y311492D01*
X245000Y311615D01*
D02*
G37*
G36*
X239882D02*
X239264Y311492D01*
X238740Y311142D01*
X238390Y310618D01*
X238267Y310000D01*
X238390Y309382D01*
X238740Y308858D01*
X239264Y308508D01*
X239882Y308385D01*
X240500Y308508D01*
X241024Y308858D01*
X241374Y309382D01*
X241497Y310000D01*
X241374Y310618D01*
X241024Y311142D01*
X240500Y311492D01*
X239882Y311615D01*
D02*
G37*
G36*
X268000Y310555D02*
X267405Y310437D01*
X266900Y310100D01*
X266563Y309595D01*
X266445Y309000D01*
X266563Y308405D01*
X266900Y307900D01*
X267405Y307563D01*
X268000Y307445D01*
X268595Y307563D01*
X269100Y307900D01*
X269437Y308405D01*
X269555Y309000D01*
X269437Y309595D01*
X269100Y310100D01*
X268595Y310437D01*
X268000Y310555D01*
D02*
G37*
G36*
X207200Y307855D02*
X206605Y307737D01*
X206100Y307400D01*
X205763Y306895D01*
X205645Y306300D01*
X205763Y305705D01*
X206100Y305200D01*
X206605Y304863D01*
X207200Y304745D01*
X207795Y304863D01*
X208300Y305200D01*
X208637Y305705D01*
X208755Y306300D01*
X208637Y306895D01*
X208300Y307400D01*
X207795Y307737D01*
X207200Y307855D01*
D02*
G37*
G36*
X267000Y306555D02*
X266405Y306437D01*
X265900Y306100D01*
X265563Y305595D01*
X265445Y305000D01*
X265563Y304405D01*
X265900Y303900D01*
X266405Y303563D01*
X267000Y303445D01*
X267595Y303563D01*
X268100Y303900D01*
X268437Y304405D01*
X268555Y305000D01*
X268437Y305595D01*
X268100Y306100D01*
X267595Y306437D01*
X267000Y306555D01*
D02*
G37*
G36*
X250118Y306497D02*
X249500Y306374D01*
X248976Y306024D01*
X248626Y305500D01*
X248503Y304882D01*
X248626Y304264D01*
X248976Y303740D01*
X249500Y303390D01*
X250118Y303267D01*
X250736Y303390D01*
X251260Y303740D01*
X251610Y304264D01*
X251733Y304882D01*
X251610Y305500D01*
X251260Y306024D01*
X250736Y306374D01*
X250118Y306497D01*
D02*
G37*
G36*
X245000D02*
X244382Y306374D01*
X243858Y306024D01*
X243508Y305500D01*
X243385Y304882D01*
X243508Y304264D01*
X243858Y303740D01*
X244382Y303390D01*
X245000Y303267D01*
X245618Y303390D01*
X246142Y303740D01*
X246492Y304264D01*
X246615Y304882D01*
X246492Y305500D01*
X246142Y306024D01*
X245618Y306374D01*
X245000Y306497D01*
D02*
G37*
G36*
X239882D02*
X239264Y306374D01*
X238740Y306024D01*
X238390Y305500D01*
X238267Y304882D01*
X238390Y304264D01*
X238740Y303740D01*
X239264Y303390D01*
X239882Y303267D01*
X240500Y303390D01*
X241024Y303740D01*
X241374Y304264D01*
X241497Y304882D01*
X241374Y305500D01*
X241024Y306024D01*
X240500Y306374D01*
X239882Y306497D01*
D02*
G37*
G36*
X250118Y301379D02*
X249500Y301256D01*
X248976Y300906D01*
X248626Y300382D01*
X248503Y299764D01*
X248626Y299146D01*
X248976Y298622D01*
X249500Y298271D01*
X250118Y298148D01*
X250736Y298271D01*
X251260Y298622D01*
X251610Y299146D01*
X251733Y299764D01*
X251610Y300382D01*
X251260Y300906D01*
X250736Y301256D01*
X250118Y301379D01*
D02*
G37*
G36*
X245000D02*
X244382Y301256D01*
X243858Y300906D01*
X243508Y300382D01*
X243385Y299764D01*
X243508Y299146D01*
X243858Y298622D01*
X244382Y298271D01*
X245000Y298148D01*
X245618Y298271D01*
X246142Y298622D01*
X246492Y299146D01*
X246615Y299764D01*
X246492Y300382D01*
X246142Y300906D01*
X245618Y301256D01*
X245000Y301379D01*
D02*
G37*
G36*
X239882D02*
X239264Y301256D01*
X238740Y300906D01*
X238390Y300382D01*
X238267Y299764D01*
X238390Y299146D01*
X238740Y298622D01*
X239264Y298271D01*
X239882Y298148D01*
X240500Y298271D01*
X241024Y298622D01*
X241374Y299146D01*
X241497Y299764D01*
X241374Y300382D01*
X241024Y300906D01*
X240500Y301256D01*
X239882Y301379D01*
D02*
G37*
G36*
X227975Y300772D02*
X227380Y300654D01*
X226876Y300317D01*
X226539Y299812D01*
X226420Y299217D01*
X226539Y298622D01*
X226876Y298117D01*
X227380Y297780D01*
X227975Y297662D01*
X228570Y297780D01*
X229075Y298117D01*
X229412Y298622D01*
X229530Y299217D01*
X229412Y299812D01*
X229075Y300317D01*
X228570Y300654D01*
X227975Y300772D01*
D02*
G37*
G36*
X227100Y296688D02*
X226505Y296570D01*
X226000Y296233D01*
X225663Y295728D01*
X225545Y295133D01*
X225663Y294538D01*
X226000Y294034D01*
X226505Y293697D01*
X227100Y293578D01*
X227695Y293697D01*
X228200Y294034D01*
X228537Y294538D01*
X228655Y295133D01*
X228537Y295728D01*
X228200Y296233D01*
X227695Y296570D01*
X227100Y296688D01*
D02*
G37*
G36*
X250118Y296261D02*
X249500Y296138D01*
X248976Y295788D01*
X248626Y295264D01*
X248503Y294646D01*
X248626Y294027D01*
X248976Y293503D01*
X249500Y293153D01*
X250118Y293030D01*
X250736Y293153D01*
X251260Y293503D01*
X251610Y294027D01*
X251733Y294646D01*
X251610Y295264D01*
X251260Y295788D01*
X250736Y296138D01*
X250118Y296261D01*
D02*
G37*
G36*
X245000D02*
X244382Y296138D01*
X243858Y295788D01*
X243508Y295264D01*
X243385Y294646D01*
X243508Y294027D01*
X243858Y293503D01*
X244382Y293153D01*
X245000Y293030D01*
X245618Y293153D01*
X246142Y293503D01*
X246492Y294027D01*
X246615Y294646D01*
X246492Y295264D01*
X246142Y295788D01*
X245618Y296138D01*
X245000Y296261D01*
D02*
G37*
G36*
X239882D02*
X239264Y296138D01*
X238740Y295788D01*
X238390Y295264D01*
X238267Y294646D01*
X238390Y294027D01*
X238740Y293503D01*
X239264Y293153D01*
X239882Y293030D01*
X240500Y293153D01*
X241024Y293503D01*
X241374Y294027D01*
X241497Y294646D01*
X241374Y295264D01*
X241024Y295788D01*
X240500Y296138D01*
X239882Y296261D01*
D02*
G37*
G36*
X215000Y294555D02*
X214405Y294437D01*
X213900Y294100D01*
X213563Y293595D01*
X213445Y293000D01*
X213563Y292405D01*
X213900Y291900D01*
X214405Y291563D01*
X215000Y291445D01*
X215595Y291563D01*
X216100Y291900D01*
X216437Y292405D01*
X216555Y293000D01*
X216437Y293595D01*
X216100Y294100D01*
X215595Y294437D01*
X215000Y294555D01*
D02*
G37*
G36*
X218800Y316355D02*
X218205Y316237D01*
X217700Y315900D01*
X217363Y315395D01*
X217245Y314800D01*
X217363Y314205D01*
X217678Y313733D01*
Y295455D01*
X217678Y295455D01*
X217764Y295026D01*
X218007Y294662D01*
X219208Y293461D01*
X218963Y293095D01*
X218845Y292500D01*
X218963Y291905D01*
X219300Y291400D01*
X219805Y291063D01*
X220400Y290945D01*
X220995Y291063D01*
X221500Y291400D01*
X221837Y291905D01*
X221955Y292500D01*
X221837Y293095D01*
X221521Y293567D01*
Y293855D01*
X221522Y293855D01*
X221436Y294285D01*
X221193Y294648D01*
X221193Y294648D01*
X219921Y295920D01*
Y313733D01*
X220237Y314205D01*
X220355Y314800D01*
X220237Y315395D01*
X219900Y315900D01*
X219395Y316237D01*
X218800Y316355D01*
D02*
G37*
G36*
X250118Y291143D02*
X249500Y291020D01*
X248976Y290670D01*
X248626Y290146D01*
X248503Y289528D01*
X248626Y288909D01*
X248976Y288385D01*
X249500Y288035D01*
X250118Y287912D01*
X250736Y288035D01*
X251260Y288385D01*
X251610Y288909D01*
X251733Y289528D01*
X251610Y290146D01*
X251260Y290670D01*
X250736Y291020D01*
X250118Y291143D01*
D02*
G37*
G36*
X245000D02*
X244382Y291020D01*
X243858Y290670D01*
X243508Y290146D01*
X243385Y289528D01*
X243508Y288909D01*
X243858Y288385D01*
X244382Y288035D01*
X245000Y287912D01*
X245618Y288035D01*
X246142Y288385D01*
X246492Y288909D01*
X246615Y289528D01*
X246492Y290146D01*
X246142Y290670D01*
X245618Y291020D01*
X245000Y291143D01*
D02*
G37*
G36*
X239882D02*
X239264Y291020D01*
X238740Y290670D01*
X238390Y290146D01*
X238267Y289528D01*
X238390Y288909D01*
X238740Y288385D01*
X239264Y288035D01*
X239882Y287912D01*
X240500Y288035D01*
X241024Y288385D01*
X241374Y288909D01*
X241497Y289528D01*
X241374Y290146D01*
X241024Y290670D01*
X240500Y291020D01*
X239882Y291143D01*
D02*
G37*
G36*
X323000Y290555D02*
X322405Y290437D01*
X321900Y290100D01*
X321563Y289595D01*
X321445Y289000D01*
X321563Y288405D01*
X321900Y287900D01*
X322405Y287563D01*
X323000Y287445D01*
X323595Y287563D01*
X324100Y287900D01*
X324437Y288405D01*
X324555Y289000D01*
X324437Y289595D01*
X324100Y290100D01*
X323595Y290437D01*
X323000Y290555D01*
D02*
G37*
G36*
X299300Y286355D02*
X298705Y286237D01*
X298200Y285900D01*
X297863Y285395D01*
X297745Y284800D01*
X297863Y284205D01*
X298200Y283700D01*
X298705Y283363D01*
X299300Y283245D01*
X299895Y283363D01*
X300400Y283700D01*
X300737Y284205D01*
X300855Y284800D01*
X300737Y285395D01*
X300400Y285900D01*
X299895Y286237D01*
X299300Y286355D01*
D02*
G37*
G36*
X278437Y285992D02*
X277841Y285873D01*
X277337Y285536D01*
X277000Y285032D01*
X276882Y284437D01*
X277000Y283841D01*
X277337Y283337D01*
X277841Y283000D01*
X278437Y282881D01*
X279032Y283000D01*
X279536Y283337D01*
X279873Y283841D01*
X279992Y284437D01*
X279873Y285032D01*
X279536Y285536D01*
X279032Y285873D01*
X278437Y285992D01*
D02*
G37*
G36*
X250118Y286025D02*
X249500Y285902D01*
X248976Y285552D01*
X248626Y285028D01*
X248503Y284409D01*
X248626Y283791D01*
X248976Y283267D01*
X249500Y282917D01*
X250118Y282794D01*
X250736Y282917D01*
X251260Y283267D01*
X251610Y283791D01*
X251733Y284409D01*
X251610Y285028D01*
X251260Y285552D01*
X250736Y285902D01*
X250118Y286025D01*
D02*
G37*
G36*
X245000D02*
X244382Y285902D01*
X243858Y285552D01*
X243508Y285028D01*
X243385Y284409D01*
X243508Y283791D01*
X243858Y283267D01*
X244382Y282917D01*
X245000Y282794D01*
X245618Y282917D01*
X246142Y283267D01*
X246492Y283791D01*
X246615Y284409D01*
X246492Y285028D01*
X246142Y285552D01*
X245618Y285902D01*
X245000Y286025D01*
D02*
G37*
G36*
X239882D02*
X239264Y285902D01*
X238740Y285552D01*
X238390Y285028D01*
X238267Y284409D01*
X238390Y283791D01*
X238740Y283267D01*
X239264Y282917D01*
X239882Y282794D01*
X240500Y282917D01*
X241024Y283267D01*
X241374Y283791D01*
X241497Y284409D01*
X241374Y285028D01*
X241024Y285552D01*
X240500Y285902D01*
X239882Y286025D01*
D02*
G37*
G36*
X227748Y285007D02*
X227153Y284888D01*
X226649Y284551D01*
X226312Y284047D01*
X226193Y283452D01*
X226312Y282856D01*
X226649Y282352D01*
X227153Y282015D01*
X227748Y281896D01*
X228344Y282015D01*
X228848Y282352D01*
X229185Y282856D01*
X229304Y283452D01*
X229185Y284047D01*
X228848Y284551D01*
X228344Y284888D01*
X227748Y285007D01*
D02*
G37*
G36*
X218000Y284555D02*
X217405Y284437D01*
X216900Y284100D01*
X216563Y283595D01*
X216445Y283000D01*
X216563Y282405D01*
X216900Y281900D01*
X217405Y281563D01*
X218000Y281445D01*
X218595Y281563D01*
X219100Y281900D01*
X219437Y282405D01*
X219555Y283000D01*
X219437Y283595D01*
X219100Y284100D01*
X218595Y284437D01*
X218000Y284555D01*
D02*
G37*
G36*
X212000D02*
X211405Y284437D01*
X210900Y284100D01*
X210563Y283595D01*
X210445Y283000D01*
X210563Y282405D01*
X210900Y281900D01*
X211405Y281563D01*
X212000Y281445D01*
X212595Y281563D01*
X213100Y281900D01*
X213437Y282405D01*
X213555Y283000D01*
X213437Y283595D01*
X213100Y284100D01*
X212595Y284437D01*
X212000Y284555D01*
D02*
G37*
G36*
X250118Y280907D02*
X249500Y280784D01*
X248976Y280434D01*
X248626Y279909D01*
X248503Y279291D01*
X248626Y278673D01*
X248976Y278149D01*
X249500Y277799D01*
X250118Y277676D01*
X250736Y277799D01*
X251260Y278149D01*
X251610Y278673D01*
X251733Y279291D01*
X251610Y279909D01*
X251260Y280434D01*
X250736Y280784D01*
X250118Y280907D01*
D02*
G37*
G36*
X245000D02*
X244382Y280784D01*
X243858Y280434D01*
X243508Y279909D01*
X243385Y279291D01*
X243508Y278673D01*
X243858Y278149D01*
X244382Y277799D01*
X245000Y277676D01*
X245618Y277799D01*
X246142Y278149D01*
X246492Y278673D01*
X246615Y279291D01*
X246492Y279909D01*
X246142Y280434D01*
X245618Y280784D01*
X245000Y280907D01*
D02*
G37*
G36*
X239882D02*
X239264Y280784D01*
X238740Y280434D01*
X238390Y279909D01*
X238267Y279291D01*
X238390Y278673D01*
X238740Y278149D01*
X239264Y277799D01*
X239882Y277676D01*
X240500Y277799D01*
X241024Y278149D01*
X241374Y278673D01*
X241497Y279291D01*
X241374Y279909D01*
X241024Y280434D01*
X240500Y280784D01*
X239882Y280907D01*
D02*
G37*
G36*
X225905Y278555D02*
X225310Y278437D01*
X224805Y278100D01*
X224468Y277595D01*
X224350Y277000D01*
X224468Y276405D01*
X224805Y275900D01*
X225310Y275563D01*
X225905Y275445D01*
X226500Y275563D01*
X227004Y275900D01*
X227341Y276405D01*
X227460Y277000D01*
X227341Y277595D01*
X227004Y278100D01*
X226500Y278437D01*
X225905Y278555D01*
D02*
G37*
G36*
X203900Y275780D02*
X203305Y275662D01*
X202800Y275325D01*
X202463Y274820D01*
X202345Y274225D01*
X202463Y273630D01*
X202800Y273126D01*
X203305Y272789D01*
X203900Y272670D01*
X204495Y272789D01*
X205000Y273126D01*
X205337Y273630D01*
X205455Y274225D01*
X205337Y274820D01*
X205000Y275325D01*
X204495Y275662D01*
X203900Y275780D01*
D02*
G37*
G36*
X272000Y274555D02*
X271405Y274437D01*
X270900Y274100D01*
X270563Y273595D01*
X270445Y273000D01*
X270563Y272405D01*
X270900Y271900D01*
X271405Y271563D01*
X272000Y271445D01*
X272595Y271563D01*
X273100Y271900D01*
X273437Y272405D01*
X273555Y273000D01*
X273437Y273595D01*
X273100Y274100D01*
X272595Y274437D01*
X272000Y274555D01*
D02*
G37*
G36*
X209600Y273055D02*
X209005Y272937D01*
X208500Y272600D01*
X208163Y272095D01*
X208045Y271500D01*
X208163Y270905D01*
X208500Y270400D01*
X209005Y270063D01*
X209600Y269945D01*
X210195Y270063D01*
X210700Y270400D01*
X211037Y270905D01*
X211155Y271500D01*
X211037Y272095D01*
X210700Y272600D01*
X210195Y272937D01*
X209600Y273055D01*
D02*
G37*
G36*
X252000Y268555D02*
X251405Y268437D01*
X250900Y268100D01*
X250563Y267595D01*
X250445Y267000D01*
X250563Y266405D01*
X250900Y265900D01*
X251405Y265563D01*
X252000Y265445D01*
X252595Y265563D01*
X253100Y265900D01*
X253437Y266405D01*
X253555Y267000D01*
X253437Y267595D01*
X253100Y268100D01*
X252595Y268437D01*
X252000Y268555D01*
D02*
G37*
G36*
X236100Y267960D02*
X235505Y267842D01*
X235001Y267505D01*
X234664Y267000D01*
X234545Y266405D01*
X234664Y265810D01*
X235001Y265305D01*
X235505Y264968D01*
X236100Y264850D01*
X236695Y264968D01*
X237200Y265305D01*
X237537Y265810D01*
X237655Y266405D01*
X237537Y267000D01*
X237200Y267505D01*
X236695Y267842D01*
X236100Y267960D01*
D02*
G37*
G36*
X245700Y267268D02*
X245105Y267150D01*
X244600Y266813D01*
X244263Y266308D01*
X244145Y265713D01*
X244263Y265118D01*
X244600Y264614D01*
X245105Y264277D01*
X245700Y264158D01*
X246295Y264277D01*
X246800Y264614D01*
X247137Y265118D01*
X247255Y265713D01*
X247137Y266308D01*
X246800Y266813D01*
X246295Y267150D01*
X245700Y267268D01*
D02*
G37*
G36*
X235800Y263855D02*
X235205Y263737D01*
X234700Y263400D01*
X234363Y262895D01*
X234245Y262300D01*
X234363Y261705D01*
X234700Y261200D01*
X235205Y260863D01*
X235800Y260745D01*
X236395Y260863D01*
X236900Y261200D01*
X237237Y261705D01*
X237355Y262300D01*
X237237Y262895D01*
X236900Y263400D01*
X236395Y263737D01*
X235800Y263855D01*
D02*
G37*
G36*
X264300Y262855D02*
X263705Y262737D01*
X263200Y262400D01*
X262863Y261895D01*
X262745Y261300D01*
X262863Y260705D01*
X263200Y260200D01*
X263705Y259863D01*
X264300Y259745D01*
X264895Y259863D01*
X265400Y260200D01*
X265737Y260705D01*
X265855Y261300D01*
X265737Y261895D01*
X265400Y262400D01*
X264895Y262737D01*
X264300Y262855D01*
D02*
G37*
G36*
X223975Y261555D02*
X223380Y261437D01*
X222875Y261100D01*
X222538Y260595D01*
X222420Y260000D01*
X222538Y259405D01*
X222875Y258900D01*
X223380Y258563D01*
X223975Y258445D01*
X224570Y258563D01*
X225074Y258900D01*
X225412Y259405D01*
X225530Y260000D01*
X225412Y260595D01*
X225074Y261100D01*
X224570Y261437D01*
X223975Y261555D01*
D02*
G37*
G36*
X327000Y266162D02*
X325841Y266009D01*
X324762Y265562D01*
X323834Y264851D01*
X323123Y263924D01*
X322676Y262844D01*
X322523Y261685D01*
X322676Y260526D01*
X323123Y259447D01*
X323834Y258519D01*
X324762Y257808D01*
X325841Y257361D01*
X327000Y257208D01*
X328159Y257361D01*
X329238Y257808D01*
X330166Y258519D01*
X330877Y259447D01*
X331324Y260526D01*
X331477Y261685D01*
X331324Y262844D01*
X330877Y263924D01*
X330166Y264851D01*
X329238Y265562D01*
X328159Y266009D01*
X327000Y266162D01*
D02*
G37*
G36*
X154061Y259494D02*
X153466Y259375D01*
X152962Y259038D01*
X152625Y258534D01*
X152506Y257939D01*
X152625Y257344D01*
X152962Y256839D01*
X153466Y256502D01*
X154061Y256384D01*
X154656Y256502D01*
X155161Y256839D01*
X155498Y257344D01*
X155616Y257939D01*
X155498Y258534D01*
X155161Y259038D01*
X154656Y259375D01*
X154061Y259494D01*
D02*
G37*
G36*
X284000Y255555D02*
X283405Y255437D01*
X282900Y255100D01*
X282563Y254595D01*
X282445Y254000D01*
X282563Y253405D01*
X282900Y252900D01*
X283405Y252563D01*
X284000Y252445D01*
X284595Y252563D01*
X285100Y252900D01*
X285437Y253405D01*
X285555Y254000D01*
X285437Y254595D01*
X285100Y255100D01*
X284595Y255437D01*
X284000Y255555D01*
D02*
G37*
G36*
X287025Y249555D02*
X286430Y249437D01*
X285926Y249100D01*
X285589Y248595D01*
X285470Y248000D01*
X285589Y247405D01*
X285926Y246900D01*
X286430Y246563D01*
X287025Y246445D01*
X287620Y246563D01*
X288125Y246900D01*
X288462Y247405D01*
X288580Y248000D01*
X288462Y248595D01*
X288125Y249100D01*
X287620Y249437D01*
X287025Y249555D01*
D02*
G37*
G36*
X390000Y254576D02*
X388816Y254420D01*
X387712Y253963D01*
X386764Y253236D01*
X386037Y252288D01*
X385580Y251184D01*
X385424Y250000D01*
X385580Y248816D01*
X386037Y247712D01*
X386764Y246764D01*
X387712Y246037D01*
X388816Y245580D01*
X390000Y245424D01*
X391184Y245580D01*
X392288Y246037D01*
X393236Y246764D01*
X393963Y247712D01*
X394420Y248816D01*
X394576Y250000D01*
X394420Y251184D01*
X393963Y252288D01*
X393236Y253236D01*
X392288Y253963D01*
X391184Y254420D01*
X390000Y254576D01*
D02*
G37*
G36*
X100000D02*
X98816Y254420D01*
X97712Y253963D01*
X96764Y253236D01*
X96037Y252288D01*
X95580Y251184D01*
X95424Y250000D01*
X95580Y248816D01*
X96037Y247712D01*
X96764Y246764D01*
X97712Y246037D01*
X98816Y245580D01*
X100000Y245424D01*
X101184Y245580D01*
X102288Y246037D01*
X103236Y246764D01*
X103963Y247712D01*
X104420Y248816D01*
X104576Y250000D01*
X104420Y251184D01*
X103963Y252288D01*
X103236Y253236D01*
X102288Y253963D01*
X101184Y254420D01*
X100000Y254576D01*
D02*
G37*
G36*
X249125Y245611D02*
X248530Y245493D01*
X248026Y245156D01*
X247689Y244651D01*
X247570Y244056D01*
X247689Y243461D01*
X248026Y242956D01*
X248530Y242619D01*
X249125Y242501D01*
X249720Y242619D01*
X250225Y242956D01*
X250562Y243461D01*
X250680Y244056D01*
X250562Y244651D01*
X250225Y245156D01*
X249720Y245493D01*
X249125Y245611D01*
D02*
G37*
G36*
X236000Y241555D02*
X235405Y241437D01*
X234900Y241100D01*
X234563Y240595D01*
X234445Y240000D01*
X234563Y239405D01*
X234900Y238900D01*
X235405Y238563D01*
X236000Y238445D01*
X236595Y238563D01*
X237100Y238900D01*
X237437Y239405D01*
X237555Y240000D01*
X237437Y240595D01*
X237100Y241100D01*
X236595Y241437D01*
X236000Y241555D01*
D02*
G37*
G36*
X331439Y246439D02*
X322561D01*
Y237561D01*
X331439D01*
Y246439D01*
D02*
G37*
G36*
X239882Y238073D02*
X239287Y237955D01*
X238782Y237618D01*
X238445Y237113D01*
X238327Y236518D01*
X238445Y235923D01*
X238782Y235418D01*
X239287Y235081D01*
X239882Y234963D01*
X240477Y235081D01*
X240982Y235418D01*
X241319Y235923D01*
X241437Y236518D01*
X241319Y237113D01*
X240982Y237618D01*
X240477Y237955D01*
X239882Y238073D01*
D02*
G37*
G36*
X253300Y231455D02*
X252705Y231337D01*
X252200Y231000D01*
X251863Y230495D01*
X251745Y229900D01*
X251863Y229305D01*
X252200Y228800D01*
X252705Y228463D01*
X253300Y228345D01*
X253895Y228463D01*
X254400Y228800D01*
X254737Y229305D01*
X254855Y229900D01*
X254737Y230495D01*
X254400Y231000D01*
X253895Y231337D01*
X253300Y231455D01*
D02*
G37*
G36*
X134200Y225955D02*
X133605Y225837D01*
X133100Y225500D01*
X132763Y224995D01*
X132645Y224400D01*
X132763Y223805D01*
X133100Y223300D01*
X133605Y222963D01*
X134200Y222845D01*
X134795Y222963D01*
X135300Y223300D01*
X135637Y223805D01*
X135755Y224400D01*
X135637Y224995D01*
X135300Y225500D01*
X134795Y225837D01*
X134200Y225955D01*
D02*
G37*
G36*
X145000Y215555D02*
X144405Y215437D01*
X143900Y215100D01*
X143563Y214595D01*
X143445Y214000D01*
X143563Y213405D01*
X143900Y212900D01*
X144405Y212563D01*
X145000Y212445D01*
X145595Y212563D01*
X146100Y212900D01*
X146437Y213405D01*
X146555Y214000D01*
X146437Y214595D01*
X146100Y215100D01*
X145595Y215437D01*
X145000Y215555D01*
D02*
G37*
G36*
X332375Y211555D02*
X331780Y211437D01*
X331275Y211100D01*
X330938Y210595D01*
X330820Y210000D01*
X330938Y209405D01*
X331275Y208900D01*
X331780Y208563D01*
X332375Y208445D01*
X332970Y208563D01*
X333475Y208900D01*
X333812Y209405D01*
X333930Y210000D01*
X333812Y210595D01*
X333475Y211100D01*
X332970Y211437D01*
X332375Y211555D01*
D02*
G37*
G36*
X370000Y203661D02*
X369001Y203530D01*
X368069Y203144D01*
X367270Y202530D01*
X366656Y201731D01*
X366270Y200799D01*
X366139Y199800D01*
X366270Y198801D01*
X366656Y197869D01*
X367270Y197070D01*
X368069Y196456D01*
X369001Y196070D01*
X370000Y195939D01*
X370999Y196070D01*
X371931Y196456D01*
X372730Y197070D01*
X373344Y197869D01*
X373730Y198801D01*
X373861Y199800D01*
X373730Y200799D01*
X373344Y201731D01*
X372730Y202530D01*
X371931Y203144D01*
X370999Y203530D01*
X370000Y203661D01*
D02*
G37*
G36*
X360000D02*
X359001Y203530D01*
X358069Y203144D01*
X357270Y202530D01*
X356656Y201731D01*
X356270Y200799D01*
X356139Y199800D01*
X356270Y198801D01*
X356656Y197869D01*
X357270Y197070D01*
X358069Y196456D01*
X359001Y196070D01*
X360000Y195939D01*
X360999Y196070D01*
X361931Y196456D01*
X362730Y197070D01*
X363344Y197869D01*
X363730Y198801D01*
X363861Y199800D01*
X363730Y200799D01*
X363344Y201731D01*
X362730Y202530D01*
X361931Y203144D01*
X360999Y203530D01*
X360000Y203661D01*
D02*
G37*
G36*
X130000D02*
X129001Y203530D01*
X128069Y203144D01*
X127270Y202530D01*
X126656Y201731D01*
X126270Y200799D01*
X126139Y199800D01*
X126270Y198801D01*
X126656Y197869D01*
X127270Y197070D01*
X128069Y196456D01*
X129001Y196070D01*
X130000Y195939D01*
X130999Y196070D01*
X131931Y196456D01*
X132730Y197070D01*
X133344Y197869D01*
X133730Y198801D01*
X133861Y199800D01*
X133730Y200799D01*
X133344Y201731D01*
X132730Y202530D01*
X131931Y203144D01*
X130999Y203530D01*
X130000Y203661D01*
D02*
G37*
G36*
X120000D02*
X119001Y203530D01*
X118069Y203144D01*
X117270Y202530D01*
X116656Y201731D01*
X116270Y200799D01*
X116139Y199800D01*
X116270Y198801D01*
X116656Y197869D01*
X117270Y197070D01*
X118069Y196456D01*
X119001Y196070D01*
X120000Y195939D01*
X120999Y196070D01*
X121931Y196456D01*
X122730Y197070D01*
X123344Y197869D01*
X123730Y198801D01*
X123861Y199800D01*
X123730Y200799D01*
X123344Y201731D01*
X122730Y202530D01*
X121931Y203144D01*
X120999Y203530D01*
X120000Y203661D01*
D02*
G37*
G36*
X242800Y191055D02*
X242205Y190937D01*
X241700Y190600D01*
X241363Y190095D01*
X241245Y189500D01*
X241363Y188905D01*
X241700Y188400D01*
X242205Y188063D01*
X242800Y187945D01*
X243395Y188063D01*
X243900Y188400D01*
X244237Y188905D01*
X244355Y189500D01*
X244237Y190095D01*
X243900Y190600D01*
X243395Y190937D01*
X242800Y191055D01*
D02*
G37*
G36*
X370000Y193661D02*
X369001Y193530D01*
X368069Y193144D01*
X367270Y192530D01*
X366656Y191731D01*
X366270Y190799D01*
X366139Y189800D01*
X366270Y188801D01*
X366656Y187869D01*
X367270Y187070D01*
X368069Y186456D01*
X369001Y186070D01*
X370000Y185939D01*
X370999Y186070D01*
X371931Y186456D01*
X372730Y187070D01*
X373344Y187869D01*
X373730Y188801D01*
X373861Y189800D01*
X373730Y190799D01*
X373344Y191731D01*
X372730Y192530D01*
X371931Y193144D01*
X370999Y193530D01*
X370000Y193661D01*
D02*
G37*
G36*
X360000D02*
X359001Y193530D01*
X358069Y193144D01*
X357270Y192530D01*
X356656Y191731D01*
X356270Y190799D01*
X356139Y189800D01*
X356270Y188801D01*
X356656Y187869D01*
X357270Y187070D01*
X358069Y186456D01*
X359001Y186070D01*
X360000Y185939D01*
X360999Y186070D01*
X361931Y186456D01*
X362730Y187070D01*
X363344Y187869D01*
X363730Y188801D01*
X363861Y189800D01*
X363730Y190799D01*
X363344Y191731D01*
X362730Y192530D01*
X361931Y193144D01*
X360999Y193530D01*
X360000Y193661D01*
D02*
G37*
G36*
X130000D02*
X129001Y193530D01*
X128069Y193144D01*
X127270Y192530D01*
X126656Y191731D01*
X126270Y190799D01*
X126139Y189800D01*
X126270Y188801D01*
X126656Y187869D01*
X127270Y187070D01*
X128069Y186456D01*
X129001Y186070D01*
X130000Y185939D01*
X130999Y186070D01*
X131931Y186456D01*
X132730Y187070D01*
X133344Y187869D01*
X133730Y188801D01*
X133861Y189800D01*
X133730Y190799D01*
X133344Y191731D01*
X132730Y192530D01*
X131931Y193144D01*
X130999Y193530D01*
X130000Y193661D01*
D02*
G37*
G36*
X120000D02*
X119001Y193530D01*
X118069Y193144D01*
X117270Y192530D01*
X116656Y191731D01*
X116270Y190799D01*
X116139Y189800D01*
X116270Y188801D01*
X116656Y187869D01*
X117270Y187070D01*
X118069Y186456D01*
X119001Y186070D01*
X120000Y185939D01*
X120999Y186070D01*
X121931Y186456D01*
X122730Y187070D01*
X123344Y187869D01*
X123730Y188801D01*
X123861Y189800D01*
X123730Y190799D01*
X123344Y191731D01*
X122730Y192530D01*
X121931Y193144D01*
X120999Y193530D01*
X120000Y193661D01*
D02*
G37*
G36*
X243100Y185755D02*
X242505Y185637D01*
X242000Y185300D01*
X241663Y184795D01*
X241545Y184200D01*
X241663Y183605D01*
X242000Y183100D01*
X242505Y182763D01*
X243100Y182645D01*
X243695Y182763D01*
X244200Y183100D01*
X244537Y183605D01*
X244655Y184200D01*
X244537Y184795D01*
X244200Y185300D01*
X243695Y185637D01*
X243100Y185755D01*
D02*
G37*
G36*
X353200Y184755D02*
X352605Y184637D01*
X352100Y184300D01*
X351763Y183795D01*
X351645Y183200D01*
X351763Y182605D01*
X352100Y182100D01*
X352605Y181763D01*
X353200Y181645D01*
X353795Y181763D01*
X354300Y182100D01*
X354637Y182605D01*
X354755Y183200D01*
X354637Y183795D01*
X354300Y184300D01*
X353795Y184637D01*
X353200Y184755D01*
D02*
G37*
G36*
X55000Y188631D02*
X54060Y188507D01*
X53184Y188145D01*
X52432Y187568D01*
X51855Y186816D01*
X51493Y185940D01*
X51369Y185000D01*
X51493Y184060D01*
X51855Y183185D01*
X52432Y182432D01*
X53184Y181855D01*
X54060Y181493D01*
X55000Y181369D01*
X55940Y181493D01*
X56815Y181855D01*
X57568Y182432D01*
X58145Y183185D01*
X58507Y184060D01*
X58631Y185000D01*
X58507Y185940D01*
X58145Y186816D01*
X57568Y187568D01*
X56815Y188145D01*
X55940Y188507D01*
X55000Y188631D01*
D02*
G37*
G36*
X40000D02*
X39060Y188507D01*
X38184Y188145D01*
X37433Y187568D01*
X36855Y186816D01*
X36493Y185940D01*
X36369Y185000D01*
X36493Y184060D01*
X36855Y183185D01*
X37433Y182432D01*
X38184Y181855D01*
X39060Y181493D01*
X40000Y181369D01*
X40940Y181493D01*
X41816Y181855D01*
X42568Y182432D01*
X43145Y183185D01*
X43507Y184060D01*
X43631Y185000D01*
X43507Y185940D01*
X43145Y186816D01*
X42568Y187568D01*
X41816Y188145D01*
X40940Y188507D01*
X40000Y188631D01*
D02*
G37*
G36*
X25000D02*
X24060Y188507D01*
X23185Y188145D01*
X22433Y187568D01*
X21855Y186816D01*
X21493Y185940D01*
X21369Y185000D01*
X21493Y184060D01*
X21855Y183185D01*
X22433Y182432D01*
X23185Y181855D01*
X24060Y181493D01*
X25000Y181369D01*
X25940Y181493D01*
X26816Y181855D01*
X27567Y182432D01*
X28145Y183185D01*
X28507Y184060D01*
X28631Y185000D01*
X28507Y185940D01*
X28145Y186816D01*
X27567Y187568D01*
X26816Y188145D01*
X25940Y188507D01*
X25000Y188631D01*
D02*
G37*
G36*
X349975Y181580D02*
X349380Y181462D01*
X348875Y181125D01*
X348538Y180620D01*
X348420Y180025D01*
X348538Y179430D01*
X348875Y178926D01*
X349380Y178588D01*
X349975Y178470D01*
X350570Y178588D01*
X351074Y178926D01*
X351412Y179430D01*
X351530Y180025D01*
X351412Y180620D01*
X351074Y181125D01*
X350570Y181462D01*
X349975Y181580D01*
D02*
G37*
G36*
X344000Y181555D02*
X343405Y181437D01*
X342900Y181100D01*
X342563Y180595D01*
X342445Y180000D01*
X342563Y179405D01*
X342900Y178900D01*
X343405Y178563D01*
X344000Y178445D01*
X344595Y178563D01*
X345100Y178900D01*
X345437Y179405D01*
X345555Y180000D01*
X345437Y180595D01*
X345100Y181100D01*
X344595Y181437D01*
X344000Y181555D01*
D02*
G37*
G36*
X177429Y179555D02*
X176834Y179437D01*
X176329Y179100D01*
X175992Y178595D01*
X175874Y178000D01*
X175992Y177405D01*
X176329Y176900D01*
X176834Y176563D01*
X177429Y176445D01*
X178024Y176563D01*
X178528Y176900D01*
X178866Y177405D01*
X178984Y178000D01*
X178866Y178595D01*
X178528Y179100D01*
X178024Y179437D01*
X177429Y179555D01*
D02*
G37*
G36*
X173000D02*
X172405Y179437D01*
X171900Y179100D01*
X171563Y178595D01*
X171445Y178000D01*
X171563Y177405D01*
X171900Y176900D01*
X172405Y176563D01*
X173000Y176445D01*
X173595Y176563D01*
X174100Y176900D01*
X174437Y177405D01*
X174555Y178000D01*
X174437Y178595D01*
X174100Y179100D01*
X173595Y179437D01*
X173000Y179555D01*
D02*
G37*
G36*
X370000Y183661D02*
X369001Y183530D01*
X368069Y183144D01*
X367270Y182530D01*
X366656Y181731D01*
X366270Y180799D01*
X366139Y179800D01*
X366270Y178801D01*
X366656Y177869D01*
X367270Y177070D01*
X368069Y176456D01*
X369001Y176070D01*
X370000Y175939D01*
X370999Y176070D01*
X371931Y176456D01*
X372730Y177070D01*
X373344Y177869D01*
X373730Y178801D01*
X373861Y179800D01*
X373730Y180799D01*
X373344Y181731D01*
X372730Y182530D01*
X371931Y183144D01*
X370999Y183530D01*
X370000Y183661D01*
D02*
G37*
G36*
X360000D02*
X359001Y183530D01*
X358069Y183144D01*
X357270Y182530D01*
X356656Y181731D01*
X356270Y180799D01*
X356139Y179800D01*
X356270Y178801D01*
X356656Y177869D01*
X357270Y177070D01*
X358069Y176456D01*
X359001Y176070D01*
X360000Y175939D01*
X360999Y176070D01*
X361931Y176456D01*
X362730Y177070D01*
X363344Y177869D01*
X363730Y178801D01*
X363861Y179800D01*
X363730Y180799D01*
X363344Y181731D01*
X362730Y182530D01*
X361931Y183144D01*
X360999Y183530D01*
X360000Y183661D01*
D02*
G37*
G36*
X130000D02*
X129001Y183530D01*
X128069Y183144D01*
X127270Y182530D01*
X126656Y181731D01*
X126270Y180799D01*
X126139Y179800D01*
X126270Y178801D01*
X126656Y177869D01*
X127270Y177070D01*
X128069Y176456D01*
X129001Y176070D01*
X130000Y175939D01*
X130999Y176070D01*
X131931Y176456D01*
X132730Y177070D01*
X133344Y177869D01*
X133730Y178801D01*
X133861Y179800D01*
X133730Y180799D01*
X133344Y181731D01*
X132730Y182530D01*
X131931Y183144D01*
X130999Y183530D01*
X130000Y183661D01*
D02*
G37*
G36*
X120000D02*
X119001Y183530D01*
X118069Y183144D01*
X117270Y182530D01*
X116656Y181731D01*
X116270Y180799D01*
X116139Y179800D01*
X116270Y178801D01*
X116656Y177869D01*
X117270Y177070D01*
X118069Y176456D01*
X119001Y176070D01*
X120000Y175939D01*
X120999Y176070D01*
X121931Y176456D01*
X122730Y177070D01*
X123344Y177869D01*
X123730Y178801D01*
X123861Y179800D01*
X123730Y180799D01*
X123344Y181731D01*
X122730Y182530D01*
X121931Y183144D01*
X120999Y183530D01*
X120000Y183661D01*
D02*
G37*
G36*
X55000Y178631D02*
X54060Y178507D01*
X53184Y178145D01*
X52432Y177568D01*
X51855Y176815D01*
X51493Y175940D01*
X51369Y175000D01*
X51493Y174060D01*
X51855Y173185D01*
X52432Y172432D01*
X53184Y171855D01*
X54060Y171493D01*
X55000Y171369D01*
X55940Y171493D01*
X56815Y171855D01*
X57568Y172432D01*
X58145Y173185D01*
X58507Y174060D01*
X58631Y175000D01*
X58507Y175940D01*
X58145Y176815D01*
X57568Y177568D01*
X56815Y178145D01*
X55940Y178507D01*
X55000Y178631D01*
D02*
G37*
G36*
X40000D02*
X39060Y178507D01*
X38184Y178145D01*
X37433Y177568D01*
X36855Y176815D01*
X36493Y175940D01*
X36369Y175000D01*
X36493Y174060D01*
X36855Y173185D01*
X37433Y172432D01*
X38184Y171855D01*
X39060Y171493D01*
X40000Y171369D01*
X40940Y171493D01*
X41816Y171855D01*
X42568Y172432D01*
X43145Y173185D01*
X43507Y174060D01*
X43631Y175000D01*
X43507Y175940D01*
X43145Y176815D01*
X42568Y177568D01*
X41816Y178145D01*
X40940Y178507D01*
X40000Y178631D01*
D02*
G37*
G36*
X25000D02*
X24060Y178507D01*
X23185Y178145D01*
X22433Y177568D01*
X21855Y176815D01*
X21493Y175940D01*
X21369Y175000D01*
X21493Y174060D01*
X21855Y173185D01*
X22433Y172432D01*
X23185Y171855D01*
X24060Y171493D01*
X25000Y171369D01*
X25940Y171493D01*
X26816Y171855D01*
X27567Y172432D01*
X28145Y173185D01*
X28507Y174060D01*
X28631Y175000D01*
X28507Y175940D01*
X28145Y176815D01*
X27567Y177568D01*
X26816Y178145D01*
X25940Y178507D01*
X25000Y178631D01*
D02*
G37*
G36*
X370000Y173661D02*
X369001Y173530D01*
X368069Y173144D01*
X367270Y172530D01*
X366656Y171731D01*
X366270Y170799D01*
X366139Y169800D01*
X366270Y168801D01*
X366656Y167869D01*
X367270Y167070D01*
X368069Y166456D01*
X369001Y166070D01*
X370000Y165939D01*
X370999Y166070D01*
X371931Y166456D01*
X372730Y167070D01*
X373344Y167869D01*
X373730Y168801D01*
X373861Y169800D01*
X373730Y170799D01*
X373344Y171731D01*
X372730Y172530D01*
X371931Y173144D01*
X370999Y173530D01*
X370000Y173661D01*
D02*
G37*
G36*
X360000D02*
X359001Y173530D01*
X358069Y173144D01*
X357270Y172530D01*
X356656Y171731D01*
X356270Y170799D01*
X356139Y169800D01*
X356270Y168801D01*
X356656Y167869D01*
X357270Y167070D01*
X358069Y166456D01*
X359001Y166070D01*
X360000Y165939D01*
X360999Y166070D01*
X361931Y166456D01*
X362730Y167070D01*
X363344Y167869D01*
X363730Y168801D01*
X363861Y169800D01*
X363730Y170799D01*
X363344Y171731D01*
X362730Y172530D01*
X361931Y173144D01*
X360999Y173530D01*
X360000Y173661D01*
D02*
G37*
G36*
X130000D02*
X129001Y173530D01*
X128069Y173144D01*
X127270Y172530D01*
X126656Y171731D01*
X126270Y170799D01*
X126139Y169800D01*
X126270Y168801D01*
X126656Y167869D01*
X127270Y167070D01*
X128069Y166456D01*
X129001Y166070D01*
X130000Y165939D01*
X130999Y166070D01*
X131931Y166456D01*
X132730Y167070D01*
X133344Y167869D01*
X133730Y168801D01*
X133861Y169800D01*
X133730Y170799D01*
X133344Y171731D01*
X132730Y172530D01*
X131931Y173144D01*
X130999Y173530D01*
X130000Y173661D01*
D02*
G37*
G36*
X40000Y168631D02*
X39060Y168507D01*
X38184Y168145D01*
X37433Y167568D01*
X36855Y166815D01*
X36493Y165940D01*
X36369Y165000D01*
X36493Y164060D01*
X36855Y163184D01*
X37433Y162432D01*
X38184Y161855D01*
X39060Y161493D01*
X40000Y161369D01*
X40940Y161493D01*
X41816Y161855D01*
X42568Y162432D01*
X43145Y163184D01*
X43507Y164060D01*
X43631Y165000D01*
X43507Y165940D01*
X43145Y166815D01*
X42568Y167568D01*
X41816Y168145D01*
X40940Y168507D01*
X40000Y168631D01*
D02*
G37*
G36*
X25000D02*
X24060Y168507D01*
X23185Y168145D01*
X22433Y167568D01*
X21855Y166815D01*
X21493Y165940D01*
X21369Y165000D01*
X21493Y164060D01*
X21855Y163184D01*
X22433Y162432D01*
X23185Y161855D01*
X24060Y161493D01*
X25000Y161369D01*
X25940Y161493D01*
X26816Y161855D01*
X27567Y162432D01*
X28145Y163184D01*
X28507Y164060D01*
X28631Y165000D01*
X28507Y165940D01*
X28145Y166815D01*
X27567Y167568D01*
X26816Y168145D01*
X25940Y168507D01*
X25000Y168631D01*
D02*
G37*
G36*
X360000Y163661D02*
X359001Y163530D01*
X358069Y163144D01*
X357270Y162530D01*
X356656Y161731D01*
X356270Y160799D01*
X356139Y159800D01*
X356270Y158801D01*
X356656Y157869D01*
X357270Y157070D01*
X358069Y156456D01*
X359001Y156070D01*
X360000Y155939D01*
X360999Y156070D01*
X361931Y156456D01*
X362730Y157070D01*
X363344Y157869D01*
X363730Y158801D01*
X363861Y159800D01*
X363730Y160799D01*
X363344Y161731D01*
X362730Y162530D01*
X361931Y163144D01*
X360999Y163530D01*
X360000Y163661D01*
D02*
G37*
G36*
X130000D02*
X129001Y163530D01*
X128069Y163144D01*
X127270Y162530D01*
X126656Y161731D01*
X126270Y160799D01*
X126139Y159800D01*
X126270Y158801D01*
X126656Y157869D01*
X127270Y157070D01*
X128069Y156456D01*
X129001Y156070D01*
X130000Y155939D01*
X130999Y156070D01*
X131931Y156456D01*
X132730Y157070D01*
X133344Y157869D01*
X133730Y158801D01*
X133861Y159800D01*
X133730Y160799D01*
X133344Y161731D01*
X132730Y162530D01*
X131931Y163144D01*
X130999Y163530D01*
X130000Y163661D01*
D02*
G37*
G36*
X120000D02*
X119001Y163530D01*
X118069Y163144D01*
X117270Y162530D01*
X116656Y161731D01*
X116270Y160799D01*
X116139Y159800D01*
X116270Y158801D01*
X116656Y157869D01*
X117270Y157070D01*
X118069Y156456D01*
X119001Y156070D01*
X120000Y155939D01*
X120999Y156070D01*
X121931Y156456D01*
X122730Y157070D01*
X123344Y157869D01*
X123730Y158801D01*
X123861Y159800D01*
X123730Y160799D01*
X123344Y161731D01*
X122730Y162530D01*
X121931Y163144D01*
X120999Y163530D01*
X120000Y163661D01*
D02*
G37*
G36*
X55000Y158631D02*
X54060Y158507D01*
X53184Y158145D01*
X52432Y157568D01*
X51855Y156816D01*
X51493Y155940D01*
X51369Y155000D01*
X51493Y154060D01*
X51855Y153184D01*
X52432Y152432D01*
X53184Y151855D01*
X54060Y151493D01*
X55000Y151369D01*
X55940Y151493D01*
X56815Y151855D01*
X57568Y152432D01*
X58145Y153184D01*
X58507Y154060D01*
X58631Y155000D01*
X58507Y155940D01*
X58145Y156816D01*
X57568Y157568D01*
X56815Y158145D01*
X55940Y158507D01*
X55000Y158631D01*
D02*
G37*
G36*
X40000D02*
X39060Y158507D01*
X38184Y158145D01*
X37433Y157568D01*
X36855Y156816D01*
X36493Y155940D01*
X36369Y155000D01*
X36493Y154060D01*
X36855Y153184D01*
X37433Y152432D01*
X38184Y151855D01*
X39060Y151493D01*
X40000Y151369D01*
X40940Y151493D01*
X41816Y151855D01*
X42568Y152432D01*
X43145Y153184D01*
X43507Y154060D01*
X43631Y155000D01*
X43507Y155940D01*
X43145Y156816D01*
X42568Y157568D01*
X41816Y158145D01*
X40940Y158507D01*
X40000Y158631D01*
D02*
G37*
G36*
X25000D02*
X24060Y158507D01*
X23185Y158145D01*
X22433Y157568D01*
X21855Y156816D01*
X21493Y155940D01*
X21369Y155000D01*
X21493Y154060D01*
X21855Y153184D01*
X22433Y152432D01*
X23185Y151855D01*
X24060Y151493D01*
X25000Y151369D01*
X25940Y151493D01*
X26816Y151855D01*
X27567Y152432D01*
X28145Y153184D01*
X28507Y154060D01*
X28631Y155000D01*
X28507Y155940D01*
X28145Y156816D01*
X27567Y157568D01*
X26816Y158145D01*
X25940Y158507D01*
X25000Y158631D01*
D02*
G37*
G36*
X370000Y153661D02*
X369001Y153530D01*
X368069Y153144D01*
X367270Y152530D01*
X366656Y151731D01*
X366270Y150799D01*
X366139Y149800D01*
X366270Y148801D01*
X366656Y147869D01*
X367270Y147070D01*
X368069Y146456D01*
X369001Y146070D01*
X370000Y145939D01*
X370999Y146070D01*
X371931Y146456D01*
X372730Y147070D01*
X373344Y147869D01*
X373730Y148801D01*
X373861Y149800D01*
X373730Y150799D01*
X373344Y151731D01*
X372730Y152530D01*
X371931Y153144D01*
X370999Y153530D01*
X370000Y153661D01*
D02*
G37*
G36*
X360000D02*
X359001Y153530D01*
X358069Y153144D01*
X357270Y152530D01*
X356656Y151731D01*
X356270Y150799D01*
X356139Y149800D01*
X356270Y148801D01*
X356656Y147869D01*
X357270Y147070D01*
X358069Y146456D01*
X359001Y146070D01*
X360000Y145939D01*
X360999Y146070D01*
X361931Y146456D01*
X362730Y147070D01*
X363344Y147869D01*
X363730Y148801D01*
X363861Y149800D01*
X363730Y150799D01*
X363344Y151731D01*
X362730Y152530D01*
X361931Y153144D01*
X360999Y153530D01*
X360000Y153661D01*
D02*
G37*
G36*
X130000D02*
X129001Y153530D01*
X128069Y153144D01*
X127270Y152530D01*
X126656Y151731D01*
X126270Y150799D01*
X126139Y149800D01*
X126270Y148801D01*
X126656Y147869D01*
X127270Y147070D01*
X128069Y146456D01*
X129001Y146070D01*
X130000Y145939D01*
X130999Y146070D01*
X131931Y146456D01*
X132730Y147070D01*
X133344Y147869D01*
X133730Y148801D01*
X133861Y149800D01*
X133730Y150799D01*
X133344Y151731D01*
X132730Y152530D01*
X131931Y153144D01*
X130999Y153530D01*
X130000Y153661D01*
D02*
G37*
G36*
X120000D02*
X119001Y153530D01*
X118069Y153144D01*
X117270Y152530D01*
X116656Y151731D01*
X116270Y150799D01*
X116139Y149800D01*
X116270Y148801D01*
X116656Y147869D01*
X117270Y147070D01*
X118069Y146456D01*
X119001Y146070D01*
X120000Y145939D01*
X120999Y146070D01*
X121931Y146456D01*
X122730Y147070D01*
X123344Y147869D01*
X123730Y148801D01*
X123861Y149800D01*
X123730Y150799D01*
X123344Y151731D01*
X122730Y152530D01*
X121931Y153144D01*
X120999Y153530D01*
X120000Y153661D01*
D02*
G37*
G36*
X55000Y148631D02*
X54060Y148507D01*
X53184Y148145D01*
X52432Y147568D01*
X51855Y146816D01*
X51493Y145940D01*
X51369Y145000D01*
X51493Y144060D01*
X51855Y143184D01*
X52432Y142432D01*
X53184Y141855D01*
X54060Y141493D01*
X55000Y141369D01*
X55940Y141493D01*
X56815Y141855D01*
X57568Y142432D01*
X58145Y143184D01*
X58507Y144060D01*
X58631Y145000D01*
X58507Y145940D01*
X58145Y146816D01*
X57568Y147568D01*
X56815Y148145D01*
X55940Y148507D01*
X55000Y148631D01*
D02*
G37*
G36*
X40000D02*
X39060Y148507D01*
X38184Y148145D01*
X37433Y147568D01*
X36855Y146816D01*
X36493Y145940D01*
X36369Y145000D01*
X36493Y144060D01*
X36855Y143184D01*
X37433Y142432D01*
X38184Y141855D01*
X39060Y141493D01*
X40000Y141369D01*
X40940Y141493D01*
X41816Y141855D01*
X42568Y142432D01*
X43145Y143184D01*
X43507Y144060D01*
X43631Y145000D01*
X43507Y145940D01*
X43145Y146816D01*
X42568Y147568D01*
X41816Y148145D01*
X40940Y148507D01*
X40000Y148631D01*
D02*
G37*
G36*
X25000D02*
X24060Y148507D01*
X23185Y148145D01*
X22433Y147568D01*
X21855Y146816D01*
X21493Y145940D01*
X21369Y145000D01*
X21493Y144060D01*
X21855Y143184D01*
X22433Y142432D01*
X23185Y141855D01*
X24060Y141493D01*
X25000Y141369D01*
X25940Y141493D01*
X26816Y141855D01*
X27567Y142432D01*
X28145Y143184D01*
X28507Y144060D01*
X28631Y145000D01*
X28507Y145940D01*
X28145Y146816D01*
X27567Y147568D01*
X26816Y148145D01*
X25940Y148507D01*
X25000Y148631D01*
D02*
G37*
G36*
X370000Y143661D02*
X369001Y143530D01*
X368069Y143144D01*
X367270Y142530D01*
X366656Y141731D01*
X366270Y140799D01*
X366139Y139800D01*
X366270Y138801D01*
X366656Y137869D01*
X367270Y137070D01*
X368069Y136456D01*
X369001Y136070D01*
X370000Y135939D01*
X370999Y136070D01*
X371931Y136456D01*
X372730Y137070D01*
X373344Y137869D01*
X373730Y138801D01*
X373861Y139800D01*
X373730Y140799D01*
X373344Y141731D01*
X372730Y142530D01*
X371931Y143144D01*
X370999Y143530D01*
X370000Y143661D01*
D02*
G37*
G36*
X360000D02*
X359001Y143530D01*
X358069Y143144D01*
X357270Y142530D01*
X356656Y141731D01*
X356270Y140799D01*
X356139Y139800D01*
X356270Y138801D01*
X356656Y137869D01*
X357270Y137070D01*
X358069Y136456D01*
X359001Y136070D01*
X360000Y135939D01*
X360999Y136070D01*
X361931Y136456D01*
X362730Y137070D01*
X363344Y137869D01*
X363730Y138801D01*
X363861Y139800D01*
X363730Y140799D01*
X363344Y141731D01*
X362730Y142530D01*
X361931Y143144D01*
X360999Y143530D01*
X360000Y143661D01*
D02*
G37*
G36*
X130000D02*
X129001Y143530D01*
X128069Y143144D01*
X127270Y142530D01*
X126656Y141731D01*
X126270Y140799D01*
X126139Y139800D01*
X126270Y138801D01*
X126656Y137869D01*
X127270Y137070D01*
X128069Y136456D01*
X129001Y136070D01*
X130000Y135939D01*
X130999Y136070D01*
X131931Y136456D01*
X132730Y137070D01*
X133344Y137869D01*
X133730Y138801D01*
X133861Y139800D01*
X133730Y140799D01*
X133344Y141731D01*
X132730Y142530D01*
X131931Y143144D01*
X130999Y143530D01*
X130000Y143661D01*
D02*
G37*
G36*
X120000D02*
X119001Y143530D01*
X118069Y143144D01*
X117270Y142530D01*
X116656Y141731D01*
X116270Y140799D01*
X116139Y139800D01*
X116270Y138801D01*
X116656Y137869D01*
X117270Y137070D01*
X118069Y136456D01*
X119001Y136070D01*
X120000Y135939D01*
X120999Y136070D01*
X121931Y136456D01*
X122730Y137070D01*
X123344Y137869D01*
X123730Y138801D01*
X123861Y139800D01*
X123730Y140799D01*
X123344Y141731D01*
X122730Y142530D01*
X121931Y143144D01*
X120999Y143530D01*
X120000Y143661D01*
D02*
G37*
G36*
X55000Y138631D02*
X54060Y138507D01*
X53184Y138145D01*
X52432Y137568D01*
X51855Y136816D01*
X51493Y135940D01*
X51369Y135000D01*
X51493Y134060D01*
X51855Y133185D01*
X52432Y132432D01*
X53184Y131855D01*
X54060Y131493D01*
X55000Y131369D01*
X55940Y131493D01*
X56815Y131855D01*
X57568Y132432D01*
X58145Y133185D01*
X58507Y134060D01*
X58631Y135000D01*
X58507Y135940D01*
X58145Y136816D01*
X57568Y137568D01*
X56815Y138145D01*
X55940Y138507D01*
X55000Y138631D01*
D02*
G37*
G36*
X40000D02*
X39060Y138507D01*
X38184Y138145D01*
X37433Y137568D01*
X36855Y136816D01*
X36493Y135940D01*
X36369Y135000D01*
X36493Y134060D01*
X36855Y133185D01*
X37433Y132432D01*
X38184Y131855D01*
X39060Y131493D01*
X40000Y131369D01*
X40940Y131493D01*
X41816Y131855D01*
X42568Y132432D01*
X43145Y133185D01*
X43507Y134060D01*
X43631Y135000D01*
X43507Y135940D01*
X43145Y136816D01*
X42568Y137568D01*
X41816Y138145D01*
X40940Y138507D01*
X40000Y138631D01*
D02*
G37*
G36*
X25000D02*
X24060Y138507D01*
X23185Y138145D01*
X22433Y137568D01*
X21855Y136816D01*
X21493Y135940D01*
X21369Y135000D01*
X21493Y134060D01*
X21855Y133185D01*
X22433Y132432D01*
X23185Y131855D01*
X24060Y131493D01*
X25000Y131369D01*
X25940Y131493D01*
X26816Y131855D01*
X27567Y132432D01*
X28145Y133185D01*
X28507Y134060D01*
X28631Y135000D01*
X28507Y135940D01*
X28145Y136816D01*
X27567Y137568D01*
X26816Y138145D01*
X25940Y138507D01*
X25000Y138631D01*
D02*
G37*
G36*
X370000Y133661D02*
X369001Y133530D01*
X368069Y133144D01*
X367270Y132530D01*
X366656Y131731D01*
X366270Y130799D01*
X366139Y129800D01*
X366270Y128801D01*
X366656Y127869D01*
X367270Y127070D01*
X368069Y126456D01*
X369001Y126070D01*
X370000Y125939D01*
X370999Y126070D01*
X371931Y126456D01*
X372730Y127070D01*
X373344Y127869D01*
X373730Y128801D01*
X373861Y129800D01*
X373730Y130799D01*
X373344Y131731D01*
X372730Y132530D01*
X371931Y133144D01*
X370999Y133530D01*
X370000Y133661D01*
D02*
G37*
G36*
X360000D02*
X359001Y133530D01*
X358069Y133144D01*
X357270Y132530D01*
X356656Y131731D01*
X356270Y130799D01*
X356139Y129800D01*
X356270Y128801D01*
X356656Y127869D01*
X357270Y127070D01*
X358069Y126456D01*
X359001Y126070D01*
X360000Y125939D01*
X360999Y126070D01*
X361931Y126456D01*
X362730Y127070D01*
X363344Y127869D01*
X363730Y128801D01*
X363861Y129800D01*
X363730Y130799D01*
X363344Y131731D01*
X362730Y132530D01*
X361931Y133144D01*
X360999Y133530D01*
X360000Y133661D01*
D02*
G37*
G36*
X130000D02*
X129001Y133530D01*
X128069Y133144D01*
X127270Y132530D01*
X126656Y131731D01*
X126270Y130799D01*
X126139Y129800D01*
X126270Y128801D01*
X126656Y127869D01*
X127270Y127070D01*
X128069Y126456D01*
X129001Y126070D01*
X130000Y125939D01*
X130999Y126070D01*
X131931Y126456D01*
X132730Y127070D01*
X133344Y127869D01*
X133730Y128801D01*
X133861Y129800D01*
X133730Y130799D01*
X133344Y131731D01*
X132730Y132530D01*
X131931Y133144D01*
X130999Y133530D01*
X130000Y133661D01*
D02*
G37*
G36*
X120000D02*
X119001Y133530D01*
X118069Y133144D01*
X117270Y132530D01*
X116656Y131731D01*
X116270Y130799D01*
X116139Y129800D01*
X116270Y128801D01*
X116656Y127869D01*
X117270Y127070D01*
X118069Y126456D01*
X119001Y126070D01*
X120000Y125939D01*
X120999Y126070D01*
X121931Y126456D01*
X122730Y127070D01*
X123344Y127869D01*
X123730Y128801D01*
X123861Y129800D01*
X123730Y130799D01*
X123344Y131731D01*
X122730Y132530D01*
X121931Y133144D01*
X120999Y133530D01*
X120000Y133661D01*
D02*
G37*
G36*
X40000Y128631D02*
X39060Y128507D01*
X38184Y128145D01*
X37433Y127568D01*
X36855Y126815D01*
X36493Y125940D01*
X36369Y125000D01*
X36493Y124060D01*
X36855Y123185D01*
X37433Y122432D01*
X38184Y121855D01*
X39060Y121493D01*
X40000Y121369D01*
X40940Y121493D01*
X41816Y121855D01*
X42568Y122432D01*
X43145Y123185D01*
X43507Y124060D01*
X43631Y125000D01*
X43507Y125940D01*
X43145Y126815D01*
X42568Y127568D01*
X41816Y128145D01*
X40940Y128507D01*
X40000Y128631D01*
D02*
G37*
G36*
X370000Y123661D02*
X369001Y123530D01*
X368069Y123144D01*
X367270Y122530D01*
X366656Y121731D01*
X366270Y120799D01*
X366139Y119800D01*
X366270Y118801D01*
X366656Y117869D01*
X367270Y117070D01*
X368069Y116456D01*
X369001Y116070D01*
X370000Y115939D01*
X370999Y116070D01*
X371931Y116456D01*
X372730Y117070D01*
X373344Y117869D01*
X373730Y118801D01*
X373861Y119800D01*
X373730Y120799D01*
X373344Y121731D01*
X372730Y122530D01*
X371931Y123144D01*
X370999Y123530D01*
X370000Y123661D01*
D02*
G37*
G36*
X360000D02*
X359001Y123530D01*
X358069Y123144D01*
X357270Y122530D01*
X356656Y121731D01*
X356270Y120799D01*
X356139Y119800D01*
X356270Y118801D01*
X356656Y117869D01*
X357270Y117070D01*
X358069Y116456D01*
X359001Y116070D01*
X360000Y115939D01*
X360999Y116070D01*
X361931Y116456D01*
X362730Y117070D01*
X363344Y117869D01*
X363730Y118801D01*
X363861Y119800D01*
X363730Y120799D01*
X363344Y121731D01*
X362730Y122530D01*
X361931Y123144D01*
X360999Y123530D01*
X360000Y123661D01*
D02*
G37*
G36*
X130000D02*
X129001Y123530D01*
X128069Y123144D01*
X127270Y122530D01*
X126656Y121731D01*
X126270Y120799D01*
X126139Y119800D01*
X126270Y118801D01*
X126656Y117869D01*
X127270Y117070D01*
X128069Y116456D01*
X129001Y116070D01*
X130000Y115939D01*
X130999Y116070D01*
X131931Y116456D01*
X132730Y117070D01*
X133344Y117869D01*
X133730Y118801D01*
X133861Y119800D01*
X133730Y120799D01*
X133344Y121731D01*
X132730Y122530D01*
X131931Y123144D01*
X130999Y123530D01*
X130000Y123661D01*
D02*
G37*
G36*
X120000D02*
X119001Y123530D01*
X118069Y123144D01*
X117270Y122530D01*
X116656Y121731D01*
X116270Y120799D01*
X116139Y119800D01*
X116270Y118801D01*
X116656Y117869D01*
X117270Y117070D01*
X118069Y116456D01*
X119001Y116070D01*
X120000Y115939D01*
X120999Y116070D01*
X121931Y116456D01*
X122730Y117070D01*
X123344Y117869D01*
X123730Y118801D01*
X123861Y119800D01*
X123730Y120799D01*
X123344Y121731D01*
X122730Y122530D01*
X121931Y123144D01*
X120999Y123530D01*
X120000Y123661D01*
D02*
G37*
G36*
X370000Y113661D02*
X369001Y113530D01*
X368069Y113144D01*
X367270Y112530D01*
X366656Y111731D01*
X366270Y110799D01*
X366139Y109800D01*
X366270Y108801D01*
X366656Y107869D01*
X367270Y107070D01*
X368069Y106456D01*
X369001Y106070D01*
X370000Y105939D01*
X370999Y106070D01*
X371931Y106456D01*
X372730Y107070D01*
X373344Y107869D01*
X373721Y108778D01*
X386083D01*
X386405Y108563D01*
X387000Y108445D01*
X387595Y108563D01*
X388100Y108900D01*
X388437Y109405D01*
X388555Y110000D01*
X388437Y110595D01*
X388100Y111100D01*
X387595Y111437D01*
X387000Y111555D01*
X386405Y111437D01*
X385900Y111100D01*
X385848Y111022D01*
X373638D01*
X373344Y111731D01*
X372730Y112530D01*
X371931Y113144D01*
X370999Y113530D01*
X370000Y113661D01*
D02*
G37*
G36*
X130000D02*
X129001Y113530D01*
X128069Y113144D01*
X127270Y112530D01*
X126656Y111731D01*
X126270Y110799D01*
X126139Y109800D01*
X126270Y108801D01*
X126656Y107869D01*
X127270Y107070D01*
X128069Y106456D01*
X129001Y106070D01*
X130000Y105939D01*
X130999Y106070D01*
X131931Y106456D01*
X132730Y107070D01*
X133344Y107869D01*
X133730Y108801D01*
X133861Y109800D01*
X133730Y110799D01*
X133344Y111731D01*
X132730Y112530D01*
X131931Y113144D01*
X130999Y113530D01*
X130000Y113661D01*
D02*
G37*
G36*
X352000Y108555D02*
X351405Y108437D01*
X350900Y108100D01*
X350563Y107595D01*
X350445Y107000D01*
X350563Y106405D01*
X350900Y105900D01*
X351405Y105563D01*
X352000Y105445D01*
X352595Y105563D01*
X353100Y105900D01*
X353437Y106405D01*
X353555Y107000D01*
X353437Y107595D01*
X353100Y108100D01*
X352595Y108437D01*
X352000Y108555D01*
D02*
G37*
G36*
X40000Y108631D02*
X39060Y108507D01*
X38184Y108145D01*
X37433Y107568D01*
X36855Y106816D01*
X36493Y105940D01*
X36369Y105000D01*
X36493Y104060D01*
X36855Y103184D01*
X37433Y102432D01*
X38184Y101855D01*
X39060Y101493D01*
X40000Y101369D01*
X40940Y101493D01*
X41816Y101855D01*
X42568Y102432D01*
X43145Y103184D01*
X43507Y104060D01*
X43631Y105000D01*
X43507Y105940D01*
X43145Y106816D01*
X42568Y107568D01*
X41816Y108145D01*
X40940Y108507D01*
X40000Y108631D01*
D02*
G37*
G36*
X445000Y109135D02*
X443930Y108994D01*
X442932Y108581D01*
X442076Y107924D01*
X441419Y107068D01*
X441006Y106070D01*
X440865Y105000D01*
X441006Y103930D01*
X441419Y102932D01*
X442076Y102076D01*
X442932Y101419D01*
X443930Y101005D01*
X445000Y100865D01*
X446070Y101005D01*
X447068Y101419D01*
X447924Y102076D01*
X448581Y102932D01*
X448994Y103930D01*
X449135Y105000D01*
X448994Y106070D01*
X448581Y107068D01*
X447924Y107924D01*
X447068Y108581D01*
X446070Y108994D01*
X445000Y109135D01*
D02*
G37*
G36*
X370000Y103661D02*
X369001Y103530D01*
X368069Y103144D01*
X367270Y102530D01*
X366656Y101731D01*
X366270Y100799D01*
X366139Y99800D01*
X366270Y98801D01*
X366656Y97869D01*
X367270Y97070D01*
X368069Y96456D01*
X369001Y96070D01*
X370000Y95939D01*
X370999Y96070D01*
X371931Y96456D01*
X372730Y97070D01*
X373344Y97869D01*
X373730Y98801D01*
X373861Y99800D01*
X373730Y100799D01*
X373344Y101731D01*
X372730Y102530D01*
X371931Y103144D01*
X370999Y103530D01*
X370000Y103661D01*
D02*
G37*
G36*
X360000D02*
X359001Y103530D01*
X358069Y103144D01*
X357270Y102530D01*
X356656Y101731D01*
X356270Y100799D01*
X356139Y99800D01*
X356270Y98801D01*
X356656Y97869D01*
X357270Y97070D01*
X358069Y96456D01*
X359001Y96070D01*
X360000Y95939D01*
X360999Y96070D01*
X361931Y96456D01*
X362730Y97070D01*
X363344Y97869D01*
X363730Y98801D01*
X363861Y99800D01*
X363730Y100799D01*
X363344Y101731D01*
X362730Y102530D01*
X361931Y103144D01*
X360999Y103530D01*
X360000Y103661D01*
D02*
G37*
G36*
X130000D02*
X129001Y103530D01*
X128069Y103144D01*
X127270Y102530D01*
X126656Y101731D01*
X126270Y100799D01*
X126139Y99800D01*
X126270Y98801D01*
X126656Y97869D01*
X127270Y97070D01*
X128069Y96456D01*
X129001Y96070D01*
X130000Y95939D01*
X130999Y96070D01*
X131931Y96456D01*
X132730Y97070D01*
X133344Y97869D01*
X133730Y98801D01*
X133861Y99800D01*
X133730Y100799D01*
X133344Y101731D01*
X132730Y102530D01*
X131931Y103144D01*
X130999Y103530D01*
X130000Y103661D01*
D02*
G37*
G36*
X120000D02*
X119001Y103530D01*
X118069Y103144D01*
X117270Y102530D01*
X116656Y101731D01*
X116270Y100799D01*
X116139Y99800D01*
X116270Y98801D01*
X116656Y97869D01*
X117270Y97070D01*
X118069Y96456D01*
X119001Y96070D01*
X120000Y95939D01*
X120999Y96070D01*
X121931Y96456D01*
X122730Y97070D01*
X123344Y97869D01*
X123730Y98801D01*
X123861Y99800D01*
X123730Y100799D01*
X123344Y101731D01*
X122730Y102530D01*
X121931Y103144D01*
X120999Y103530D01*
X120000Y103661D01*
D02*
G37*
G36*
X40000Y98631D02*
X39060Y98507D01*
X38184Y98145D01*
X37433Y97568D01*
X36855Y96816D01*
X36493Y95940D01*
X36369Y95000D01*
X36493Y94060D01*
X36855Y93185D01*
X37433Y92432D01*
X38184Y91855D01*
X39060Y91493D01*
X40000Y91369D01*
X40940Y91493D01*
X41816Y91855D01*
X42568Y92432D01*
X43145Y93185D01*
X43507Y94060D01*
X43631Y95000D01*
X43507Y95940D01*
X43145Y96816D01*
X42568Y97568D01*
X41816Y98145D01*
X40940Y98507D01*
X40000Y98631D01*
D02*
G37*
G36*
X370000Y93661D02*
X369001Y93530D01*
X368069Y93144D01*
X367270Y92530D01*
X366656Y91731D01*
X366270Y90799D01*
X366139Y89800D01*
X366270Y88801D01*
X366656Y87869D01*
X367270Y87070D01*
X368069Y86456D01*
X369001Y86070D01*
X370000Y85939D01*
X370999Y86070D01*
X371931Y86456D01*
X372730Y87070D01*
X373344Y87869D01*
X373730Y88801D01*
X373861Y89800D01*
X373730Y90799D01*
X373344Y91731D01*
X372730Y92530D01*
X371931Y93144D01*
X370999Y93530D01*
X370000Y93661D01*
D02*
G37*
G36*
X360000D02*
X359001Y93530D01*
X358069Y93144D01*
X357270Y92530D01*
X356656Y91731D01*
X356270Y90799D01*
X356139Y89800D01*
X356270Y88801D01*
X356656Y87869D01*
X357270Y87070D01*
X358069Y86456D01*
X359001Y86070D01*
X360000Y85939D01*
X360999Y86070D01*
X361931Y86456D01*
X362730Y87070D01*
X363344Y87869D01*
X363730Y88801D01*
X363861Y89800D01*
X363730Y90799D01*
X363344Y91731D01*
X362730Y92530D01*
X361931Y93144D01*
X360999Y93530D01*
X360000Y93661D01*
D02*
G37*
G36*
X130000D02*
X129001Y93530D01*
X128069Y93144D01*
X127270Y92530D01*
X126656Y91731D01*
X126270Y90799D01*
X126139Y89800D01*
X126270Y88801D01*
X126656Y87869D01*
X127270Y87070D01*
X128069Y86456D01*
X129001Y86070D01*
X130000Y85939D01*
X130999Y86070D01*
X131931Y86456D01*
X132730Y87070D01*
X133344Y87869D01*
X133730Y88801D01*
X133861Y89800D01*
X133730Y90799D01*
X133344Y91731D01*
X132730Y92530D01*
X131931Y93144D01*
X130999Y93530D01*
X130000Y93661D01*
D02*
G37*
G36*
X120000D02*
X119001Y93530D01*
X118069Y93144D01*
X117270Y92530D01*
X116656Y91731D01*
X116270Y90799D01*
X116139Y89800D01*
X116270Y88801D01*
X116656Y87869D01*
X117270Y87070D01*
X118069Y86456D01*
X119001Y86070D01*
X120000Y85939D01*
X120999Y86070D01*
X121931Y86456D01*
X122730Y87070D01*
X123344Y87869D01*
X123730Y88801D01*
X123861Y89800D01*
X123730Y90799D01*
X123344Y91731D01*
X122730Y92530D01*
X121931Y93144D01*
X120999Y93530D01*
X120000Y93661D01*
D02*
G37*
G36*
X370000Y83661D02*
X369001Y83530D01*
X368069Y83144D01*
X367270Y82530D01*
X366656Y81731D01*
X366270Y80799D01*
X366139Y79800D01*
X366270Y78801D01*
X366656Y77869D01*
X367270Y77070D01*
X368069Y76456D01*
X369001Y76070D01*
X370000Y75939D01*
X370999Y76070D01*
X371931Y76456D01*
X372730Y77070D01*
X373344Y77869D01*
X373730Y78801D01*
X373861Y79800D01*
X373730Y80799D01*
X373344Y81731D01*
X372730Y82530D01*
X371931Y83144D01*
X370999Y83530D01*
X370000Y83661D01*
D02*
G37*
G36*
X360000D02*
X359001Y83530D01*
X358069Y83144D01*
X357270Y82530D01*
X356656Y81731D01*
X356270Y80799D01*
X356139Y79800D01*
X356270Y78801D01*
X356656Y77869D01*
X357270Y77070D01*
X358069Y76456D01*
X359001Y76070D01*
X360000Y75939D01*
X360999Y76070D01*
X361931Y76456D01*
X362730Y77070D01*
X363344Y77869D01*
X363730Y78801D01*
X363861Y79800D01*
X363730Y80799D01*
X363344Y81731D01*
X362730Y82530D01*
X361931Y83144D01*
X360999Y83530D01*
X360000Y83661D01*
D02*
G37*
G36*
X130000D02*
X129001Y83530D01*
X128069Y83144D01*
X127270Y82530D01*
X126656Y81731D01*
X126270Y80799D01*
X126139Y79800D01*
X126270Y78801D01*
X126656Y77869D01*
X127270Y77070D01*
X128069Y76456D01*
X129001Y76070D01*
X130000Y75939D01*
X130999Y76070D01*
X131931Y76456D01*
X132730Y77070D01*
X133344Y77869D01*
X133730Y78801D01*
X133861Y79800D01*
X133730Y80799D01*
X133344Y81731D01*
X132730Y82530D01*
X131931Y83144D01*
X130999Y83530D01*
X130000Y83661D01*
D02*
G37*
G36*
X120000D02*
X119001Y83530D01*
X118069Y83144D01*
X117270Y82530D01*
X116656Y81731D01*
X116270Y80799D01*
X116139Y79800D01*
X116270Y78801D01*
X116656Y77869D01*
X117270Y77070D01*
X118069Y76456D01*
X119001Y76070D01*
X120000Y75939D01*
X120999Y76070D01*
X121931Y76456D01*
X122730Y77070D01*
X123344Y77869D01*
X123730Y78801D01*
X123861Y79800D01*
X123730Y80799D01*
X123344Y81731D01*
X122730Y82530D01*
X121931Y83144D01*
X120999Y83530D01*
X120000Y83661D01*
D02*
G37*
G36*
X96000Y75555D02*
X95405Y75437D01*
X94900Y75100D01*
X94563Y74595D01*
X94445Y74000D01*
X94563Y73405D01*
X94900Y72900D01*
X95405Y72563D01*
X96000Y72445D01*
X96595Y72563D01*
X97100Y72900D01*
X97437Y73405D01*
X97555Y74000D01*
X97437Y74595D01*
X97100Y75100D01*
X96595Y75437D01*
X96000Y75555D01*
D02*
G37*
G36*
X93000Y73555D02*
X92405Y73437D01*
X91900Y73100D01*
X91563Y72595D01*
X91445Y72000D01*
X91563Y71405D01*
X91900Y70900D01*
X92405Y70563D01*
X93000Y70445D01*
X93595Y70563D01*
X94100Y70900D01*
X94437Y71405D01*
X94555Y72000D01*
X94437Y72595D01*
X94100Y73100D01*
X93595Y73437D01*
X93000Y73555D01*
D02*
G37*
G36*
X370000Y73661D02*
X369001Y73530D01*
X368069Y73144D01*
X367270Y72530D01*
X366656Y71731D01*
X366270Y70799D01*
X366139Y69800D01*
X366270Y68801D01*
X366656Y67869D01*
X367270Y67070D01*
X368069Y66456D01*
X369001Y66070D01*
X370000Y65939D01*
X370999Y66070D01*
X371931Y66456D01*
X372730Y67070D01*
X373344Y67869D01*
X373730Y68801D01*
X373861Y69800D01*
X373730Y70799D01*
X373344Y71731D01*
X372730Y72530D01*
X371931Y73144D01*
X370999Y73530D01*
X370000Y73661D01*
D02*
G37*
G36*
X360000D02*
X359001Y73530D01*
X358069Y73144D01*
X357270Y72530D01*
X356656Y71731D01*
X356270Y70799D01*
X356139Y69800D01*
X356270Y68801D01*
X356656Y67869D01*
X357270Y67070D01*
X358069Y66456D01*
X359001Y66070D01*
X360000Y65939D01*
X360999Y66070D01*
X361931Y66456D01*
X362730Y67070D01*
X363344Y67869D01*
X363730Y68801D01*
X363861Y69800D01*
X363730Y70799D01*
X363344Y71731D01*
X362730Y72530D01*
X361931Y73144D01*
X360999Y73530D01*
X360000Y73661D01*
D02*
G37*
G36*
X130000D02*
X129001Y73530D01*
X128069Y73144D01*
X127270Y72530D01*
X126656Y71731D01*
X126270Y70799D01*
X126139Y69800D01*
X126270Y68801D01*
X126656Y67869D01*
X127270Y67070D01*
X128069Y66456D01*
X129001Y66070D01*
X130000Y65939D01*
X130999Y66070D01*
X131931Y66456D01*
X132730Y67070D01*
X133344Y67869D01*
X133730Y68801D01*
X133861Y69800D01*
X133730Y70799D01*
X133344Y71731D01*
X132730Y72530D01*
X131931Y73144D01*
X130999Y73530D01*
X130000Y73661D01*
D02*
G37*
G36*
X120000D02*
X119001Y73530D01*
X118069Y73144D01*
X117270Y72530D01*
X116656Y71731D01*
X116270Y70799D01*
X116139Y69800D01*
X116270Y68801D01*
X116656Y67869D01*
X117270Y67070D01*
X118069Y66456D01*
X119001Y66070D01*
X120000Y65939D01*
X120999Y66070D01*
X121931Y66456D01*
X122730Y67070D01*
X123344Y67869D01*
X123730Y68801D01*
X123861Y69800D01*
X123730Y70799D01*
X123344Y71731D01*
X122730Y72530D01*
X121931Y73144D01*
X120999Y73530D01*
X120000Y73661D01*
D02*
G37*
G36*
X370000Y63661D02*
X369001Y63530D01*
X368069Y63144D01*
X367270Y62530D01*
X366656Y61731D01*
X366270Y60799D01*
X366139Y59800D01*
X366270Y58801D01*
X366656Y57869D01*
X367270Y57070D01*
X368069Y56456D01*
X369001Y56070D01*
X370000Y55939D01*
X370999Y56070D01*
X371931Y56456D01*
X372730Y57070D01*
X373344Y57869D01*
X373730Y58801D01*
X373861Y59800D01*
X373730Y60799D01*
X373344Y61731D01*
X372730Y62530D01*
X371931Y63144D01*
X370999Y63530D01*
X370000Y63661D01*
D02*
G37*
G36*
X360000D02*
X359001Y63530D01*
X358069Y63144D01*
X357270Y62530D01*
X356656Y61731D01*
X356270Y60799D01*
X356139Y59800D01*
X356270Y58801D01*
X356656Y57869D01*
X357270Y57070D01*
X358069Y56456D01*
X359001Y56070D01*
X360000Y55939D01*
X360999Y56070D01*
X361931Y56456D01*
X362730Y57070D01*
X363344Y57869D01*
X363730Y58801D01*
X363861Y59800D01*
X363730Y60799D01*
X363344Y61731D01*
X362730Y62530D01*
X361931Y63144D01*
X360999Y63530D01*
X360000Y63661D01*
D02*
G37*
G36*
X130000D02*
X129001Y63530D01*
X128069Y63144D01*
X127270Y62530D01*
X126656Y61731D01*
X126270Y60799D01*
X126139Y59800D01*
X126270Y58801D01*
X126656Y57869D01*
X127270Y57070D01*
X128069Y56456D01*
X129001Y56070D01*
X130000Y55939D01*
X130999Y56070D01*
X131931Y56456D01*
X132730Y57070D01*
X133344Y57869D01*
X133730Y58801D01*
X133861Y59800D01*
X133730Y60799D01*
X133344Y61731D01*
X132730Y62530D01*
X131931Y63144D01*
X130999Y63530D01*
X130000Y63661D01*
D02*
G37*
G36*
X120000D02*
X119001Y63530D01*
X118069Y63144D01*
X117270Y62530D01*
X116656Y61731D01*
X116270Y60799D01*
X116139Y59800D01*
X116270Y58801D01*
X116656Y57869D01*
X117270Y57070D01*
X118069Y56456D01*
X119001Y56070D01*
X120000Y55939D01*
X120999Y56070D01*
X121931Y56456D01*
X122730Y57070D01*
X123344Y57869D01*
X123730Y58801D01*
X123861Y59800D01*
X123730Y60799D01*
X123344Y61731D01*
X122730Y62530D01*
X121931Y63144D01*
X120999Y63530D01*
X120000Y63661D01*
D02*
G37*
G36*
X459921Y64191D02*
X450079D01*
X448637Y64001D01*
X447294Y63445D01*
X446141Y62560D01*
X445256Y61406D01*
X444700Y60063D01*
X444510Y58622D01*
X444700Y57181D01*
X445256Y55838D01*
X446141Y54684D01*
X447294Y53799D01*
X448637Y53243D01*
X450079Y53053D01*
X459921D01*
X461363Y53243D01*
X462706Y53799D01*
X463859Y54684D01*
X464744Y55838D01*
X465300Y57181D01*
X465490Y58622D01*
X465300Y60063D01*
X464744Y61406D01*
X463859Y62560D01*
X462706Y63445D01*
X461363Y64001D01*
X459921Y64191D01*
D02*
G37*
G36*
X370000Y53661D02*
X369001Y53530D01*
X368069Y53144D01*
X367270Y52530D01*
X366656Y51731D01*
X366270Y50799D01*
X366139Y49800D01*
X366270Y48801D01*
X366656Y47869D01*
X367270Y47070D01*
X368069Y46456D01*
X369001Y46070D01*
X370000Y45939D01*
X370999Y46070D01*
X371931Y46456D01*
X372730Y47070D01*
X373344Y47869D01*
X373730Y48801D01*
X373861Y49800D01*
X373730Y50799D01*
X373344Y51731D01*
X372730Y52530D01*
X371931Y53144D01*
X370999Y53530D01*
X370000Y53661D01*
D02*
G37*
G36*
X130000D02*
X129001Y53530D01*
X128069Y53144D01*
X127270Y52530D01*
X126656Y51731D01*
X126270Y50799D01*
X126139Y49800D01*
X126270Y48801D01*
X126656Y47869D01*
X127270Y47070D01*
X128069Y46456D01*
X129001Y46070D01*
X130000Y45939D01*
X130999Y46070D01*
X131931Y46456D01*
X132730Y47070D01*
X133344Y47869D01*
X133730Y48801D01*
X133861Y49800D01*
X133730Y50799D01*
X133344Y51731D01*
X132730Y52530D01*
X131931Y53144D01*
X130999Y53530D01*
X130000Y53661D01*
D02*
G37*
G36*
X120000D02*
X119001Y53530D01*
X118069Y53144D01*
X117270Y52530D01*
X116656Y51731D01*
X116270Y50799D01*
X116139Y49800D01*
X116270Y48801D01*
X116656Y47869D01*
X117270Y47070D01*
X118069Y46456D01*
X119001Y46070D01*
X120000Y45939D01*
X120999Y46070D01*
X121931Y46456D01*
X122730Y47070D01*
X123344Y47869D01*
X123730Y48801D01*
X123861Y49800D01*
X123730Y50799D01*
X123344Y51731D01*
X122730Y52530D01*
X121931Y53144D01*
X120999Y53530D01*
X120000Y53661D01*
D02*
G37*
G36*
X390000Y54576D02*
X388816Y54420D01*
X387712Y53963D01*
X386764Y53236D01*
X386037Y52288D01*
X385580Y51184D01*
X385424Y50000D01*
X385580Y48816D01*
X386037Y47712D01*
X386764Y46764D01*
X387712Y46037D01*
X388816Y45580D01*
X390000Y45424D01*
X391184Y45580D01*
X392288Y46037D01*
X393236Y46764D01*
X393963Y47712D01*
X394420Y48816D01*
X394576Y50000D01*
X394420Y51184D01*
X393963Y52288D01*
X393236Y53236D01*
X392288Y53963D01*
X391184Y54420D01*
X390000Y54576D01*
D02*
G37*
G36*
X100000D02*
X98816Y54420D01*
X97712Y53963D01*
X96764Y53236D01*
X96037Y52288D01*
X95580Y51184D01*
X95424Y50000D01*
X95580Y48816D01*
X96037Y47712D01*
X96764Y46764D01*
X97712Y46037D01*
X98816Y45580D01*
X100000Y45424D01*
X101184Y45580D01*
X102288Y46037D01*
X103236Y46764D01*
X103963Y47712D01*
X104420Y48816D01*
X104576Y50000D01*
X104420Y51184D01*
X103963Y52288D01*
X103236Y53236D01*
X102288Y53963D01*
X101184Y54420D01*
X100000Y54576D01*
D02*
G37*
G36*
X370000Y43661D02*
X369001Y43530D01*
X368069Y43144D01*
X367270Y42530D01*
X366656Y41731D01*
X366270Y40799D01*
X366139Y39800D01*
X366270Y38801D01*
X366656Y37869D01*
X367270Y37070D01*
X368069Y36456D01*
X369001Y36070D01*
X370000Y35939D01*
X370999Y36070D01*
X371931Y36456D01*
X372730Y37070D01*
X373344Y37869D01*
X373730Y38801D01*
X373861Y39800D01*
X373730Y40799D01*
X373344Y41731D01*
X372730Y42530D01*
X371931Y43144D01*
X370999Y43530D01*
X370000Y43661D01*
D02*
G37*
G36*
X360000D02*
X359001Y43530D01*
X358069Y43144D01*
X357270Y42530D01*
X356656Y41731D01*
X356270Y40799D01*
X356139Y39800D01*
X356270Y38801D01*
X356656Y37869D01*
X357270Y37070D01*
X358069Y36456D01*
X359001Y36070D01*
X360000Y35939D01*
X360999Y36070D01*
X361931Y36456D01*
X362730Y37070D01*
X363344Y37869D01*
X363730Y38801D01*
X363861Y39800D01*
X363730Y40799D01*
X363344Y41731D01*
X362730Y42530D01*
X361931Y43144D01*
X360999Y43530D01*
X360000Y43661D01*
D02*
G37*
G36*
X130000D02*
X129001Y43530D01*
X128069Y43144D01*
X127270Y42530D01*
X126656Y41731D01*
X126270Y40799D01*
X126139Y39800D01*
X126270Y38801D01*
X126656Y37869D01*
X127270Y37070D01*
X128069Y36456D01*
X129001Y36070D01*
X130000Y35939D01*
X130999Y36070D01*
X131931Y36456D01*
X132730Y37070D01*
X133344Y37869D01*
X133730Y38801D01*
X133861Y39800D01*
X133730Y40799D01*
X133344Y41731D01*
X132730Y42530D01*
X131931Y43144D01*
X130999Y43530D01*
X130000Y43661D01*
D02*
G37*
G36*
X120000D02*
X119001Y43530D01*
X118069Y43144D01*
X117270Y42530D01*
X116656Y41731D01*
X116270Y40799D01*
X116139Y39800D01*
X116270Y38801D01*
X116656Y37869D01*
X117270Y37070D01*
X118069Y36456D01*
X119001Y36070D01*
X120000Y35939D01*
X120999Y36070D01*
X121931Y36456D01*
X122730Y37070D01*
X123344Y37869D01*
X123730Y38801D01*
X123861Y39800D01*
X123730Y40799D01*
X123344Y41731D01*
X122730Y42530D01*
X121931Y43144D01*
X120999Y43530D01*
X120000Y43661D01*
D02*
G37*
G36*
X35000Y32789D02*
X34278Y32694D01*
X33605Y32416D01*
X33028Y31972D01*
X32585Y31395D01*
X32306Y30722D01*
X32211Y30000D01*
X32306Y29278D01*
X32585Y28605D01*
X33028Y28028D01*
X33605Y27584D01*
X34278Y27306D01*
X35000Y27211D01*
X35722Y27306D01*
X36395Y27584D01*
X36972Y28028D01*
X37416Y28605D01*
X37694Y29278D01*
X37789Y30000D01*
X37694Y30722D01*
X37416Y31395D01*
X36972Y31972D01*
X36395Y32416D01*
X35722Y32694D01*
X35000Y32789D01*
D02*
G37*
G36*
X370000Y33661D02*
X369001Y33530D01*
X368069Y33144D01*
X367270Y32530D01*
X366656Y31731D01*
X366270Y30799D01*
X366139Y29800D01*
X366270Y28801D01*
X366656Y27869D01*
X367270Y27070D01*
X368069Y26456D01*
X369001Y26070D01*
X370000Y25939D01*
X370999Y26070D01*
X371931Y26456D01*
X372730Y27070D01*
X373344Y27869D01*
X373730Y28801D01*
X373861Y29800D01*
X373730Y30799D01*
X373344Y31731D01*
X372730Y32530D01*
X371931Y33144D01*
X370999Y33530D01*
X370000Y33661D01*
D02*
G37*
G36*
X360000D02*
X359001Y33530D01*
X358069Y33144D01*
X357270Y32530D01*
X356656Y31731D01*
X356270Y30799D01*
X356139Y29800D01*
X356270Y28801D01*
X356656Y27869D01*
X357270Y27070D01*
X358069Y26456D01*
X359001Y26070D01*
X360000Y25939D01*
X360999Y26070D01*
X361931Y26456D01*
X362730Y27070D01*
X363344Y27869D01*
X363730Y28801D01*
X363861Y29800D01*
X363730Y30799D01*
X363344Y31731D01*
X362730Y32530D01*
X361931Y33144D01*
X360999Y33530D01*
X360000Y33661D01*
D02*
G37*
G36*
X130000D02*
X129001Y33530D01*
X128069Y33144D01*
X127270Y32530D01*
X126656Y31731D01*
X126270Y30799D01*
X126139Y29800D01*
X126270Y28801D01*
X126656Y27869D01*
X127270Y27070D01*
X128069Y26456D01*
X129001Y26070D01*
X130000Y25939D01*
X130999Y26070D01*
X131931Y26456D01*
X132730Y27070D01*
X133344Y27869D01*
X133730Y28801D01*
X133861Y29800D01*
X133730Y30799D01*
X133344Y31731D01*
X132730Y32530D01*
X131931Y33144D01*
X130999Y33530D01*
X130000Y33661D01*
D02*
G37*
G36*
X120000D02*
X119001Y33530D01*
X118069Y33144D01*
X117270Y32530D01*
X116656Y31731D01*
X116270Y30799D01*
X116139Y29800D01*
X116270Y28801D01*
X116656Y27869D01*
X117270Y27070D01*
X118069Y26456D01*
X119001Y26070D01*
X120000Y25939D01*
X120999Y26070D01*
X121931Y26456D01*
X122730Y27070D01*
X123344Y27869D01*
X123730Y28801D01*
X123861Y29800D01*
X123730Y30799D01*
X123344Y31731D01*
X122730Y32530D01*
X121931Y33144D01*
X120999Y33530D01*
X120000Y33661D01*
D02*
G37*
G36*
X370000Y23661D02*
X369001Y23530D01*
X368069Y23144D01*
X367270Y22530D01*
X366656Y21731D01*
X366270Y20799D01*
X366139Y19800D01*
X366270Y18801D01*
X366656Y17869D01*
X367270Y17070D01*
X368069Y16456D01*
X369001Y16070D01*
X370000Y15939D01*
X370999Y16070D01*
X371931Y16456D01*
X372730Y17070D01*
X373344Y17869D01*
X373730Y18801D01*
X373861Y19800D01*
X373730Y20799D01*
X373344Y21731D01*
X372730Y22530D01*
X371931Y23144D01*
X370999Y23530D01*
X370000Y23661D01*
D02*
G37*
G36*
X360000D02*
X359001Y23530D01*
X358069Y23144D01*
X357270Y22530D01*
X356656Y21731D01*
X356270Y20799D01*
X356139Y19800D01*
X356270Y18801D01*
X356656Y17869D01*
X357270Y17070D01*
X358069Y16456D01*
X359001Y16070D01*
X360000Y15939D01*
X360999Y16070D01*
X361931Y16456D01*
X362730Y17070D01*
X363344Y17869D01*
X363730Y18801D01*
X363861Y19800D01*
X363730Y20799D01*
X363344Y21731D01*
X362730Y22530D01*
X361931Y23144D01*
X360999Y23530D01*
X360000Y23661D01*
D02*
G37*
G36*
X130000D02*
X129001Y23530D01*
X128069Y23144D01*
X127270Y22530D01*
X126656Y21731D01*
X126270Y20799D01*
X126139Y19800D01*
X126270Y18801D01*
X126656Y17869D01*
X127270Y17070D01*
X128069Y16456D01*
X129001Y16070D01*
X130000Y15939D01*
X130999Y16070D01*
X131931Y16456D01*
X132730Y17070D01*
X133344Y17869D01*
X133730Y18801D01*
X133861Y19800D01*
X133730Y20799D01*
X133344Y21731D01*
X132730Y22530D01*
X131931Y23144D01*
X130999Y23530D01*
X130000Y23661D01*
D02*
G37*
G36*
X120000D02*
X119001Y23530D01*
X118069Y23144D01*
X117270Y22530D01*
X116656Y21731D01*
X116270Y20799D01*
X116139Y19800D01*
X116270Y18801D01*
X116656Y17869D01*
X117270Y17070D01*
X118069Y16456D01*
X119001Y16070D01*
X120000Y15939D01*
X120999Y16070D01*
X121931Y16456D01*
X122730Y17070D01*
X123344Y17869D01*
X123730Y18801D01*
X123861Y19800D01*
X123730Y20799D01*
X123344Y21731D01*
X122730Y22530D01*
X121931Y23144D01*
X120999Y23530D01*
X120000Y23661D01*
D02*
G37*
G36*
X35000Y14679D02*
X34278Y14584D01*
X33605Y14305D01*
X33028Y13862D01*
X32585Y13284D01*
X32306Y12612D01*
X32211Y11890D01*
X32306Y11168D01*
X32585Y10495D01*
X33028Y9917D01*
X33605Y9474D01*
X34278Y9196D01*
X35000Y9100D01*
X35722Y9196D01*
X36395Y9474D01*
X36972Y9917D01*
X37416Y10495D01*
X37694Y11168D01*
X37789Y11890D01*
X37694Y12612D01*
X37416Y13284D01*
X36972Y13862D01*
X36395Y14305D01*
X35722Y14584D01*
X35000Y14679D01*
D02*
G37*
%LPD*%
D14*
X218800Y295455D02*
X220400Y293855D01*
X218800Y295455D02*
Y314800D01*
X220400Y292500D02*
Y293855D01*
X370000Y109800D02*
X370100Y109900D01*
X386900D01*
X387000Y110000D01*
D66*
X475000Y105000D02*
D03*
D67*
X473504Y46811D02*
D03*
D68*
X455000Y35000D02*
D03*
D70*
X55000Y165000D02*
D03*
X40000Y115000D02*
D03*
D73*
X120000Y109800D02*
D03*
Y169800D02*
D03*
X360000Y49800D02*
D03*
Y109800D02*
D03*
X370000D02*
D03*
Y159800D02*
D03*
D75*
X293000Y333828D02*
D03*
X12700Y11700D02*
D03*
X338000Y279000D02*
D03*
X186000Y238000D02*
D03*
X224200Y331000D02*
D03*
X205655Y240445D02*
D03*
X453800Y80100D02*
D03*
X282800Y298900D02*
D03*
X274800Y248100D02*
D03*
X274535Y252000D02*
D03*
X205000Y250000D02*
D03*
Y280000D02*
D03*
X296000Y271000D02*
D03*
X265000Y355000D02*
D03*
Y270000D02*
D03*
X216000Y250000D02*
D03*
X230000Y344000D02*
D03*
X277887Y331600D02*
D03*
X200000Y290900D02*
D03*
X186000Y279000D02*
D03*
X58000Y12000D02*
D03*
X215000Y328000D02*
D03*
X188000Y345000D02*
D03*
X200000Y338000D02*
D03*
X138000Y274000D02*
D03*
D76*
X242000Y276000D02*
D03*
X248000Y319000D02*
D03*
Y276000D02*
D03*
X218800Y314800D02*
D03*
X220400Y292500D02*
D03*
X387000Y110000D02*
D03*
X280000Y17000D02*
D03*
X260000D02*
D03*
X241000D02*
D03*
X221000D02*
D03*
X238000Y355000D02*
D03*
M02*
