G04*
G04 #@! TF.GenerationSoftware,Altium Limited,Altium Designer,20.2.4 (192)*
G04*
G04 Layer_Color=16711935*
%FSLAX25Y25*%
%MOIN*%
G70*
G04*
G04 #@! TF.SameCoordinates,B3AF9CCF-9D14-4356-84A3-7319CC5DFEB4*
G04*
G04*
G04 #@! TF.FilePolarity,Positive*
G04*
G01*
G75*
%ADD11C,0.00787*%
%ADD12C,0.00800*%
%ADD14C,0.01000*%
%ADD15C,0.00600*%
%ADD17C,0.00500*%
%ADD33C,0.00000*%
%ADD77C,0.00394*%
%ADD78C,0.00400*%
G36*
X259669Y348149D02*
X257698D01*
Y351890D01*
X259669D01*
Y348149D01*
D02*
G37*
G36*
X264269Y348146D02*
X262303D01*
Y351890D01*
X264269D01*
Y348146D01*
D02*
G37*
G36*
X239106Y335803D02*
X236800D01*
Y337600D01*
X239106D01*
Y335803D01*
D02*
G37*
G36*
X254200Y335800D02*
X251893D01*
Y337606D01*
X254200D01*
Y335800D01*
D02*
G37*
G36*
X262100Y332100D02*
X259801D01*
Y333900D01*
X262100D01*
Y332100D01*
D02*
G37*
G36*
X231199Y332100D02*
X228900D01*
Y333900D01*
X231199D01*
Y332100D01*
D02*
G37*
G36*
X254200Y328400D02*
X251894D01*
Y330197D01*
X254200D01*
Y328400D01*
D02*
G37*
G36*
X239107Y328394D02*
X236800D01*
Y330200D01*
X239107D01*
Y328394D01*
D02*
G37*
G36*
X242106Y257803D02*
X239800D01*
Y259600D01*
X242106D01*
Y257803D01*
D02*
G37*
G36*
X252200Y257800D02*
X249893D01*
Y259606D01*
X252200D01*
Y257800D01*
D02*
G37*
G36*
X260100Y254100D02*
X257801D01*
Y255900D01*
X260100D01*
Y254100D01*
D02*
G37*
G36*
X234199Y254100D02*
X231900D01*
Y255900D01*
X234199D01*
Y254100D01*
D02*
G37*
G36*
X252200Y250400D02*
X249894D01*
Y252197D01*
X252200D01*
Y250400D01*
D02*
G37*
G36*
X242107Y250394D02*
X239800D01*
Y252200D01*
X242107D01*
Y250394D01*
D02*
G37*
D11*
X347079Y325315D02*
G03*
X347079Y325315I-394J0D01*
G01*
Y242000D02*
G03*
X347079Y242000I-394J0D01*
G01*
D12*
X301536Y298645D02*
G03*
X301536Y287355I18464J-5645D01*
G01*
X338464D02*
G03*
X338464Y298645I-18464J5645D01*
G01*
X151536Y340645D02*
G03*
X151536Y329355I18464J-5645D01*
G01*
X188464D02*
G03*
X188464Y340645I-18464J5645D01*
G01*
X151536Y252645D02*
G03*
X151536Y241355I18464J-5645D01*
G01*
X188464D02*
G03*
X188464Y252645I-18464J5645D01*
G01*
X151536Y296645D02*
G03*
X151536Y285355I18464J-5645D01*
G01*
X188464D02*
G03*
X188464Y296645I-18464J5645D01*
G01*
X297165Y287291D02*
Y298709D01*
X342835Y287291D02*
Y298709D01*
X147165Y329291D02*
Y340709D01*
X192835Y329291D02*
Y340709D01*
X147165Y241291D02*
Y252709D01*
X192835Y241291D02*
Y252709D01*
X147165Y285291D02*
Y296709D01*
X192835Y285291D02*
Y296709D01*
D14*
X121665Y10686D02*
X122498Y9853D01*
Y8187D01*
X121665Y7354D01*
X120832D01*
X119999Y8187D01*
Y9020D01*
Y8187D01*
X119166Y7354D01*
X118333D01*
X117500Y8187D01*
Y9853D01*
X118333Y10686D01*
X121665Y5687D02*
X122498Y4854D01*
Y3188D01*
X121665Y2355D01*
X120832D01*
X119999Y3188D01*
X119166Y2355D01*
X118333D01*
X117500Y3188D01*
Y4854D01*
X118333Y5687D01*
X119166D01*
X119999Y4854D01*
X120832Y5687D01*
X121665D01*
X119999Y4854D02*
Y3188D01*
X131665Y10686D02*
X132498Y9853D01*
Y8187D01*
X131665Y7354D01*
X130832D01*
X129999Y8187D01*
Y9020D01*
Y8187D01*
X129166Y7354D01*
X128333D01*
X127500Y8187D01*
Y9853D01*
X128333Y10686D01*
X132498Y5687D02*
Y2355D01*
X131665D01*
X128333Y5687D01*
X127500D01*
X117500Y209633D02*
Y212965D01*
X120832Y209633D01*
X121665D01*
X122498Y210466D01*
Y212132D01*
X121665Y212965D01*
X127500D02*
Y211299D01*
Y212132D01*
X132498D01*
X131665Y212965D01*
X361665Y10686D02*
X362498Y9853D01*
Y8187D01*
X361665Y7354D01*
X360832D01*
X359999Y8187D01*
Y9020D01*
Y8187D01*
X359166Y7354D01*
X358333D01*
X357500Y8187D01*
Y9853D01*
X358333Y10686D01*
X361665Y5687D02*
X362498Y4854D01*
Y3188D01*
X361665Y2355D01*
X360832D01*
X359999Y3188D01*
X359166Y2355D01*
X358333D01*
X357500Y3188D01*
Y4854D01*
X358333Y5687D01*
X359166D01*
X359999Y4854D01*
X360832Y5687D01*
X361665D01*
X359999Y4854D02*
Y3188D01*
X371665Y10686D02*
X372498Y9853D01*
Y8187D01*
X371665Y7354D01*
X370832D01*
X369999Y8187D01*
Y9020D01*
Y8187D01*
X369166Y7354D01*
X368333D01*
X367500Y8187D01*
Y9853D01*
X368333Y10686D01*
X372498Y5687D02*
Y2355D01*
X371665D01*
X368333Y5687D01*
X367500D01*
X357500Y209633D02*
Y212965D01*
X360832Y209633D01*
X361665D01*
X362498Y210466D01*
Y212132D01*
X361665Y212965D01*
X367500D02*
Y211299D01*
Y212132D01*
X372498D01*
X371665Y212965D01*
D15*
X231400Y338600D02*
X236600D01*
Y327400D02*
Y338600D01*
X231400Y327400D02*
X236600D01*
X231400D02*
Y338600D01*
X254400Y327400D02*
X259600D01*
X254400D02*
Y338600D01*
X259600D01*
Y327400D02*
Y338600D01*
X234400Y260600D02*
X239600D01*
Y249400D02*
Y260600D01*
X234400Y249400D02*
X239600D01*
X234400D02*
Y260600D01*
X252400Y249400D02*
X257600D01*
X252400D02*
Y260600D01*
X257600D01*
Y249400D02*
Y260600D01*
D17*
X229628Y264953D02*
X233172D01*
X229628Y271646D02*
X233172D01*
X229628Y264953D02*
Y271646D01*
X233172Y264953D02*
Y271646D01*
X239128Y265253D02*
X242672D01*
X239128Y271947D02*
X242672D01*
X239128Y265253D02*
Y271947D01*
X242672Y265253D02*
Y271947D01*
X440669Y77165D02*
Y82835D01*
X449331Y77165D02*
Y82835D01*
X440669D02*
X449331D01*
X440669Y77165D02*
X449331D01*
X437284Y61378D02*
X472717D01*
X437284Y4685D02*
Y61378D01*
Y4685D02*
X472717D01*
Y61378D01*
X287165Y279331D02*
X292835D01*
X287165Y270669D02*
X292835D01*
Y279331D01*
X287165Y270669D02*
Y279331D01*
X272346Y286228D02*
Y289772D01*
X265653Y286228D02*
Y289772D01*
Y286228D02*
X272346D01*
X265653Y289772D02*
X272346D01*
X263228Y274654D02*
X266772D01*
X263228Y281347D02*
X266772D01*
X263228Y274654D02*
Y281347D01*
X266772Y274654D02*
Y281347D01*
X270669Y277165D02*
Y282835D01*
X279331Y277165D02*
Y282835D01*
X270669D02*
X279331D01*
X270669Y277165D02*
X279331D01*
X278346Y296228D02*
Y299772D01*
X271654Y296228D02*
Y299772D01*
Y296228D02*
X278346D01*
X271654Y299772D02*
X278346D01*
X281776Y316165D02*
Y321835D01*
X273114Y316165D02*
Y321835D01*
Y316165D02*
X281776D01*
X273114Y321835D02*
X281776D01*
X271228Y325654D02*
X274772D01*
X271228Y332347D02*
X274772D01*
X271228Y325654D02*
Y332347D01*
X274772Y325654D02*
Y332347D01*
X281228Y325654D02*
X284772D01*
X281228Y332347D02*
X284772D01*
X281228Y325654D02*
Y332347D01*
X284772Y325654D02*
Y332347D01*
X239784Y345122D02*
Y358902D01*
X250217D01*
Y345122D02*
Y358902D01*
X239784Y345122D02*
X250217D01*
X342748Y315472D02*
Y354842D01*
X307315D02*
X342748D01*
X307315Y315472D02*
Y354842D01*
Y315472D02*
X342748D01*
Y232157D02*
Y271528D01*
X307315D02*
X342748D01*
X307315Y232157D02*
Y271528D01*
Y232157D02*
X342748D01*
X277228Y254346D02*
X280772D01*
X277228Y247654D02*
X280772D01*
Y254346D01*
X277228Y247654D02*
Y254346D01*
X268228D02*
X271772D01*
X268228Y247654D02*
X271772D01*
Y254346D01*
X268228Y247654D02*
Y254346D01*
X197165Y232669D02*
X202835D01*
X197165Y241331D02*
X202835D01*
X197165Y232669D02*
Y241331D01*
X202835Y232669D02*
Y241331D01*
X219228Y256347D02*
X222772D01*
X219228Y249654D02*
X222772D01*
Y256347D01*
X219228Y249654D02*
Y256347D01*
X208228D02*
X211772D01*
X208228Y249654D02*
X211772D01*
Y256347D01*
X208228Y249654D02*
Y256347D01*
X219331Y274165D02*
Y279835D01*
X210669Y274165D02*
Y279835D01*
Y274165D02*
X219331D01*
X210669Y279835D02*
X219331D01*
X197165Y304131D02*
X202835D01*
X197165Y295469D02*
X202835D01*
Y304131D01*
X197165Y295469D02*
Y304131D01*
X197228Y279654D02*
X200772D01*
X197228Y286347D02*
X200772D01*
X197228Y279654D02*
Y286347D01*
X200772Y279654D02*
Y286347D01*
X223331Y296165D02*
Y301835D01*
X214669Y296165D02*
Y301835D01*
Y296165D02*
X223331D01*
X214669Y301835D02*
X223331D01*
X218228Y321654D02*
X221772D01*
X218228Y328346D02*
X221772D01*
X218228Y321654D02*
Y328346D01*
X221772Y321654D02*
Y328346D01*
X208228Y321654D02*
X211772D01*
X208228Y328346D02*
X211772D01*
X208228Y321654D02*
Y328346D01*
X211772Y321654D02*
Y328346D01*
X197165Y324114D02*
X202835D01*
X197165Y332776D02*
X202835D01*
X197165Y324114D02*
Y332776D01*
X202835Y324114D02*
Y332776D01*
D33*
X96488Y13800D02*
X112488D01*
X104626Y22300D02*
X104937Y22052D01*
X105252Y19800D01*
Y21800D01*
X105563Y22052D01*
X105252Y19800D02*
X105563Y22052D01*
X104626Y22300D02*
X105252Y21800D01*
X105874Y22300D01*
X105252Y19800D02*
X105874Y22300D01*
X104626D02*
X105252Y19800D01*
X102488D02*
X117240D01*
X98626Y16300D02*
X98937Y16052D01*
X99252Y13800D01*
Y15800D01*
X99563Y16052D01*
X99252Y13800D02*
X99563Y16052D01*
X98626Y16300D02*
X99252Y15800D01*
X99874Y16300D01*
X99252Y13800D02*
X99874Y16300D01*
X98626D02*
X99252Y13800D01*
X105252Y19800D02*
Y105898D01*
X99252Y13800D02*
Y105898D01*
X105563Y197548D02*
X105874Y197300D01*
X105252Y199800D02*
X105563Y197548D01*
X105252Y197800D02*
Y199800D01*
X104937Y197548D02*
X105252Y197800D01*
X104937Y197548D02*
X105252Y199800D01*
Y197800D02*
X105874Y197300D01*
X104626D02*
X105252Y197800D01*
X104626Y197300D02*
X105252Y199800D01*
X105874Y197300D01*
X105252Y113702D02*
Y199800D01*
X102488D02*
X117240D01*
X108626Y192300D02*
X108937Y192052D01*
X109252Y189800D01*
Y191800D01*
X109563Y192052D01*
X109252Y189800D02*
X109563Y192052D01*
X108626Y192300D02*
X109252Y191800D01*
X109874Y192300D01*
X109252Y189800D02*
X109874Y192300D01*
X108626D02*
X109252Y189800D01*
Y199800D01*
X109563Y197548D02*
X109874Y197300D01*
X109252Y199800D02*
X109563Y197548D01*
X109252Y197800D02*
Y199800D01*
X108937Y197548D02*
X109252Y197800D01*
X108937Y197548D02*
X109252Y199800D01*
Y197800D02*
X109874Y197300D01*
X108626D02*
X109252Y197800D01*
X108626Y197300D02*
X109252Y199800D01*
X109874Y197300D01*
X106488Y189800D02*
X117240D01*
X106488Y199800D02*
X117240D01*
X109252D02*
Y204202D01*
X99563Y203548D02*
X99874Y203300D01*
X99252Y205800D02*
X99563Y203548D01*
X99252Y203800D02*
Y205800D01*
X98937Y203548D02*
X99252Y203800D01*
X98937Y203548D02*
X99252Y205800D01*
Y203800D02*
X99874Y203300D01*
X98626D02*
X99252Y203800D01*
X98626Y203300D02*
X99252Y205800D01*
X99874Y203300D01*
X99252Y113702D02*
Y205800D01*
X96488D02*
X112488D01*
X130000Y202560D02*
Y225812D01*
X127500Y222426D02*
X127748Y222737D01*
X130000Y223052D01*
X128000D02*
X130000D01*
X127748Y223363D02*
X128000Y223052D01*
X127748Y223363D02*
X130000Y223052D01*
X127500Y222426D02*
X128000Y223052D01*
X127500Y223674D02*
X128000Y223052D01*
X127500Y223674D02*
X130000Y223052D01*
X127500Y222426D02*
X130000Y223052D01*
X126252D02*
X130000D01*
X122252Y223363D02*
X122500Y223674D01*
X120000Y223052D02*
X122252Y223363D01*
X120000Y223052D02*
X122000D01*
X122252Y222737D01*
X120000Y223052D02*
X122252Y222737D01*
X122000Y223052D02*
X122500Y223674D01*
X122000Y223052D02*
X122500Y222426D01*
X120000Y223052D02*
X122500Y222426D01*
X120000Y223052D02*
X122500Y223674D01*
X120000Y223052D02*
X123748D01*
X120000Y202560D02*
Y225812D01*
X132252Y229674D02*
X132500Y229989D01*
X134748Y230300D01*
X132748D02*
X134748D01*
X132500Y230611D02*
X132748Y230300D01*
X132500Y230611D02*
X134748Y230300D01*
X132252Y229674D02*
X132748Y230300D01*
X132252Y230926D02*
X132748Y230300D01*
X132252Y230926D02*
X134748Y230300D01*
X132252Y229674D02*
X134748Y230300D01*
Y208560D02*
Y233060D01*
X126252Y230300D02*
X134748D01*
X117500Y230611D02*
X117748Y230926D01*
X115252Y230300D02*
X117500Y230611D01*
X115252Y230300D02*
X117252D01*
X117500Y229989D01*
X115252Y230300D02*
X117500Y229989D01*
X117252Y230300D02*
X117748Y230926D01*
X117252Y230300D02*
X117748Y229674D01*
X115252Y230300D02*
X117748Y229674D01*
X115252Y230300D02*
X117748Y230926D01*
X115252Y230300D02*
X123748D01*
X115252Y208560D02*
Y233060D01*
X336488Y13800D02*
X352488D01*
X344626Y22300D02*
X344937Y22052D01*
X345252Y19800D01*
Y21800D01*
X345563Y22052D01*
X345252Y19800D02*
X345563Y22052D01*
X344626Y22300D02*
X345252Y21800D01*
X345874Y22300D01*
X345252Y19800D02*
X345874Y22300D01*
X344626D02*
X345252Y19800D01*
X342488D02*
X357240D01*
X338626Y16300D02*
X338937Y16052D01*
X339252Y13800D01*
Y15800D01*
X339563Y16052D01*
X339252Y13800D02*
X339563Y16052D01*
X338626Y16300D02*
X339252Y15800D01*
X339874Y16300D01*
X339252Y13800D02*
X339874Y16300D01*
X338626D02*
X339252Y13800D01*
X345252Y19800D02*
Y105898D01*
X339252Y13800D02*
Y105898D01*
X345563Y197548D02*
X345874Y197300D01*
X345252Y199800D02*
X345563Y197548D01*
X345252Y197800D02*
Y199800D01*
X344937Y197548D02*
X345252Y197800D01*
X344937Y197548D02*
X345252Y199800D01*
Y197800D02*
X345874Y197300D01*
X344626D02*
X345252Y197800D01*
X344626Y197300D02*
X345252Y199800D01*
X345874Y197300D01*
X345252Y113702D02*
Y199800D01*
X342488D02*
X357240D01*
X348626Y192300D02*
X348937Y192052D01*
X349252Y189800D01*
Y191800D01*
X349563Y192052D01*
X349252Y189800D02*
X349563Y192052D01*
X348626Y192300D02*
X349252Y191800D01*
X349874Y192300D01*
X349252Y189800D02*
X349874Y192300D01*
X348626D02*
X349252Y189800D01*
Y199800D01*
X349563Y197548D02*
X349874Y197300D01*
X349252Y199800D02*
X349563Y197548D01*
X349252Y197800D02*
Y199800D01*
X348937Y197548D02*
X349252Y197800D01*
X348937Y197548D02*
X349252Y199800D01*
Y197800D02*
X349874Y197300D01*
X348626D02*
X349252Y197800D01*
X348626Y197300D02*
X349252Y199800D01*
X349874Y197300D01*
X346488Y189800D02*
X357240D01*
X346488Y199800D02*
X357240D01*
X349252D02*
Y204202D01*
X339563Y203548D02*
X339874Y203300D01*
X339252Y205800D02*
X339563Y203548D01*
X339252Y203800D02*
Y205800D01*
X338937Y203548D02*
X339252Y203800D01*
X338937Y203548D02*
X339252Y205800D01*
Y203800D02*
X339874Y203300D01*
X338626D02*
X339252Y203800D01*
X338626Y203300D02*
X339252Y205800D01*
X339874Y203300D01*
X339252Y113702D02*
Y205800D01*
X336488D02*
X352488D01*
X370000Y202560D02*
Y225812D01*
X367500Y222426D02*
X367748Y222737D01*
X370000Y223052D01*
X368000D02*
X370000D01*
X367748Y223363D02*
X368000Y223052D01*
X367748Y223363D02*
X370000Y223052D01*
X367500Y222426D02*
X368000Y223052D01*
X367500Y223674D02*
X368000Y223052D01*
X367500Y223674D02*
X370000Y223052D01*
X367500Y222426D02*
X370000Y223052D01*
X366252D02*
X370000D01*
X362252Y223363D02*
X362500Y223674D01*
X360000Y223052D02*
X362252Y223363D01*
X360000Y223052D02*
X362000D01*
X362252Y222737D01*
X360000Y223052D02*
X362252Y222737D01*
X362000Y223052D02*
X362500Y223674D01*
X362000Y223052D02*
X362500Y222426D01*
X360000Y223052D02*
X362500Y222426D01*
X360000Y223052D02*
X362500Y223674D01*
X360000Y223052D02*
X363748D01*
X360000Y202560D02*
Y225812D01*
X372252Y229674D02*
X372500Y229989D01*
X374748Y230300D01*
X372748D02*
X374748D01*
X372500Y230611D02*
X372748Y230300D01*
X372500Y230611D02*
X374748Y230300D01*
X372252Y229674D02*
X372748Y230300D01*
X372252Y230926D02*
X372748Y230300D01*
X372252Y230926D02*
X374748Y230300D01*
X372252Y229674D02*
X374748Y230300D01*
Y208560D02*
Y233060D01*
X366252Y230300D02*
X374748D01*
X357500Y230611D02*
X357748Y230926D01*
X355252Y230300D02*
X357500Y230611D01*
X355252Y230300D02*
X357252D01*
X357500Y229989D01*
X355252Y230300D02*
X357500Y229989D01*
X357252Y230300D02*
X357748Y230926D01*
X357252Y230300D02*
X357748Y229674D01*
X355252Y230300D02*
X357748Y229674D01*
X355252Y230300D02*
X357748Y230926D01*
X355252Y230300D02*
X363748D01*
X355252Y208560D02*
Y233060D01*
D77*
X237707Y313543D02*
G03*
X240069Y313543I1181J0D01*
G01*
D02*
G03*
X237707Y313543I-1181J0D01*
G01*
X253858Y314429D02*
X257598D01*
X253858Y315413D02*
X257598D01*
Y314429D02*
Y315413D01*
X253858Y300650D02*
X257598D01*
X253858Y301634D02*
X257598D01*
Y300650D02*
Y301634D01*
X253858Y278996D02*
X257598D01*
X253858Y279980D02*
X257598D01*
Y278996D02*
Y279980D01*
X253858Y308524D02*
X257598D01*
X253858Y309508D02*
X257598D01*
Y308524D02*
Y309508D01*
X253858Y298681D02*
X257598D01*
X253858Y299665D02*
X257598D01*
Y298681D02*
Y299665D01*
X253858Y290807D02*
X257598D01*
X253858Y291791D02*
X257598D01*
Y290807D02*
Y291791D01*
X253858Y312461D02*
X257598D01*
X253858Y313445D02*
X257598D01*
Y312461D02*
Y313445D01*
X253858Y284902D02*
X257598D01*
X253858Y285886D02*
X257598D01*
Y284902D02*
Y285886D01*
X253858Y280964D02*
X257598D01*
X253858Y281949D02*
X257598D01*
Y280964D02*
Y281949D01*
X253858Y292776D02*
X257598D01*
X253858Y293760D02*
X257598D01*
Y292776D02*
Y293760D01*
X253858Y306555D02*
X257598D01*
X253858Y307539D02*
X257598D01*
Y306555D02*
Y307539D01*
X253858Y294744D02*
X257598D01*
X253858Y295728D02*
X257598D01*
Y294744D02*
Y295728D01*
X253858Y304587D02*
X257598D01*
X253858Y305571D02*
X257598D01*
Y304587D02*
Y305571D01*
X253858Y310492D02*
X257598D01*
X253858Y311476D02*
X257598D01*
Y310492D02*
Y311476D01*
X253858Y288839D02*
X257598D01*
X253858Y289823D02*
X257598D01*
Y288839D02*
Y289823D01*
X253858Y296713D02*
X257598D01*
X253858Y297697D02*
X257598D01*
Y296713D02*
Y297697D01*
X253858Y302618D02*
X257598D01*
X253858Y303602D02*
X257598D01*
Y302618D02*
Y303602D01*
X253858Y286870D02*
X257598D01*
X253858Y287854D02*
X257598D01*
Y286870D02*
Y287854D01*
X253858Y282933D02*
X257598D01*
X253858Y283917D02*
X257598D01*
Y282933D02*
Y283917D01*
X232402Y282933D02*
Y283917D01*
X236142D01*
X232402Y282933D02*
X236142D01*
X232402Y286870D02*
Y287854D01*
X236142D01*
X232402Y286870D02*
X236142D01*
X232402Y302618D02*
Y303602D01*
X236142D01*
X232402Y302618D02*
X236142D01*
X232402Y296713D02*
Y297697D01*
X236142D01*
X232402Y296713D02*
X236142D01*
X232402Y288839D02*
Y289823D01*
X236142D01*
X232402Y288839D02*
X236142D01*
X232402Y310492D02*
Y311476D01*
X236142D01*
X232402Y310492D02*
X236142D01*
X232402Y304587D02*
Y305571D01*
X236142D01*
X232402Y304587D02*
X236142D01*
X232402Y294744D02*
Y295728D01*
X236142D01*
X232402Y294744D02*
X236142D01*
X232402Y306555D02*
Y307539D01*
X236142D01*
X232402Y306555D02*
X236142D01*
X232402Y292776D02*
Y293760D01*
X236142D01*
X232402Y292776D02*
X236142D01*
X232402Y280964D02*
Y281949D01*
X236142D01*
X232402Y280964D02*
X236142D01*
X232402Y284902D02*
Y285886D01*
X236142D01*
X232402Y284902D02*
X236142D01*
X232402Y312461D02*
Y313445D01*
X236142D01*
X232402Y312461D02*
X236142D01*
X232402Y290807D02*
Y291791D01*
X236142D01*
X232402Y290807D02*
X236142D01*
X232402Y298681D02*
Y299665D01*
X236142D01*
X232402Y298681D02*
X236142D01*
X232402Y308524D02*
Y309508D01*
X236142D01*
X232402Y308524D02*
X236142D01*
X232402Y278996D02*
Y279980D01*
X236142D01*
X232402Y278996D02*
X236142D01*
X232402Y300650D02*
Y301634D01*
X236142D01*
X232402Y300650D02*
X236142D01*
X232402Y314429D02*
Y315413D01*
X236142D01*
X232402Y314429D02*
X236142D01*
X253701Y315984D02*
X253819Y315787D01*
X236811Y316299D02*
X236929Y316299D01*
X253858Y278898D02*
X253858Y315512D01*
X253858Y315591D01*
X236929Y316299D02*
X253071Y316299D01*
X253819Y278661D02*
X253858Y278898D01*
X253819Y315787D02*
X253858Y315591D01*
X253701Y278465D02*
X253819Y278661D01*
X236614Y316220D02*
X236811Y316299D01*
X236142Y315512D02*
X236181Y315748D01*
X253622Y278346D02*
X253701Y278465D01*
X236378Y316102D02*
X236614Y316220D01*
X236181Y315748D02*
X236260Y315945D01*
X236142Y278898D02*
Y315512D01*
X253504Y278228D02*
X253622Y278346D01*
X236260Y315945D02*
X236378Y316102D01*
X253307Y316260D02*
X253543Y316142D01*
X236142Y278898D02*
X236142Y278740D01*
X253307Y278150D02*
X253504Y278228D01*
X253071Y316299D02*
X253307Y316260D01*
X236142Y278740D02*
X236220Y278543D01*
X253150Y278110D02*
X253307Y278150D01*
X236220Y278543D02*
X236338Y278386D01*
X253071Y278110D02*
X253150Y278110D01*
X236338Y278386D02*
X236496Y278228D01*
X236929Y278110D02*
X253071Y278110D01*
X236496Y278228D02*
X236693Y278150D01*
X236929Y278110D01*
X253543Y316142D02*
X253701Y315984D01*
X131551Y18249D02*
Y21351D01*
X134748Y13800D02*
Y24800D01*
X128449Y18249D02*
Y21351D01*
X131551D01*
X118449Y18249D02*
Y21351D01*
X121551D01*
Y18249D02*
Y21351D01*
X128449Y18249D02*
X131551D01*
X118449D02*
X121551D01*
X115252Y13800D02*
X134748D01*
X115252D02*
Y24800D01*
X131551Y28249D02*
Y31351D01*
X134748Y24800D02*
Y34800D01*
X118449Y28249D02*
X121551D01*
X118449D02*
Y31351D01*
X128449Y28249D02*
X131551D01*
X128449D02*
Y31351D01*
X118449D02*
X121551D01*
X128449D02*
X131551D01*
X121551Y28249D02*
Y31351D01*
X118449Y38249D02*
X121551D01*
X128449D02*
X131551D01*
X115252Y24800D02*
Y34800D01*
X131551Y38249D02*
Y41351D01*
X134748Y34800D02*
Y44800D01*
X131551Y48249D02*
Y51351D01*
X118449Y38249D02*
Y41351D01*
X128449Y38249D02*
Y41351D01*
X118449D02*
X121551D01*
X128449D02*
X131551D01*
X121551Y38249D02*
Y41351D01*
X118449Y48249D02*
X121551D01*
X118449D02*
Y51351D01*
X128449Y48249D02*
X131551D01*
X128449D02*
Y51351D01*
X118449D02*
X121551D01*
X128449D02*
X131551D01*
X121551Y48249D02*
Y51351D01*
X115252Y34800D02*
Y44800D01*
X134748D02*
Y54800D01*
X131551Y58249D02*
Y61351D01*
X134748Y54800D02*
Y64800D01*
X118449Y58249D02*
X121551D01*
X118449D02*
Y61351D01*
X128449Y58249D02*
X131551D01*
X128449D02*
Y61351D01*
X118449D02*
X121551D01*
X128449D02*
X131551D01*
X121551Y58249D02*
Y61351D01*
X115252Y44800D02*
Y54800D01*
Y64800D01*
X131551Y68249D02*
Y71351D01*
X134748Y64800D02*
Y74800D01*
X118449Y68249D02*
X121551D01*
X118449D02*
Y71351D01*
X128449Y68249D02*
X131551D01*
X128449D02*
Y71351D01*
X118449D02*
X121551D01*
X128449D02*
X131551D01*
X121551Y68249D02*
Y71351D01*
X118449Y78249D02*
X121551D01*
X128449D02*
X131551D01*
X115252Y64800D02*
Y74800D01*
X131551Y78249D02*
Y81351D01*
X134748Y74800D02*
Y84800D01*
X131551Y88249D02*
Y91351D01*
X118449Y78249D02*
Y81351D01*
X128449Y78249D02*
Y81351D01*
X118449D02*
X121551D01*
X128449D02*
X131551D01*
X121551Y78249D02*
Y81351D01*
X118449Y88249D02*
X121551D01*
X118449D02*
Y91351D01*
X128449Y88249D02*
X131551D01*
X128449D02*
Y91351D01*
X118449D02*
X121551D01*
X128449D02*
X131551D01*
X121551Y88249D02*
Y91351D01*
X115252Y74800D02*
Y84800D01*
X134748D02*
Y94800D01*
X131551Y98249D02*
Y101351D01*
X134748Y94800D02*
Y104800D01*
X118449Y98249D02*
X121551D01*
X118449D02*
Y101351D01*
X128449Y98249D02*
X131551D01*
X128449D02*
Y101351D01*
X118449D02*
X121551D01*
X128449D02*
X131551D01*
X121551Y98249D02*
Y101351D01*
X115252Y84800D02*
Y94800D01*
Y104800D01*
X131551Y108249D02*
Y111351D01*
X134748Y104800D02*
Y114800D01*
X118449Y108249D02*
X121551D01*
X118449D02*
Y111351D01*
X128449Y108249D02*
X131551D01*
X128449D02*
Y111351D01*
X118449D02*
X121551D01*
X128449D02*
X131551D01*
X121551Y108249D02*
Y111351D01*
X118449Y118249D02*
X121551D01*
X128449D02*
X131551D01*
X115252Y104800D02*
Y114800D01*
X131551Y118249D02*
Y121351D01*
X134748Y114800D02*
Y124800D01*
X131551Y128249D02*
Y131351D01*
X118449Y118249D02*
Y121351D01*
X128449Y118249D02*
Y121351D01*
X118449D02*
X121551D01*
X128449D02*
X131551D01*
X121551Y118249D02*
Y121351D01*
X118449Y128249D02*
X121551D01*
X118449D02*
Y131351D01*
X128449Y128249D02*
X131551D01*
X128449D02*
Y131351D01*
X118449D02*
X121551D01*
X128449D02*
X131551D01*
X121551Y128249D02*
Y131351D01*
X115252Y114800D02*
Y124800D01*
X134748D02*
Y134800D01*
X131551Y138249D02*
Y141351D01*
X134748Y134800D02*
Y144800D01*
X118449Y138249D02*
X121551D01*
X118449D02*
Y141351D01*
X128449Y138249D02*
X131551D01*
X128449D02*
Y141351D01*
X118449D02*
X121551D01*
X128449D02*
X131551D01*
X121551Y138249D02*
Y141351D01*
X115252Y124800D02*
Y134800D01*
Y144800D01*
X131551Y148249D02*
Y151351D01*
X134748Y144800D02*
Y154800D01*
X118449Y148249D02*
X121551D01*
X118449D02*
Y151351D01*
X128449Y148249D02*
X131551D01*
X128449D02*
Y151351D01*
X118449D02*
X121551D01*
X128449D02*
X131551D01*
X121551Y148249D02*
Y151351D01*
X118449Y158249D02*
X121551D01*
X128449D02*
X131551D01*
X115252Y144800D02*
Y154800D01*
X131551Y158249D02*
Y161351D01*
X134748Y154800D02*
Y164800D01*
X131551Y168249D02*
Y171351D01*
X118449Y158249D02*
Y161351D01*
X128449Y158249D02*
Y161351D01*
X118449D02*
X121551D01*
X128449D02*
X131551D01*
X121551Y158249D02*
Y161351D01*
X118449Y168249D02*
X121551D01*
X118449D02*
Y171351D01*
X128449Y168249D02*
X131551D01*
X128449D02*
Y171351D01*
X118449D02*
X121551D01*
X128449D02*
X131551D01*
X121551Y168249D02*
Y171351D01*
X115252Y154800D02*
Y164800D01*
X134748D02*
Y174800D01*
X131551Y178249D02*
Y181351D01*
X134748Y174800D02*
Y184800D01*
X118449Y178249D02*
X121551D01*
X118449D02*
Y181351D01*
X128449Y178249D02*
X131551D01*
X128449D02*
Y181351D01*
X118449D02*
X121551D01*
X128449D02*
X131551D01*
X121551Y178249D02*
Y181351D01*
X115252Y164800D02*
Y174800D01*
Y184800D01*
X131551Y188249D02*
Y191351D01*
X134748Y184800D02*
Y194800D01*
X118449Y188249D02*
X121551D01*
X118449D02*
Y191351D01*
X128449Y188249D02*
X131551D01*
X128449D02*
Y191351D01*
X118449D02*
X121551D01*
X128449D02*
X131551D01*
X121551Y188249D02*
Y191351D01*
X128449Y198249D02*
X131551D01*
X118449D02*
X121551D01*
X115252Y184800D02*
Y194800D01*
X134748D02*
Y205800D01*
X131551Y198249D02*
Y201351D01*
X128449D02*
X131551D01*
X118449D02*
X121551D01*
X128449Y198249D02*
Y201351D01*
X118449Y198249D02*
Y201351D01*
X121551Y198249D02*
Y201351D01*
X136524Y12028D02*
Y207572D01*
X113476Y12028D02*
X136524D01*
X113476D02*
Y207572D01*
X136524D01*
X115252Y194800D02*
Y205800D01*
X134748D01*
X371551Y18249D02*
Y21351D01*
X374748Y13800D02*
Y24800D01*
X368449Y18249D02*
Y21351D01*
X371551D01*
X358449Y18249D02*
Y21351D01*
X361551D01*
Y18249D02*
Y21351D01*
X368449Y18249D02*
X371551D01*
X358449D02*
X361551D01*
X355252Y13800D02*
X374748D01*
X355252D02*
Y24800D01*
X371551Y28249D02*
Y31351D01*
X374748Y24800D02*
Y34800D01*
X358449Y28249D02*
X361551D01*
X358449D02*
Y31351D01*
X368449Y28249D02*
X371551D01*
X368449D02*
Y31351D01*
X358449D02*
X361551D01*
X368449D02*
X371551D01*
X361551Y28249D02*
Y31351D01*
X358449Y38249D02*
X361551D01*
X368449D02*
X371551D01*
X355252Y24800D02*
Y34800D01*
X371551Y38249D02*
Y41351D01*
X374748Y34800D02*
Y44800D01*
X371551Y48249D02*
Y51351D01*
X358449Y38249D02*
Y41351D01*
X368449Y38249D02*
Y41351D01*
X358449D02*
X361551D01*
X368449D02*
X371551D01*
X361551Y38249D02*
Y41351D01*
X358449Y48249D02*
X361551D01*
X358449D02*
Y51351D01*
X368449Y48249D02*
X371551D01*
X368449D02*
Y51351D01*
X358449D02*
X361551D01*
X368449D02*
X371551D01*
X361551Y48249D02*
Y51351D01*
X355252Y34800D02*
Y44800D01*
X374748D02*
Y54800D01*
X371551Y58249D02*
Y61351D01*
X374748Y54800D02*
Y64800D01*
X358449Y58249D02*
X361551D01*
X358449D02*
Y61351D01*
X368449Y58249D02*
X371551D01*
X368449D02*
Y61351D01*
X358449D02*
X361551D01*
X368449D02*
X371551D01*
X361551Y58249D02*
Y61351D01*
X355252Y44800D02*
Y54800D01*
Y64800D01*
X371551Y68249D02*
Y71351D01*
X374748Y64800D02*
Y74800D01*
X358449Y68249D02*
X361551D01*
X358449D02*
Y71351D01*
X368449Y68249D02*
X371551D01*
X368449D02*
Y71351D01*
X358449D02*
X361551D01*
X368449D02*
X371551D01*
X361551Y68249D02*
Y71351D01*
X358449Y78249D02*
X361551D01*
X368449D02*
X371551D01*
X355252Y64800D02*
Y74800D01*
X371551Y78249D02*
Y81351D01*
X374748Y74800D02*
Y84800D01*
X371551Y88249D02*
Y91351D01*
X358449Y78249D02*
Y81351D01*
X368449Y78249D02*
Y81351D01*
X358449D02*
X361551D01*
X368449D02*
X371551D01*
X361551Y78249D02*
Y81351D01*
X358449Y88249D02*
X361551D01*
X358449D02*
Y91351D01*
X368449Y88249D02*
X371551D01*
X368449D02*
Y91351D01*
X358449D02*
X361551D01*
X368449D02*
X371551D01*
X361551Y88249D02*
Y91351D01*
X355252Y74800D02*
Y84800D01*
X374748D02*
Y94800D01*
X371551Y98249D02*
Y101351D01*
X374748Y94800D02*
Y104800D01*
X358449Y98249D02*
X361551D01*
X358449D02*
Y101351D01*
X368449Y98249D02*
X371551D01*
X368449D02*
Y101351D01*
X358449D02*
X361551D01*
X368449D02*
X371551D01*
X361551Y98249D02*
Y101351D01*
X355252Y84800D02*
Y94800D01*
Y104800D01*
X371551Y108249D02*
Y111351D01*
X374748Y104800D02*
Y114800D01*
X358449Y108249D02*
X361551D01*
X358449D02*
Y111351D01*
X368449Y108249D02*
X371551D01*
X368449D02*
Y111351D01*
X358449D02*
X361551D01*
X368449D02*
X371551D01*
X361551Y108249D02*
Y111351D01*
X358449Y118249D02*
X361551D01*
X368449D02*
X371551D01*
X355252Y104800D02*
Y114800D01*
X371551Y118249D02*
Y121351D01*
X374748Y114800D02*
Y124800D01*
X371551Y128249D02*
Y131351D01*
X358449Y118249D02*
Y121351D01*
X368449Y118249D02*
Y121351D01*
X358449D02*
X361551D01*
X368449D02*
X371551D01*
X361551Y118249D02*
Y121351D01*
X358449Y128249D02*
X361551D01*
X358449D02*
Y131351D01*
X368449Y128249D02*
X371551D01*
X368449D02*
Y131351D01*
X358449D02*
X361551D01*
X368449D02*
X371551D01*
X361551Y128249D02*
Y131351D01*
X355252Y114800D02*
Y124800D01*
X374748D02*
Y134800D01*
X371551Y138249D02*
Y141351D01*
X374748Y134800D02*
Y144800D01*
X358449Y138249D02*
X361551D01*
X358449D02*
Y141351D01*
X368449Y138249D02*
X371551D01*
X368449D02*
Y141351D01*
X358449D02*
X361551D01*
X368449D02*
X371551D01*
X361551Y138249D02*
Y141351D01*
X355252Y124800D02*
Y134800D01*
Y144800D01*
X371551Y148249D02*
Y151351D01*
X374748Y144800D02*
Y154800D01*
X358449Y148249D02*
X361551D01*
X358449D02*
Y151351D01*
X368449Y148249D02*
X371551D01*
X368449D02*
Y151351D01*
X358449D02*
X361551D01*
X368449D02*
X371551D01*
X361551Y148249D02*
Y151351D01*
X358449Y158249D02*
X361551D01*
X368449D02*
X371551D01*
X355252Y144800D02*
Y154800D01*
X371551Y158249D02*
Y161351D01*
X374748Y154800D02*
Y164800D01*
X371551Y168249D02*
Y171351D01*
X358449Y158249D02*
Y161351D01*
X368449Y158249D02*
Y161351D01*
X358449D02*
X361551D01*
X368449D02*
X371551D01*
X361551Y158249D02*
Y161351D01*
X358449Y168249D02*
X361551D01*
X358449D02*
Y171351D01*
X368449Y168249D02*
X371551D01*
X368449D02*
Y171351D01*
X358449D02*
X361551D01*
X368449D02*
X371551D01*
X361551Y168249D02*
Y171351D01*
X355252Y154800D02*
Y164800D01*
X374748D02*
Y174800D01*
X371551Y178249D02*
Y181351D01*
X374748Y174800D02*
Y184800D01*
X358449Y178249D02*
X361551D01*
X358449D02*
Y181351D01*
X368449Y178249D02*
X371551D01*
X368449D02*
Y181351D01*
X358449D02*
X361551D01*
X368449D02*
X371551D01*
X361551Y178249D02*
Y181351D01*
X355252Y164800D02*
Y174800D01*
Y184800D01*
X371551Y188249D02*
Y191351D01*
X374748Y184800D02*
Y194800D01*
X358449Y188249D02*
X361551D01*
X358449D02*
Y191351D01*
X368449Y188249D02*
X371551D01*
X368449D02*
Y191351D01*
X358449D02*
X361551D01*
X368449D02*
X371551D01*
X361551Y188249D02*
Y191351D01*
X368449Y198249D02*
X371551D01*
X358449D02*
X361551D01*
X355252Y184800D02*
Y194800D01*
X374748D02*
Y205800D01*
X371551Y198249D02*
Y201351D01*
X368449D02*
X371551D01*
X358449D02*
X361551D01*
X368449Y198249D02*
Y201351D01*
X358449Y198249D02*
Y201351D01*
X361551Y198249D02*
Y201351D01*
X376524Y12028D02*
Y207572D01*
X353476Y12028D02*
X376524D01*
X353476D02*
Y207572D01*
X376524D01*
X355252Y194800D02*
Y205800D01*
X374748D01*
D78*
X259598Y351701D02*
X262402D01*
X259598Y348350D02*
X262402D01*
M02*
