G04*
G04 #@! TF.GenerationSoftware,Altium Limited,Altium Designer,20.2.4 (192)*
G04*
G04 Layer_Color=8421504*
%FSLAX25Y25*%
%MOIN*%
G70*
G04*
G04 #@! TF.SameCoordinates,B3AF9CCF-9D14-4356-84A3-7319CC5DFEB4*
G04*
G04*
G04 #@! TF.FilePolarity,Positive*
G04*
G01*
G75*
%ADD19R,0.03661X0.03425*%
%ADD20R,0.05512X0.01181*%
%ADD21R,0.03900X0.04300*%
%ADD22R,0.04567X0.05787*%
%ADD23R,0.05787X0.04567*%
%ADD24R,0.03425X0.03661*%
%ADD25R,0.03937X0.04331*%
%ADD26R,0.05512X0.03937*%
%ADD27R,0.04331X0.03937*%
%ADD28R,0.16929X0.09843*%
%ADD29R,0.03543X0.03150*%
%ADD30R,0.03150X0.03543*%
%ADD31R,0.06299X0.07874*%
G36*
X245349Y357984D02*
X245502Y357965D01*
X245654Y357938D01*
X245805Y357904D01*
X245954Y357862D01*
X246101Y357813D01*
X246245Y357757D01*
X246386Y357695D01*
X246524Y357625D01*
X246659Y357548D01*
X246789Y357466D01*
X246916Y357377D01*
X247037Y357281D01*
X247154Y357180D01*
X247267Y357074D01*
X247373Y356962D01*
X247474Y356844D01*
X247569Y356723D01*
X247659Y356596D01*
X247741Y356466D01*
X247818Y356331D01*
X247887Y356193D01*
X247950Y356052D01*
X248006Y355908D01*
X248055Y355761D01*
X248097Y355612D01*
X248131Y355461D01*
X248158Y355309D01*
X248177Y355155D01*
X248189Y355004D01*
X247008D01*
X246998Y355087D01*
X246984Y355180D01*
X246965Y355271D01*
X246942Y355361D01*
X246915Y355450D01*
X246883Y355538D01*
X246848Y355624D01*
X246808Y355709D01*
X246765Y355791D01*
X246718Y355872D01*
X246667Y355950D01*
X246613Y356026D01*
X246555Y356099D01*
X246494Y356169D01*
X246430Y356237D01*
X246362Y356301D01*
X246292Y356362D01*
X246219Y356420D01*
X246143Y356474D01*
X246065Y356525D01*
X245984Y356572D01*
X245902Y356615D01*
X245817Y356655D01*
X245731Y356690D01*
X245643Y356722D01*
X245554Y356749D01*
X245464Y356772D01*
X245372Y356791D01*
X245280Y356805D01*
X245197Y356815D01*
Y357996D01*
X245349Y357984D01*
D02*
G37*
G36*
X244803Y356815D02*
X244720Y356805D01*
X244628Y356791D01*
X244536Y356772D01*
X244446Y356749D01*
X244357Y356722D01*
X244269Y356690D01*
X244183Y356655D01*
X244098Y356615D01*
X244016Y356572D01*
X243935Y356525D01*
X243857Y356474D01*
X243781Y356420D01*
X243708Y356362D01*
X243638Y356301D01*
X243570Y356237D01*
X243506Y356169D01*
X243445Y356099D01*
X243387Y356026D01*
X243333Y355950D01*
X243282Y355872D01*
X243235Y355791D01*
X243192Y355709D01*
X243152Y355624D01*
X243117Y355538D01*
X243085Y355450D01*
X243058Y355361D01*
X243035Y355271D01*
X243016Y355180D01*
X243002Y355087D01*
X242992Y355004D01*
X241811D01*
X241823Y355155D01*
X241842Y355309D01*
X241869Y355461D01*
X241903Y355612D01*
X241945Y355761D01*
X241994Y355908D01*
X242050Y356052D01*
X242112Y356193D01*
X242182Y356331D01*
X242259Y356466D01*
X242341Y356596D01*
X242431Y356723D01*
X242526Y356844D01*
X242627Y356962D01*
X242734Y357074D01*
X242846Y357180D01*
X242963Y357281D01*
X243084Y357377D01*
X243211Y357466D01*
X243341Y357548D01*
X243476Y357625D01*
X243614Y357695D01*
X243755Y357757D01*
X243899Y357813D01*
X244046Y357862D01*
X244195Y357904D01*
X244346Y357938D01*
X244498Y357965D01*
X244652Y357984D01*
X244803Y357996D01*
Y356815D01*
D02*
G37*
G36*
X248177Y354459D02*
X248158Y354305D01*
X248131Y354153D01*
X248097Y354002D01*
X248055Y353853D01*
X248006Y353706D01*
X247950Y353562D01*
X247887Y353421D01*
X247818Y353283D01*
X247741Y353149D01*
X247659Y353018D01*
X247569Y352891D01*
X247474Y352770D01*
X247373Y352653D01*
X247267Y352541D01*
X247154Y352434D01*
X247037Y352333D01*
X246916Y352238D01*
X246789Y352149D01*
X246659Y352066D01*
X246524Y351989D01*
X246386Y351920D01*
X246245Y351857D01*
X246101Y351801D01*
X245954Y351752D01*
X245805Y351710D01*
X245654Y351676D01*
X245502Y351649D01*
X245349Y351630D01*
X245197Y351618D01*
Y352799D01*
X245280Y352809D01*
X245372Y352823D01*
X245464Y352842D01*
X245554Y352865D01*
X245643Y352892D01*
X245731Y352924D01*
X245817Y352959D01*
X245902Y352999D01*
X245984Y353042D01*
X246065Y353089D01*
X246143Y353140D01*
X246219Y353194D01*
X246292Y353252D01*
X246362Y353313D01*
X246430Y353378D01*
X246494Y353445D01*
X246555Y353515D01*
X246613Y353588D01*
X246667Y353664D01*
X246718Y353742D01*
X246765Y353823D01*
X246808Y353905D01*
X246848Y353990D01*
X246883Y354076D01*
X246915Y354164D01*
X246942Y354253D01*
X246965Y354343D01*
X246984Y354435D01*
X246998Y354527D01*
X247008Y354610D01*
X248189D01*
X248177Y354459D01*
D02*
G37*
G36*
X243002Y354527D02*
X243016Y354435D01*
X243035Y354343D01*
X243058Y354253D01*
X243085Y354164D01*
X243117Y354076D01*
X243152Y353990D01*
X243192Y353905D01*
X243235Y353823D01*
X243282Y353742D01*
X243333Y353664D01*
X243387Y353588D01*
X243445Y353515D01*
X243506Y353445D01*
X243570Y353378D01*
X243638Y353313D01*
X243708Y353252D01*
X243781Y353194D01*
X243857Y353140D01*
X243935Y353089D01*
X244016Y353042D01*
X244098Y352999D01*
X244183Y352959D01*
X244269Y352924D01*
X244357Y352892D01*
X244446Y352865D01*
X244536Y352842D01*
X244628Y352823D01*
X244720Y352809D01*
X244803Y352799D01*
Y351618D01*
X244652Y351630D01*
X244498Y351649D01*
X244346Y351676D01*
X244195Y351710D01*
X244046Y351752D01*
X243899Y351801D01*
X243755Y351857D01*
X243614Y351920D01*
X243476Y351989D01*
X243341Y352066D01*
X243211Y352149D01*
X243084Y352238D01*
X242963Y352333D01*
X242846Y352434D01*
X242734Y352541D01*
X242627Y352653D01*
X242526Y352770D01*
X242431Y352891D01*
X242341Y353018D01*
X242259Y353149D01*
X242182Y353283D01*
X242112Y353421D01*
X242050Y353562D01*
X241994Y353706D01*
X241945Y353853D01*
X241903Y354002D01*
X241869Y354153D01*
X241842Y354305D01*
X241823Y354459D01*
X241811Y354610D01*
X242992D01*
X243002Y354527D01*
D02*
G37*
G36*
X249528Y349047D02*
X247559D01*
Y350709D01*
X249528D01*
Y349047D01*
D02*
G37*
G36*
X242441D02*
X240472D01*
Y350709D01*
X242441D01*
Y349047D01*
D02*
G37*
G36*
X249528Y345811D02*
X247559D01*
Y347472D01*
X249528D01*
Y345811D01*
D02*
G37*
G36*
X245984D02*
X244016D01*
Y347472D01*
X245984D01*
Y345811D01*
D02*
G37*
G36*
X242441D02*
X240472D01*
Y347472D01*
X242441D01*
Y345811D01*
D02*
G37*
G36*
X250571Y306453D02*
X250603Y306444D01*
X250633Y306428D01*
X250658Y306406D01*
X250680Y306381D01*
X250696Y306351D01*
X250705Y306319D01*
X250709Y306285D01*
Y288124D01*
X250705Y288091D01*
X250696Y288058D01*
X250680Y288029D01*
X250658Y288003D01*
X250633Y287982D01*
X250603Y287966D01*
X250571Y287956D01*
X250537Y287953D01*
X239463D01*
X239429Y287956D01*
X239397Y287966D01*
X239368Y287982D01*
X239341Y288003D01*
X239320Y288029D01*
X239304Y288058D01*
X239295Y288091D01*
X239291Y288124D01*
Y306285D01*
X239295Y306319D01*
X239304Y306351D01*
X239320Y306381D01*
X239341Y306406D01*
X239368Y306428D01*
X239397Y306444D01*
X239429Y306453D01*
X239463Y306457D01*
X250537D01*
X250571Y306453D01*
D02*
G37*
D19*
X231400Y271371D02*
D03*
Y265229D02*
D03*
X240900Y271671D02*
D03*
Y265529D02*
D03*
X265000Y281071D02*
D03*
Y274929D02*
D03*
X273000Y332071D02*
D03*
Y325929D02*
D03*
X283000Y332071D02*
D03*
Y325929D02*
D03*
X279000Y247929D02*
D03*
Y254071D02*
D03*
X270000Y247929D02*
D03*
Y254071D02*
D03*
X221000Y249929D02*
D03*
Y256071D02*
D03*
X210000Y249929D02*
D03*
Y256071D02*
D03*
X199000Y286071D02*
D03*
Y279929D02*
D03*
X220000Y328071D02*
D03*
Y321929D02*
D03*
X210000Y328071D02*
D03*
Y321929D02*
D03*
D20*
X256614Y314921D02*
D03*
Y312953D02*
D03*
Y310984D02*
D03*
Y309016D02*
D03*
Y307047D02*
D03*
Y305079D02*
D03*
Y303110D02*
D03*
Y301142D02*
D03*
Y299173D02*
D03*
Y297205D02*
D03*
Y295236D02*
D03*
Y293268D02*
D03*
Y291299D02*
D03*
Y289331D02*
D03*
Y287362D02*
D03*
Y285394D02*
D03*
Y283425D02*
D03*
Y281457D02*
D03*
Y279488D02*
D03*
X233386D02*
D03*
Y281457D02*
D03*
Y283425D02*
D03*
Y285394D02*
D03*
Y287362D02*
D03*
Y289331D02*
D03*
Y291299D02*
D03*
Y293268D02*
D03*
Y295236D02*
D03*
Y297205D02*
D03*
Y299173D02*
D03*
Y301142D02*
D03*
Y303110D02*
D03*
Y305079D02*
D03*
Y307047D02*
D03*
Y309016D02*
D03*
Y310984D02*
D03*
Y312953D02*
D03*
Y314921D02*
D03*
D21*
X275000Y16750D02*
D03*
Y23450D02*
D03*
X255000Y16750D02*
D03*
Y23450D02*
D03*
X235000Y16750D02*
D03*
Y23450D02*
D03*
X215000Y16750D02*
D03*
Y23450D02*
D03*
X130000Y266550D02*
D03*
Y273250D02*
D03*
D22*
X448445Y80000D02*
D03*
X441555D02*
D03*
X278445Y280000D02*
D03*
X271555D02*
D03*
X274000Y319000D02*
D03*
X280890D02*
D03*
X211555Y277000D02*
D03*
X218445D02*
D03*
X215555Y299000D02*
D03*
X222445D02*
D03*
D23*
X290000Y271555D02*
D03*
Y278445D02*
D03*
X200000Y240445D02*
D03*
Y233555D02*
D03*
Y296355D02*
D03*
Y303245D02*
D03*
Y331890D02*
D03*
Y325000D02*
D03*
D24*
X265929Y288000D02*
D03*
X272071D02*
D03*
X271929Y298000D02*
D03*
X278071D02*
D03*
D25*
X278543Y265000D02*
D03*
X271457D02*
D03*
X274000Y311000D02*
D03*
X281087D02*
D03*
X218543Y265000D02*
D03*
X211457D02*
D03*
X218543Y310000D02*
D03*
X211457D02*
D03*
D26*
X229669Y333000D02*
D03*
X238331Y336740D02*
D03*
Y329260D02*
D03*
X261331Y333000D02*
D03*
X252669Y329260D02*
D03*
Y336740D02*
D03*
X232669Y255000D02*
D03*
X241331Y258740D02*
D03*
Y251260D02*
D03*
X259331Y255000D02*
D03*
X250669Y251260D02*
D03*
Y258740D02*
D03*
D27*
X257653Y350000D02*
D03*
X264347D02*
D03*
D28*
X303661Y293000D02*
D03*
X336339D02*
D03*
X153661Y335000D02*
D03*
X186339D02*
D03*
X153661Y247000D02*
D03*
X186339D02*
D03*
X153661Y291000D02*
D03*
X186339D02*
D03*
D29*
X245000Y237756D02*
D03*
Y232245D02*
D03*
X215000Y44999D02*
D03*
Y39488D02*
D03*
X235000Y44999D02*
D03*
Y39488D02*
D03*
X255000Y44999D02*
D03*
Y39488D02*
D03*
X275000Y44999D02*
D03*
Y39488D02*
D03*
D30*
X224488Y350000D02*
D03*
X230000D02*
D03*
X127245Y245000D02*
D03*
X132756D02*
D03*
D31*
X20433Y11890D02*
D03*
Y24882D02*
D03*
Y49685D02*
D03*
X49567Y11890D02*
D03*
Y49685D02*
D03*
M02*
