G04*
G04 #@! TF.GenerationSoftware,Altium Limited,Altium Designer,20.2.4 (192)*
G04*
G04 Layer_Color=65535*
%FSLAX25Y25*%
%MOIN*%
G70*
G04*
G04 #@! TF.SameCoordinates,B3AF9CCF-9D14-4356-84A3-7319CC5DFEB4*
G04*
G04*
G04 #@! TF.FilePolarity,Positive*
G04*
G01*
G75*
%ADD10C,0.01575*%
%ADD11C,0.00787*%
%ADD12C,0.00800*%
%ADD13C,0.01500*%
%ADD14C,0.01000*%
%ADD15C,0.00600*%
%ADD16C,0.00799*%
%ADD17C,0.00500*%
%ADD18C,0.00700*%
G36*
X432240Y181795D02*
X432370Y181730D01*
X432630D01*
X432825Y181600D01*
X433020Y181470D01*
X433085D01*
X433215Y181340D01*
X433410Y181210D01*
X433540Y180950D01*
X433605Y180820D01*
X433670Y180625D01*
Y180300D01*
X432890D01*
Y180365D01*
Y180430D01*
X432760Y180690D01*
Y180755D01*
Y180820D01*
X432630Y180885D01*
X432500Y180950D01*
X432435Y181015D01*
X432305Y181080D01*
X432240D01*
X432110Y181210D01*
X431460D01*
X431200Y181145D01*
X431070Y181080D01*
X431005D01*
X430940Y181015D01*
X430550Y180690D01*
Y180625D01*
X430485Y180560D01*
X430420Y180430D01*
Y180365D01*
Y180300D01*
X430355Y180235D01*
X430290Y180040D01*
Y179390D01*
Y178740D01*
Y178675D01*
X430355Y178610D01*
X430420Y178480D01*
Y178415D01*
Y178350D01*
X430485Y178285D01*
X430550Y178090D01*
X430615Y178025D01*
X430745Y177960D01*
X431070Y177700D01*
X431200Y177635D01*
X431395Y177570D01*
X431915D01*
X432110Y177635D01*
X432240Y177700D01*
X432370Y177765D01*
X432435Y177830D01*
X432630Y177960D01*
X432695D01*
X432760Y178025D01*
X432825Y178155D01*
X432890Y178350D01*
X432955Y178480D01*
X433020Y178610D01*
Y178870D01*
X431720D01*
Y179520D01*
X433800D01*
Y177050D01*
X433280D01*
X433150Y177570D01*
X433085Y177505D01*
X433020Y177440D01*
X432890Y177310D01*
X432760Y177245D01*
X432695Y177180D01*
X432500Y177050D01*
X432435D01*
X432305Y176985D01*
X432045Y176920D01*
X431330D01*
X431005Y176985D01*
X430680Y177050D01*
X430615D01*
X430485Y177180D01*
X430290Y177310D01*
X430030Y177570D01*
X429965Y177635D01*
X429900Y177830D01*
X429705Y178090D01*
X429510Y178480D01*
Y178545D01*
Y178610D01*
X429445Y178935D01*
Y179000D01*
Y179065D01*
X429380Y179390D01*
Y179455D01*
Y179520D01*
X429445Y179845D01*
Y179910D01*
X429510Y179975D01*
Y180300D01*
X429575Y180430D01*
X429705Y180690D01*
X429835Y180950D01*
X430030Y181210D01*
X430095Y181275D01*
X430290Y181405D01*
X430485Y181600D01*
X430680Y181730D01*
X430745D01*
X430940Y181795D01*
X431265Y181860D01*
X431980D01*
X432240Y181795D01*
D02*
G37*
G36*
X445240Y179520D02*
X446930Y177050D01*
X446020D01*
X444720Y178870D01*
X443550Y177050D01*
X442640D01*
X444330Y179520D01*
X442770Y181730D01*
X443680D01*
X444850Y180040D01*
X445890Y181730D01*
X446930D01*
X445240Y179520D01*
D02*
G37*
G36*
X428730Y178480D02*
X426780D01*
Y179130D01*
X428730D01*
Y178480D01*
D02*
G37*
G36*
X426000D02*
Y177960D01*
X425935Y177895D01*
X425870Y177700D01*
X425805Y177505D01*
X425740Y177440D01*
X425610Y177375D01*
X425480Y177245D01*
X425220Y177050D01*
X425090Y176985D01*
X424830Y176920D01*
X424180D01*
X423920Y176985D01*
X423790Y177050D01*
X423725D01*
X423660Y177115D01*
X423465Y177180D01*
X423270Y177310D01*
Y177375D01*
X423140Y177505D01*
X423010Y177830D01*
Y178480D01*
Y178610D01*
X423790D01*
Y178480D01*
Y178415D01*
Y178350D01*
X423855Y178090D01*
X423920Y178025D01*
Y177830D01*
X423985Y177765D01*
X424115Y177700D01*
X424245Y177635D01*
X424440Y177570D01*
X424830D01*
X425090Y177830D01*
Y178090D01*
Y178155D01*
X425155Y178285D01*
X425220Y178350D01*
Y178480D01*
Y181730D01*
X426000D01*
Y178480D01*
D02*
G37*
G36*
X422360D02*
Y177960D01*
Y177895D01*
Y177830D01*
X422230Y177635D01*
X422100Y177440D01*
Y177375D01*
X422035Y177310D01*
X421970Y177245D01*
X421905Y177180D01*
X421840D01*
X421710Y177050D01*
X421645D01*
X421515Y176985D01*
X421190Y176920D01*
X420605D01*
X420150Y177050D01*
X420085Y177115D01*
X419955Y177180D01*
X419760Y177310D01*
X419695Y177375D01*
X419630Y177505D01*
X419565Y177635D01*
X419500Y177830D01*
X419435Y177960D01*
X419370Y178155D01*
Y178480D01*
Y178610D01*
X420280D01*
Y178480D01*
Y178415D01*
Y178220D01*
X420345Y177960D01*
X420410Y177830D01*
Y177765D01*
X420475Y177700D01*
X420605Y177635D01*
X420930Y177570D01*
X421190D01*
X421450Y177830D01*
X421515Y177895D01*
X421580Y178090D01*
Y178480D01*
Y181730D01*
X422360D01*
Y178480D01*
D02*
G37*
G36*
X442380Y181080D02*
X439780D01*
Y179780D01*
X442120D01*
Y179130D01*
X439780D01*
Y177700D01*
X442380D01*
Y177050D01*
X438870D01*
Y181730D01*
X442380D01*
Y181080D01*
D02*
G37*
G36*
X438090D02*
X435490D01*
Y179780D01*
X437960D01*
Y179130D01*
X435490D01*
Y177700D01*
X438220D01*
Y177050D01*
X434710D01*
Y181730D01*
X438090D01*
Y181080D01*
D02*
G37*
G36*
X433215Y199800D02*
X433475Y199670D01*
X433865Y199410D01*
X434385Y199020D01*
X435165Y198435D01*
X435620Y198110D01*
X436140Y197720D01*
X436205D01*
X436270Y197590D01*
X436465Y197525D01*
X436660Y197330D01*
X437310Y196810D01*
X438220Y196160D01*
X439260Y195380D01*
X440560Y194405D01*
X441990Y193300D01*
X443615Y192065D01*
X443680Y192000D01*
X443810Y191935D01*
X444070Y191740D01*
X444395Y191480D01*
X444850Y191155D01*
X445305Y190765D01*
X445890Y190310D01*
X446540Y189855D01*
X447970Y188685D01*
X449660Y187450D01*
X451480Y186020D01*
X453430Y184525D01*
X453495Y184460D01*
X453690Y184330D01*
X453950Y184135D01*
X454340Y183810D01*
X454795Y183485D01*
X455380Y183030D01*
X456030Y182575D01*
X456680Y181990D01*
X458240Y180820D01*
X459930Y179455D01*
X461750Y178090D01*
X463570Y176660D01*
X463635Y176595D01*
X463765Y176465D01*
X464025Y176270D01*
X464350Y176010D01*
X464805Y175685D01*
X465260Y175295D01*
X466430Y174450D01*
X467730Y173410D01*
X469160Y172305D01*
X470590Y171200D01*
X472020Y170095D01*
X472085D01*
X472150Y169965D01*
X472345Y169835D01*
X472605Y169640D01*
X473255Y169185D01*
X473970Y168600D01*
X474750Y167950D01*
X475530Y167365D01*
X476180Y166845D01*
X476700Y166390D01*
X475790Y165220D01*
X433150Y198240D01*
X433020D01*
X410530Y180950D01*
X409620Y182120D01*
X409685D01*
X409750Y182250D01*
X409945Y182380D01*
X410205Y182575D01*
X410530Y182835D01*
X410985Y183160D01*
X411570Y183615D01*
X412220Y184135D01*
X412285Y184200D01*
X412545Y184395D01*
X413000Y184720D01*
X413520Y185110D01*
X414170Y185630D01*
X414950Y186215D01*
X415795Y186865D01*
X416705Y187580D01*
X416835Y187645D01*
X417160Y187905D01*
X417680Y188295D01*
X418330Y188815D01*
X419110Y189465D01*
X420020Y190180D01*
X420995Y190960D01*
X422035Y191740D01*
X422100D01*
X422165Y191870D01*
X422490Y192130D01*
X423075Y192520D01*
X423725Y193105D01*
X424505Y193690D01*
X425415Y194405D01*
X427235Y195770D01*
X427365Y195835D01*
X427625Y196095D01*
X428080Y196420D01*
X428665Y196810D01*
X429250Y197330D01*
X429965Y197785D01*
X430615Y198305D01*
X431265Y198760D01*
X431330Y198825D01*
X431525Y198955D01*
X431785Y199150D01*
X432110Y199345D01*
X432435Y199540D01*
X432695Y199735D01*
X432890Y199865D01*
X433020Y199930D01*
X433085D01*
X433215Y199800D01*
D02*
G37*
G36*
X463440Y172175D02*
X463700Y172045D01*
X463960Y171850D01*
X464220Y171590D01*
X464415Y171200D01*
X464480Y170680D01*
Y169380D01*
X465130D01*
X465130Y165090D01*
X460840D01*
X460840Y169380D01*
X461360D01*
Y170680D01*
Y170745D01*
Y170940D01*
X461425Y171200D01*
X461555Y171460D01*
X461750Y171720D01*
X462010Y171980D01*
X462400Y172175D01*
X462920Y172240D01*
X463180D01*
X463440Y172175D01*
D02*
G37*
G36*
X452325Y163075D02*
X452455D01*
X452715Y163010D01*
X453105Y162945D01*
X453560Y162880D01*
X453625D01*
X453755Y162815D01*
X454015Y162685D01*
X454275Y162555D01*
X454860Y162295D01*
X455185Y162100D01*
X455380Y161970D01*
X455445Y161905D01*
X455510Y161840D01*
X455835Y161450D01*
X456225Y160930D01*
X456550Y160280D01*
Y160215D01*
X456615Y160150D01*
X456680Y159955D01*
X456745Y159695D01*
X456875Y158980D01*
X456940Y158070D01*
Y145070D01*
X454080D01*
Y156640D01*
Y156705D01*
Y156835D01*
Y157225D01*
X454015Y157745D01*
X453950Y158200D01*
Y158265D01*
X453885Y158395D01*
X453755Y158785D01*
Y158850D01*
X453690Y158980D01*
X453625Y159175D01*
X453430Y159370D01*
X453365Y159435D01*
X453235Y159630D01*
X452910Y159890D01*
X452390Y160280D01*
X452325D01*
X452260Y160345D01*
X451870Y160410D01*
X451350Y160475D01*
X450700Y160540D01*
X450310D01*
X449920Y160475D01*
X449465Y160410D01*
X448880Y160280D01*
X448360Y160020D01*
X447775Y159760D01*
X447320Y159370D01*
X447255Y159305D01*
X447125Y159110D01*
X446930Y158785D01*
X446670Y158395D01*
X446410Y157875D01*
X446215Y157355D01*
X446085Y156770D01*
X446020Y156120D01*
Y145070D01*
X443160D01*
Y156640D01*
Y156705D01*
Y156835D01*
Y157225D01*
X443095Y157745D01*
X443030Y158200D01*
Y158265D01*
X442965Y158330D01*
X442900Y158655D01*
X442705Y159110D01*
X442510Y159500D01*
X442445Y159565D01*
X442315Y159695D01*
X441990Y159955D01*
X441470Y160280D01*
X441405D01*
X441340Y160345D01*
X441015Y160410D01*
X440495Y160475D01*
X439910Y160540D01*
X439455D01*
X439130Y160475D01*
X438415Y160345D01*
X437700Y160020D01*
X437635Y159955D01*
X437440Y159825D01*
X437180Y159695D01*
X436920Y159435D01*
X436855Y159370D01*
X436725Y159240D01*
X436270Y158850D01*
Y158785D01*
X436205Y158720D01*
X436010Y158395D01*
X435750Y157875D01*
X435490Y157290D01*
X435425Y157225D01*
X435360Y157095D01*
X435295Y156965D01*
X435230Y156705D01*
Y156640D01*
Y156510D01*
Y156120D01*
Y145070D01*
X432370D01*
Y162750D01*
X434970D01*
Y160150D01*
X435100D01*
Y160215D01*
X435165Y160280D01*
X435490Y160605D01*
X435945Y161125D01*
X436530Y161645D01*
X437375Y162165D01*
X438350Y162685D01*
X439520Y163010D01*
X440105Y163140D01*
X441405D01*
X441795Y163075D01*
X442705Y162880D01*
X443680Y162490D01*
X443745Y162425D01*
X443940Y162360D01*
X444135Y162165D01*
X444460Y161905D01*
X444785Y161580D01*
X445110Y161190D01*
X445370Y160670D01*
X445630Y160150D01*
X445695Y160215D01*
X445760Y160410D01*
X445955Y160670D01*
X446215Y160995D01*
X446540Y161320D01*
X446930Y161710D01*
X447450Y162035D01*
X447970Y162360D01*
X448035Y162425D01*
X448230Y162490D01*
X448490Y162620D01*
X448880Y162750D01*
X449335Y162880D01*
X449920Y163010D01*
X450505Y163140D01*
X451870D01*
X452325Y163075D01*
D02*
G37*
G36*
X407930Y145070D02*
X404680D01*
Y156250D01*
X391940D01*
Y145070D01*
X388690D01*
Y165610D01*
X391940D01*
Y158980D01*
X404680D01*
X404680Y177960D01*
X407930D01*
X407930Y145070D01*
D02*
G37*
G36*
X464350Y145070D02*
X461490D01*
Y162750D01*
X464350D01*
Y145070D01*
D02*
G37*
G36*
X476960Y163075D02*
X477480Y163010D01*
X478130Y162880D01*
X478780Y162685D01*
X479430Y162425D01*
X480080Y162100D01*
X480145Y162035D01*
X480340Y161905D01*
X480600Y161710D01*
X480990Y161450D01*
X481380Y161125D01*
X481770Y160670D01*
X482160Y160215D01*
X482550Y159630D01*
X482615Y159565D01*
X482680Y159435D01*
X482810Y159175D01*
X483005Y158785D01*
X483200Y158330D01*
X483460Y157745D01*
X483655Y157095D01*
X483850Y156380D01*
Y156315D01*
X483915Y156250D01*
X483980Y155860D01*
X484045Y155275D01*
X484110Y154690D01*
Y154625D01*
Y154560D01*
Y154170D01*
Y153650D01*
Y153000D01*
X470980Y153000D01*
Y152870D01*
Y152610D01*
Y152285D01*
Y151895D01*
Y151830D01*
X471045Y151570D01*
X471110Y151245D01*
X471240Y150790D01*
Y150725D01*
X471305Y150595D01*
X471435Y150335D01*
X471565Y150075D01*
X471890Y149490D01*
X472085Y149230D01*
X472280Y148970D01*
X472410Y148840D01*
X472670Y148580D01*
X473190Y148190D01*
X473970Y147800D01*
X474035D01*
X474165Y147735D01*
X474360Y147670D01*
X474620Y147540D01*
X474945Y147475D01*
X475400Y147345D01*
X475920Y147280D01*
X476765D01*
X477090Y147345D01*
X477480Y147410D01*
X478455Y147605D01*
X478975Y147800D01*
X479430Y148060D01*
X479495Y148125D01*
X479625Y148255D01*
X479820Y148450D01*
X480080Y148775D01*
X480340Y149165D01*
X480600Y149620D01*
X480795Y150075D01*
X480990Y150660D01*
X483850D01*
Y150530D01*
X483720Y150205D01*
X483525Y149620D01*
X483265Y148970D01*
X482940Y148255D01*
X482485Y147540D01*
X481900Y146825D01*
X481250Y146240D01*
X481185Y146175D01*
X480925Y146045D01*
X480535Y145785D01*
X479950Y145525D01*
X479235Y145265D01*
X478390Y145005D01*
X477415Y144875D01*
X476310Y144810D01*
X475920D01*
X475530Y144875D01*
X475010D01*
X473775Y145070D01*
X473190Y145265D01*
X472670Y145460D01*
X472605D01*
X472475Y145590D01*
X472215Y145720D01*
X471890Y145915D01*
X471435Y146110D01*
X471045Y146435D01*
X470525Y146825D01*
X470070Y147280D01*
X470005Y147345D01*
X469875Y147540D01*
X469745Y147800D01*
X469485Y148190D01*
X469225Y148645D01*
X468965Y149165D01*
X468510Y150270D01*
Y150335D01*
X468445Y150400D01*
X468380Y150855D01*
X468250Y151375D01*
X468120Y152025D01*
Y152090D01*
Y152155D01*
X468055Y152610D01*
X467990Y153195D01*
X467860Y153910D01*
Y153975D01*
Y154235D01*
X467925Y154560D01*
Y155080D01*
X467990Y155600D01*
X468120Y156250D01*
X468510Y157680D01*
Y157745D01*
X468640Y157940D01*
X468770Y158265D01*
X468900Y158655D01*
X469420Y159565D01*
X470200Y160540D01*
X470265Y160605D01*
X470395Y160735D01*
X470590Y160930D01*
X470915Y161190D01*
X471305Y161450D01*
X471760Y161775D01*
X472800Y162490D01*
X472865D01*
X473125Y162620D01*
X473450Y162685D01*
X473840Y162815D01*
X474360Y162945D01*
X474945Y163010D01*
X476180Y163140D01*
X476570D01*
X476960Y163075D01*
D02*
G37*
G36*
X421125Y163075D02*
X421645D01*
X422230Y162945D01*
X422815Y162815D01*
X423465Y162620D01*
X424050Y162360D01*
X424115D01*
X424310Y162230D01*
X424635Y162100D01*
X424960Y161905D01*
X425415Y161645D01*
X425870Y161320D01*
X426325Y160930D01*
X426780Y160410D01*
X426845Y160345D01*
X426910Y160215D01*
X427105Y159955D01*
X427300Y159695D01*
X427560Y159240D01*
X427820Y158785D01*
X428080Y158200D01*
X428340Y157550D01*
Y157485D01*
X428405Y157290D01*
X428535Y156965D01*
X428600Y156510D01*
X428730Y155990D01*
X428795Y155340D01*
X428860Y154690D01*
Y153910D01*
Y153845D01*
Y153585D01*
Y153195D01*
X428795Y152675D01*
X428730Y152090D01*
X428665Y151505D01*
X428340Y150270D01*
Y150205D01*
X428210Y149945D01*
X428080Y149620D01*
X427885Y149230D01*
X427430Y148320D01*
X427105Y147865D01*
X426780Y147410D01*
X426715Y147345D01*
X426585Y147215D01*
X426325Y146955D01*
X426000Y146695D01*
X425610Y146370D01*
X425155Y146045D01*
X424050Y145460D01*
X423985D01*
X423790Y145330D01*
X423530Y145265D01*
X423140Y145135D01*
X422620Y145005D01*
X421970Y144940D01*
X421255Y144810D01*
X420020D01*
X419565Y144875D01*
X419045D01*
X418460Y144940D01*
X417810Y145070D01*
X417225Y145265D01*
X416640Y145460D01*
X416575Y145525D01*
X416380Y145590D01*
X416055Y145720D01*
X415665Y145980D01*
X414820Y146565D01*
X414430Y146955D01*
X414040Y147410D01*
X413975Y147475D01*
X413845Y147605D01*
X413650Y147865D01*
X413455Y148190D01*
X413195Y148580D01*
X412870Y149035D01*
X412610Y149620D01*
X412350Y150270D01*
Y150335D01*
X412285Y150530D01*
X412220Y150855D01*
X412090Y151310D01*
X412025Y151830D01*
X411895Y152480D01*
X411830Y153130D01*
Y153910D01*
Y153975D01*
Y154235D01*
Y154625D01*
X411895Y155145D01*
X411960Y155730D01*
X412025Y156315D01*
X412350Y157550D01*
Y157615D01*
X412480Y157875D01*
X412610Y158200D01*
X412805Y158590D01*
X413325Y159500D01*
X413650Y160020D01*
X414040Y160410D01*
X414105Y160475D01*
X414235Y160605D01*
X414430Y160865D01*
X414690Y161125D01*
X415080Y161450D01*
X415535Y161775D01*
X416055Y162100D01*
X416640Y162360D01*
X416705Y162425D01*
X416965Y162490D01*
X417290Y162620D01*
X417810Y162750D01*
X418330Y162880D01*
X418980Y163010D01*
X419695Y163140D01*
X420735D01*
X421125Y163075D01*
D02*
G37*
G36*
X469550Y138050D02*
X468640D01*
Y139220D01*
X469550D01*
Y138050D01*
D02*
G37*
G36*
X474100Y137205D02*
X474360Y137140D01*
X474425D01*
X474490Y137075D01*
X474620Y137010D01*
X474685Y136945D01*
X474750Y136880D01*
X474880Y136815D01*
X475010Y136750D01*
Y136685D01*
X475075Y136620D01*
X475140Y136490D01*
Y136425D01*
Y136360D01*
X475205Y136295D01*
X475270Y136100D01*
Y136035D01*
Y135970D01*
X475335Y135710D01*
X475400Y135645D01*
Y135320D01*
Y131810D01*
X474490D01*
Y135450D01*
Y135515D01*
Y135645D01*
X474360Y135905D01*
X474230Y136230D01*
X474165Y136295D01*
X473905Y136360D01*
X473645Y136425D01*
X473320Y136490D01*
X473060D01*
X472800Y136425D01*
X472670Y136360D01*
X472605Y136295D01*
X472475Y136230D01*
X472280Y136100D01*
X472150Y135970D01*
X472085Y135905D01*
X472020Y135840D01*
X471955Y135645D01*
X471890Y135450D01*
X471825Y135320D01*
X471760Y135125D01*
Y134800D01*
Y131810D01*
X470850Y131810D01*
Y137140D01*
X471760Y137140D01*
Y136295D01*
X471890Y136425D01*
X472150Y136750D01*
X472670Y137140D01*
X473060Y137205D01*
X473450Y137270D01*
X473840D01*
X474100Y137205D01*
D02*
G37*
G36*
X430550Y137205D02*
X430810Y137140D01*
X430875Y137075D01*
X431070Y137010D01*
X431330Y136880D01*
X431460Y136750D01*
X431525Y136685D01*
X431590Y136490D01*
X431655Y136230D01*
X431720Y136100D01*
Y136035D01*
Y135970D01*
X431785Y135710D01*
X431850Y135645D01*
Y135320D01*
Y131810D01*
X430940D01*
Y135450D01*
Y135515D01*
Y135645D01*
X430810Y135905D01*
X430680Y136230D01*
X430615Y136295D01*
X430420Y136360D01*
X430160Y136425D01*
X429900Y136490D01*
X429640D01*
X429380Y136425D01*
X429120Y136360D01*
X429055Y136295D01*
X428860Y136230D01*
X428795D01*
X428730Y136100D01*
X428600Y135970D01*
Y135905D01*
X428470Y135775D01*
X428340Y135450D01*
Y135385D01*
X428275Y135190D01*
Y135125D01*
X428210Y134800D01*
Y131810D01*
X427300D01*
Y137140D01*
X428210D01*
Y136295D01*
X428340Y136425D01*
X428600Y136750D01*
X429120Y137140D01*
X429510Y137205D01*
X429900Y137270D01*
X430290D01*
X430550Y137205D01*
D02*
G37*
G36*
X412480Y137205D02*
X412740Y137140D01*
X412805D01*
X412935Y137075D01*
X413260Y136750D01*
X413325Y136685D01*
X413390Y136620D01*
X413455Y136490D01*
X413520Y136425D01*
Y136360D01*
X413585Y136295D01*
X413650Y136100D01*
Y135320D01*
Y131810D01*
X412870D01*
Y135450D01*
Y135515D01*
X412805Y135710D01*
X412740Y135970D01*
X412480Y136230D01*
X412415Y136295D01*
X412285Y136360D01*
X412025Y136425D01*
X411700Y136490D01*
X411440D01*
X411180Y136425D01*
X411050Y136360D01*
X410985Y136295D01*
X410855Y136230D01*
X410660Y136100D01*
X410530Y135970D01*
X410465Y135905D01*
X410400Y135840D01*
X410335Y135645D01*
X410270Y135450D01*
X410205Y135320D01*
X410140Y135125D01*
Y134800D01*
Y131810D01*
X409230D01*
Y137140D01*
X410140D01*
Y136295D01*
X410270Y136425D01*
X410530Y136750D01*
X411050Y137140D01*
X411440Y137205D01*
X411830Y137270D01*
X412220D01*
X412480Y137205D01*
D02*
G37*
G36*
X421060Y136360D02*
X420930D01*
X420605Y136295D01*
X420475D01*
X420150Y136230D01*
X420085Y136165D01*
X419890Y136035D01*
X419825Y135970D01*
X419760Y135905D01*
X419630Y135710D01*
X419565Y135580D01*
X419435Y135385D01*
X419240Y135060D01*
Y134995D01*
Y134930D01*
X419175Y134605D01*
Y134475D01*
X419110Y134150D01*
Y131810D01*
X418330D01*
Y137140D01*
X419110D01*
Y135970D01*
X419175Y136035D01*
X419305Y136295D01*
X419565Y136620D01*
X419890Y137010D01*
X419955D01*
X420020Y137075D01*
X420345Y137140D01*
X420735Y137205D01*
X421060Y137270D01*
Y136360D01*
D02*
G37*
G36*
X485020Y137205D02*
X485280Y137140D01*
X485540D01*
X485735Y137010D01*
X485930Y136880D01*
X485995D01*
X486125Y136750D01*
X486320Y136620D01*
X486450Y136360D01*
X486515Y136230D01*
X486580Y135970D01*
Y135580D01*
X485800D01*
X485735Y135710D01*
X485670Y135970D01*
X485605Y136035D01*
X485540Y136100D01*
X485410Y136165D01*
X485280Y136230D01*
X485215Y136295D01*
X485085Y136360D01*
X485020D01*
X484890Y136490D01*
X484045D01*
X483915Y136425D01*
X483850D01*
X483720Y136360D01*
X483590D01*
X483525Y136230D01*
X483460Y136100D01*
X483395D01*
X483330Y135970D01*
Y135840D01*
Y135775D01*
X483395Y135645D01*
X483460Y135580D01*
Y135450D01*
X483525Y135385D01*
X483655Y135320D01*
X483785Y135255D01*
X483980Y135190D01*
X484110Y135125D01*
X484240Y135060D01*
X484500D01*
X484630Y134995D01*
X484825Y134930D01*
X485150D01*
X485215Y134865D01*
X485410Y134800D01*
X485540D01*
X485800Y134670D01*
X485995D01*
X486125Y134540D01*
X486320Y134410D01*
X486710Y134020D01*
Y133955D01*
X486775Y133825D01*
X486840Y133630D01*
Y133370D01*
Y133240D01*
Y133045D01*
X486775Y132785D01*
X486710Y132590D01*
Y132525D01*
X486645Y132460D01*
X486580Y132330D01*
X486450Y132265D01*
X486385Y132200D01*
X486190Y132070D01*
X485410Y131680D01*
X484305D01*
X483980Y131745D01*
X483720Y131810D01*
X483655D01*
X483525Y131875D01*
X483265Y131940D01*
X483070Y132070D01*
X483005D01*
X482875Y132200D01*
X482680Y132330D01*
X482550Y132590D01*
X482485Y132655D01*
X482420Y132915D01*
X482355Y133175D01*
X482290Y133500D01*
X483200D01*
Y133435D01*
Y133305D01*
X483265Y133110D01*
X483330Y132980D01*
X483395Y132915D01*
X483460Y132785D01*
Y132720D01*
X483590Y132590D01*
X483655D01*
X483850Y132525D01*
X483915D01*
X484110Y132460D01*
X485215D01*
X485410Y132525D01*
X485540Y132590D01*
X485605Y132655D01*
X485670Y132720D01*
X485800Y132850D01*
X485865Y132980D01*
X485930Y133240D01*
Y133305D01*
Y133435D01*
X485800Y133565D01*
X485670Y133760D01*
X485605Y133825D01*
X485475Y133890D01*
X485280Y133955D01*
X485020Y134020D01*
X484955D01*
X484890Y134085D01*
X484565Y134150D01*
X484435D01*
X484110Y134280D01*
X484045D01*
X483915Y134345D01*
X483655Y134410D01*
X483330Y134540D01*
X483265D01*
X483135Y134605D01*
X482940Y134735D01*
X482680Y134930D01*
X482615Y134995D01*
X482550Y135255D01*
X482485Y135450D01*
X482420Y135710D01*
Y135775D01*
Y136035D01*
X482485Y136230D01*
X482550Y136490D01*
X482615Y136555D01*
X482745Y136620D01*
X483070Y136880D01*
X483135Y136945D01*
X483265Y137010D01*
X483460Y137075D01*
X483720Y137140D01*
X483785D01*
X483915Y137205D01*
X484110Y137270D01*
X484760D01*
X485020Y137205D01*
D02*
G37*
G36*
X469550Y131810D02*
X468640D01*
Y137140D01*
X469550D01*
Y131810D01*
D02*
G37*
G36*
X463700Y136360D02*
X463765Y136425D01*
X463830Y136555D01*
Y136620D01*
X463960Y136750D01*
X464025Y136815D01*
X464155Y136880D01*
X464285Y136945D01*
X464480Y137010D01*
X464545Y137075D01*
X464675Y137140D01*
X464740D01*
X464870Y137270D01*
X465780D01*
X466040Y137205D01*
X466300Y137140D01*
X466365D01*
X466495Y137075D01*
X466820Y136750D01*
Y136685D01*
X466885Y136620D01*
X466950Y136490D01*
X467015Y136425D01*
X467080Y136360D01*
X467145Y136295D01*
X467210Y136100D01*
Y135320D01*
Y131810D01*
X466430D01*
Y135450D01*
Y135515D01*
X466365Y135710D01*
X466300Y135970D01*
X466040Y136230D01*
X465975Y136295D01*
X465845Y136360D01*
X465585Y136425D01*
X465260Y136490D01*
X465000D01*
X464740Y136425D01*
X464610Y136360D01*
X464545Y136295D01*
X464415Y136230D01*
X464220Y136100D01*
X464090Y135970D01*
X464025Y135905D01*
X463960Y135840D01*
X463895Y135645D01*
X463830Y135450D01*
X463765Y135320D01*
X463700Y135125D01*
Y134800D01*
Y131810D01*
X462790D01*
Y139220D01*
X463700D01*
Y136360D01*
D02*
G37*
G36*
X462140Y138310D02*
X459670D01*
Y131810D01*
X458630D01*
Y138310D01*
X456160D01*
Y139220D01*
X462140D01*
Y138310D01*
D02*
G37*
G36*
X453300Y138440D02*
X452585D01*
X452390Y138375D01*
X452260Y138310D01*
X452195Y138245D01*
X452130Y138180D01*
Y137920D01*
Y137140D01*
X453170D01*
Y136360D01*
X452130D01*
Y131810D01*
X451220D01*
Y136360D01*
X450310D01*
Y137140D01*
X451220D01*
Y137920D01*
Y138050D01*
X451285Y138310D01*
X451415Y138635D01*
X451610Y138960D01*
X451675Y139025D01*
X451870Y139090D01*
X452195Y139155D01*
X452780Y139220D01*
X453300D01*
Y138440D01*
D02*
G37*
G36*
X439910Y137140D02*
X441080D01*
Y136360D01*
X439910D01*
Y132980D01*
Y132915D01*
X440040Y132720D01*
Y132590D01*
X441080D01*
Y131810D01*
X439715D01*
X439585Y131875D01*
X439520Y131940D01*
X439390D01*
X439325Y132005D01*
X439260Y132070D01*
X439195Y132200D01*
X439130Y132330D01*
Y132980D01*
Y136360D01*
X438220D01*
Y137140D01*
X439130D01*
Y138700D01*
X439910D01*
Y137140D01*
D02*
G37*
G36*
X416250D02*
X417290D01*
Y136360D01*
X416250D01*
Y132980D01*
Y132720D01*
X416315D01*
X416380Y132590D01*
X417290D01*
Y131810D01*
X415860D01*
X415795Y131875D01*
X415730Y131940D01*
X415665Y132005D01*
X415600Y132070D01*
X415535Y132200D01*
X415470Y132330D01*
Y132395D01*
X415405Y132590D01*
Y132720D01*
X415340Y132980D01*
Y136360D01*
X414430D01*
Y137140D01*
X415340D01*
Y138700D01*
X416250D01*
Y137140D01*
D02*
G37*
G36*
X407800Y131810D02*
X406760D01*
Y139220D01*
X407800D01*
Y131810D01*
D02*
G37*
G36*
X393240Y136360D02*
X393305Y136490D01*
X393370Y136555D01*
X393500Y136750D01*
X393565Y136815D01*
X393630Y136880D01*
X393760Y136945D01*
X393890Y137010D01*
X393955Y137075D01*
X394150Y137140D01*
X394215D01*
X394410Y137270D01*
X395320D01*
X395580Y137205D01*
X395840Y137140D01*
X395905Y137075D01*
X396100Y136945D01*
X396165Y136880D01*
X396360Y136750D01*
X396425Y136685D01*
X396490Y136490D01*
X396555Y136230D01*
X396620Y136100D01*
Y136035D01*
X396685Y135905D01*
X396750Y135645D01*
Y135320D01*
Y131810D01*
X395840D01*
Y135450D01*
Y135515D01*
Y135775D01*
X395710Y135970D01*
X395580Y136230D01*
X395515Y136295D01*
X395385Y136360D01*
X395125Y136425D01*
X394800Y136490D01*
X394540D01*
X394280Y136425D01*
X394020Y136360D01*
X393955Y136295D01*
X393825Y136230D01*
X393760D01*
X393695Y136100D01*
X393630Y135970D01*
X393565Y135905D01*
X393500Y135840D01*
X393240Y135450D01*
Y134800D01*
Y131810D01*
X392330D01*
Y139220D01*
X393240D01*
Y136360D01*
D02*
G37*
G36*
X391680Y138310D02*
X389210D01*
Y131810D01*
X388170D01*
Y138310D01*
X385700D01*
Y139220D01*
X391680D01*
Y138310D01*
D02*
G37*
G36*
X447840Y137140D02*
X448360Y137010D01*
X448425Y136945D01*
X448685Y136880D01*
X448880Y136685D01*
X449140Y136490D01*
X449205Y136425D01*
X449270Y136360D01*
X449400Y136165D01*
X449465Y136035D01*
X449530Y135905D01*
X449660Y135580D01*
Y135515D01*
X449725Y135320D01*
X449790Y134930D01*
Y134410D01*
Y134280D01*
Y134020D01*
X449725Y133630D01*
X449660Y133370D01*
Y133240D01*
X449530Y133045D01*
X449400Y132720D01*
X449140Y132460D01*
X449075Y132395D01*
X449010Y132330D01*
X448880Y132200D01*
X448750Y132135D01*
X448685Y132070D01*
X448555Y132005D01*
X448360Y131810D01*
X448295D01*
X448100Y131745D01*
X447710Y131680D01*
X446800D01*
X446410Y131745D01*
X446150Y131810D01*
X446085Y131875D01*
X446020Y131940D01*
X445825Y132070D01*
X445695Y132135D01*
X445565Y132200D01*
X445435Y132330D01*
X445240Y132460D01*
Y132525D01*
X445175Y132590D01*
X444980Y132915D01*
Y132980D01*
X444915Y133045D01*
X444720Y133370D01*
Y133435D01*
Y133565D01*
X444655Y133890D01*
Y133955D01*
Y134085D01*
X444590Y134410D01*
Y134475D01*
Y134605D01*
X444655Y134995D01*
Y135060D01*
X444720Y135190D01*
Y135580D01*
Y135645D01*
X444785Y135710D01*
X444980Y136035D01*
Y136100D01*
X445045Y136165D01*
X445240Y136490D01*
X445305Y136555D01*
X445500Y136685D01*
X445760Y136815D01*
X446150Y137010D01*
X446215Y137075D01*
X446475Y137140D01*
X446800Y137205D01*
X447190Y137270D01*
X447515D01*
X447840Y137140D01*
D02*
G37*
G36*
X436140D02*
X436530Y137010D01*
X436660Y136945D01*
X436855Y136750D01*
X437115Y136490D01*
X437310Y136230D01*
X437375Y136165D01*
X437505Y135970D01*
X437635Y135645D01*
X437700Y135190D01*
Y135125D01*
X437765Y134930D01*
X437830Y134605D01*
Y134150D01*
X433800D01*
Y134085D01*
Y133955D01*
X433930Y133500D01*
Y133435D01*
X433995Y133370D01*
X434060Y133175D01*
X434190Y132980D01*
X434255Y132915D01*
X434385Y132850D01*
X434710Y132590D01*
X434775D01*
X434905Y132525D01*
X435165Y132460D01*
X435620D01*
X435880Y132525D01*
X436140Y132590D01*
X436400Y132720D01*
X436465Y132785D01*
X436595Y132850D01*
X436725Y133110D01*
X436920Y133500D01*
X437700D01*
Y133435D01*
Y133370D01*
X437570Y133045D01*
X437310Y132590D01*
X436920Y132070D01*
X436855Y132005D01*
X436530Y131875D01*
X436075Y131745D01*
X435490Y131680D01*
X435035D01*
X434645Y131745D01*
X434320Y131810D01*
X434190Y131875D01*
X433995Y132005D01*
X433735Y132200D01*
X433540Y132460D01*
X433475Y132525D01*
X433410Y132655D01*
X433215Y132980D01*
X433020Y133370D01*
Y133435D01*
X432955Y133630D01*
X432890Y133955D01*
Y134540D01*
Y134605D01*
Y134670D01*
Y134995D01*
X432955Y135320D01*
X433020Y135580D01*
X433085Y135645D01*
X433215Y135905D01*
X433345Y136165D01*
X433540Y136490D01*
X433605Y136555D01*
X433735Y136685D01*
X433995Y136815D01*
X434320Y137010D01*
X434385D01*
X434450Y137075D01*
X434775Y137140D01*
X435100Y137205D01*
X435360Y137270D01*
X435750D01*
X436140Y137140D01*
D02*
G37*
G36*
X424830Y137205D02*
X424960Y137140D01*
X425090D01*
X425220Y137075D01*
X425350Y137010D01*
X425415Y136945D01*
X425610Y136815D01*
X425675Y136750D01*
X425870Y136620D01*
Y136555D01*
Y136490D01*
X425935Y136230D01*
X426000Y136165D01*
Y135840D01*
Y132980D01*
Y132590D01*
X426065Y132525D01*
X426130Y132460D01*
X426520D01*
Y131810D01*
X426390Y131745D01*
X426195Y131680D01*
X425675D01*
X425480Y131745D01*
X425350Y131810D01*
X425285Y131940D01*
X425220Y132135D01*
Y132460D01*
X425155Y132395D01*
X424960Y132265D01*
X424700Y132005D01*
X424310Y131810D01*
X424245D01*
X424115Y131745D01*
X423790Y131680D01*
X422620D01*
X422555Y131745D01*
X422360Y131810D01*
X422100Y131875D01*
X421970Y131940D01*
X421905Y132005D01*
X421775Y132200D01*
X421710Y132265D01*
X421580Y132460D01*
Y132525D01*
X421515Y132720D01*
Y132850D01*
X421450Y133110D01*
Y133175D01*
Y133240D01*
X421515Y133565D01*
Y133630D01*
X421580Y133695D01*
Y133890D01*
Y133955D01*
X421710Y134085D01*
X421840Y134280D01*
X422100Y134410D01*
X422165Y134475D01*
X422295Y134540D01*
X422620Y134670D01*
X422750D01*
X423010Y134735D01*
X423075Y134800D01*
X423400D01*
X423660Y134865D01*
X423790Y134930D01*
X424245D01*
X424440Y134995D01*
X424570Y135060D01*
X424635D01*
X424765Y135125D01*
X424830Y135190D01*
X424960D01*
X425025Y135320D01*
X425090Y135580D01*
Y135645D01*
Y135775D01*
X425025Y135970D01*
X424960Y136100D01*
Y136165D01*
X424830Y136230D01*
X424700Y136360D01*
X424635D01*
X424505Y136425D01*
X424440Y136490D01*
X423660D01*
X423400Y136360D01*
X423010Y136230D01*
X422945Y136165D01*
X422815Y136035D01*
X422685Y135775D01*
X422620Y135450D01*
X421710D01*
Y135515D01*
Y135580D01*
X421775Y135905D01*
Y135970D01*
X421840Y136035D01*
Y136360D01*
X422360Y136880D01*
X422425Y136945D01*
X422685Y137010D01*
X422880Y137075D01*
X423140Y137140D01*
X423205D01*
X423335Y137205D01*
X423595Y137270D01*
X424765D01*
X424830Y137205D01*
D02*
G37*
G36*
X401040Y137140D02*
X401560Y137010D01*
X402340Y136230D01*
Y136165D01*
X402470Y136035D01*
X402535Y135710D01*
X402730Y135190D01*
Y134150D01*
X398700D01*
Y134085D01*
Y133955D01*
X398830Y133500D01*
Y133435D01*
X398895Y133370D01*
X398960Y133175D01*
X399090Y132980D01*
X399155Y132915D01*
X399350Y132785D01*
X399415Y132720D01*
X399610Y132590D01*
X399675D01*
X399805Y132525D01*
X400065Y132460D01*
X400520D01*
X400780Y132525D01*
X401040Y132590D01*
X401300Y132720D01*
X401365Y132785D01*
X401495Y132850D01*
X401625Y133110D01*
X401820Y133500D01*
X402730D01*
Y133435D01*
Y133370D01*
X402600Y133045D01*
X402340Y132590D01*
X401950Y132070D01*
X401885D01*
X401820Y132005D01*
X401495Y131875D01*
X400975Y131745D01*
X400390Y131680D01*
X399935D01*
X399545Y131745D01*
X399220Y131810D01*
X399155D01*
X399025Y131940D01*
X398765Y132135D01*
X398440Y132460D01*
Y132525D01*
X398375Y132590D01*
X398180Y132915D01*
Y132980D01*
X398115Y133045D01*
X397920Y133370D01*
Y133435D01*
Y133565D01*
X397855Y133890D01*
Y133955D01*
Y134085D01*
X397790Y134280D01*
Y134540D01*
Y134605D01*
X397855Y134865D01*
X397920Y135190D01*
X398050Y135580D01*
Y135645D01*
X398115Y135840D01*
X398245Y136100D01*
X398570Y136490D01*
X398635Y136555D01*
X398700Y136685D01*
X398960Y136815D01*
X399350Y137010D01*
X399415Y137075D01*
X399675Y137140D01*
X400000Y137205D01*
X400390Y137270D01*
X400715D01*
X401040Y137140D01*
D02*
G37*
G36*
X479430Y137140D02*
X479820Y137010D01*
X479885Y136945D01*
X480080Y136815D01*
X480275Y136620D01*
X480470Y136360D01*
Y137140D01*
X481250D01*
Y132200D01*
Y132135D01*
Y131940D01*
Y131745D01*
X481185Y131420D01*
X481055Y130770D01*
X480925Y130510D01*
X480730Y130250D01*
X480600Y130120D01*
X480275Y129925D01*
X479625Y129730D01*
X478780Y129600D01*
X478520D01*
X478260Y129665D01*
X478000Y129730D01*
X477870Y129795D01*
X477675Y129860D01*
X477350Y129990D01*
X477285D01*
X477220Y130120D01*
X476830Y130380D01*
X476765Y130445D01*
X476700Y130705D01*
X476635Y130900D01*
X476570Y131160D01*
X477480D01*
Y131095D01*
Y131030D01*
X477610Y130770D01*
X477675Y130705D01*
X477740Y130640D01*
X477870Y130575D01*
X478000Y130510D01*
X478130Y130445D01*
X478390Y130380D01*
X478455D01*
X478650Y130315D01*
X478715D01*
X478910Y130250D01*
X478975D01*
X479170Y130315D01*
X479365Y130380D01*
X479560Y130510D01*
X479625D01*
X479755Y130575D01*
X479950Y130705D01*
X480080Y130900D01*
X480145Y130965D01*
X480210Y131095D01*
X480275Y131290D01*
X480340Y131550D01*
Y131615D01*
X480405Y131745D01*
X480470Y132005D01*
Y132330D01*
Y132655D01*
X480340Y132460D01*
X480145Y132200D01*
X479820Y131940D01*
X479690Y131875D01*
X479430Y131810D01*
X479040Y131745D01*
X478780Y131680D01*
X478715D01*
X478455Y131745D01*
X478130Y131810D01*
X477740Y131940D01*
X477675D01*
X477545Y132070D01*
X477285Y132265D01*
X476960Y132590D01*
X476895Y132655D01*
X476765Y132915D01*
Y132980D01*
X476700Y133045D01*
X476570Y133370D01*
Y133435D01*
X476505Y133630D01*
X476440Y133955D01*
Y134410D01*
Y134540D01*
Y134800D01*
X476505Y135125D01*
X476570Y135450D01*
Y135515D01*
X476635Y135775D01*
X476765Y136035D01*
X476960Y136360D01*
X477025Y136425D01*
X477155Y136620D01*
X477415Y136880D01*
X477740Y137010D01*
X477805Y137075D01*
X478065Y137140D01*
X478455Y137205D01*
X478910Y137270D01*
X479170D01*
X479430Y137140D01*
D02*
G37*
%LPC*%
G36*
X464480Y169380D02*
X463700D01*
X463700Y168210D01*
X464480D01*
X464480Y169380D01*
D02*
G37*
G36*
X463180Y171460D02*
X462790D01*
X462530Y171395D01*
X462270Y171135D01*
X462205Y170940D01*
X462140Y170680D01*
Y169380D01*
X461360D01*
X461360Y168210D01*
X462140D01*
X462140Y169380D01*
X463700D01*
Y170680D01*
Y170745D01*
Y170810D01*
X463635Y171070D01*
X463375Y171330D01*
X463180Y171460D01*
D02*
G37*
G36*
X476050Y160540D02*
X475660D01*
X475400Y160475D01*
X474750Y160410D01*
X473970Y160150D01*
X473905D01*
X473840Y160085D01*
X473450Y159890D01*
X472930Y159565D01*
X472410Y159110D01*
Y159045D01*
X472280Y158915D01*
X472020Y158525D01*
X471630Y158005D01*
X471370Y157550D01*
Y157485D01*
X471305Y157420D01*
X471240Y157225D01*
X471175Y156965D01*
X471045Y156315D01*
X470980Y155600D01*
X481120Y155600D01*
Y155665D01*
X481055Y155795D01*
Y156055D01*
X480990Y156315D01*
X480795Y156965D01*
X480600Y157550D01*
Y157615D01*
X480535Y157680D01*
X480340Y158070D01*
X480015Y158590D01*
X479560Y159110D01*
X479430Y159240D01*
X479105Y159500D01*
X478650Y159825D01*
X478000Y160150D01*
X477935D01*
X477870Y160215D01*
X477675Y160280D01*
X477415Y160345D01*
X476765Y160475D01*
X476050Y160540D01*
D02*
G37*
G36*
X420410Y160540D02*
X419955D01*
X419695Y160475D01*
X418980Y160410D01*
X418200Y160150D01*
X418135D01*
X418070Y160085D01*
X417680Y159825D01*
X417095Y159370D01*
X416510Y158850D01*
Y158785D01*
X416380Y158655D01*
X416250Y158460D01*
X416055Y158200D01*
X415665Y157550D01*
X415340Y156770D01*
Y156705D01*
X415275Y156575D01*
X415210Y156250D01*
X415145Y155925D01*
X415080Y155535D01*
X415015Y155015D01*
X414950Y153910D01*
Y153845D01*
Y153650D01*
Y153325D01*
X415015Y152935D01*
X415145Y152025D01*
X415340Y151050D01*
Y150985D01*
X415405Y150855D01*
X415535Y150595D01*
X415665Y150335D01*
X416055Y149620D01*
X416510Y148970D01*
X416575D01*
X416640Y148840D01*
X417030Y148580D01*
X417550Y148125D01*
X418200Y147670D01*
X418265D01*
X418395Y147605D01*
X418590Y147540D01*
X418850Y147475D01*
X419565Y147345D01*
X420410Y147280D01*
X420800D01*
X421125Y147345D01*
X421775Y147475D01*
X422490Y147670D01*
X422555Y147735D01*
X422815Y147865D01*
X423140Y148060D01*
X423465Y148255D01*
X423530Y148320D01*
X423725Y148450D01*
X423985Y148710D01*
X424310Y148970D01*
X424375Y149035D01*
X424505Y149230D01*
X424700Y149490D01*
X424895Y149880D01*
X424960Y149945D01*
X425090Y150205D01*
X425285Y150595D01*
X425480Y151050D01*
Y151115D01*
X425545Y151245D01*
X425610Y151505D01*
X425675Y151830D01*
X425740Y152285D01*
X425805Y152740D01*
X425870Y153910D01*
Y153975D01*
Y154170D01*
Y154495D01*
X425805Y154885D01*
X425740Y155795D01*
X425480Y156770D01*
X425415Y156900D01*
X425285Y157160D01*
X425155Y157485D01*
X424895Y157875D01*
X424830Y157940D01*
X424700Y158200D01*
X424505Y158460D01*
X424310Y158850D01*
X424245Y158915D01*
X424050Y159110D01*
X423790Y159305D01*
X423465Y159565D01*
X423400Y159630D01*
X423205Y159760D01*
X422880Y159955D01*
X422490Y160150D01*
X422425D01*
X422360Y160215D01*
X422165Y160280D01*
X421905Y160345D01*
X421255Y160475D01*
X420410Y160540D01*
D02*
G37*
G36*
X447515Y136490D02*
X446995D01*
X446540Y136360D01*
X446475Y136295D01*
X446280Y136165D01*
X446215Y136100D01*
X446020Y135970D01*
X445955Y135840D01*
X445825Y135645D01*
X445630Y135320D01*
Y135255D01*
Y135190D01*
X445565Y134865D01*
Y134735D01*
X445500Y134410D01*
Y134345D01*
Y134280D01*
X445565Y134020D01*
X445630Y133955D01*
Y133630D01*
X445695Y133565D01*
X445760Y133370D01*
X445890Y133110D01*
X446020Y132980D01*
X446085Y132915D01*
X446215Y132785D01*
X446345Y132655D01*
X446540Y132590D01*
X446605D01*
X446735Y132525D01*
X446930Y132460D01*
X447450D01*
X447710Y132525D01*
X447840Y132590D01*
X447905D01*
X448035Y132655D01*
X448230Y132785D01*
X448360Y132980D01*
X448490Y133110D01*
X448555Y133305D01*
X448750Y133630D01*
Y133695D01*
X448815Y133825D01*
X448880Y134085D01*
Y134410D01*
Y134540D01*
Y134800D01*
X448815Y135060D01*
X448750Y135320D01*
X448685Y135385D01*
X448620Y135580D01*
X448490Y135840D01*
X448360Y135970D01*
X448295Y136035D01*
X448230Y136100D01*
X447840Y136360D01*
X447710Y136425D01*
X447515Y136490D01*
D02*
G37*
G36*
X435620D02*
X435100D01*
X434840Y136425D01*
X434710Y136360D01*
X434645Y136295D01*
X434450Y136230D01*
X434385D01*
X434190Y136100D01*
X434125Y136035D01*
X434060Y135840D01*
Y135775D01*
X433930Y135580D01*
Y135515D01*
X433865Y135385D01*
X433800Y135190D01*
Y134930D01*
X436920D01*
Y134995D01*
Y135060D01*
Y135190D01*
X436855Y135255D01*
Y135320D01*
X436790Y135450D01*
Y135580D01*
X436725Y135645D01*
X436595Y135840D01*
X436530Y135905D01*
X436400Y136100D01*
X436335Y136165D01*
X436205Y136230D01*
X435880Y136360D01*
X435750Y136425D01*
X435620Y136490D01*
D02*
G37*
G36*
X425090Y134540D02*
X425025Y134475D01*
X424700Y134410D01*
X424635D01*
X424505Y134345D01*
X424310Y134280D01*
X423855D01*
X423660Y134215D01*
X423530Y134150D01*
X423335D01*
X423140Y134085D01*
X423010Y134020D01*
X422815D01*
X422685Y133890D01*
X422620Y133760D01*
X422555Y133695D01*
X422490Y133630D01*
X422425Y133435D01*
X422360Y133240D01*
Y133175D01*
X422425Y133045D01*
X422490Y132980D01*
Y132850D01*
X422750Y132590D01*
X422815D01*
X422880Y132525D01*
X423010Y132460D01*
X423725D01*
X423985Y132525D01*
X424180Y132590D01*
X424245D01*
X424375Y132655D01*
X424505Y132720D01*
X424700Y132850D01*
X424765Y132915D01*
X424830Y132980D01*
X424895Y133110D01*
X424960Y133240D01*
X425025Y133370D01*
X425090Y133630D01*
Y134540D01*
D02*
G37*
G36*
X400520Y136490D02*
X400065D01*
X399610Y136360D01*
X399545Y136295D01*
X399415Y136230D01*
X399350D01*
X399220Y136100D01*
X399155Y136035D01*
X399025Y135840D01*
X398960Y135775D01*
X398830Y135580D01*
Y135515D01*
Y135450D01*
Y135320D01*
X398765Y135255D01*
Y135190D01*
X398700Y135125D01*
Y134930D01*
X401820D01*
Y134995D01*
Y135190D01*
X401690Y135580D01*
X401625Y135645D01*
X401560Y135840D01*
Y135905D01*
X401430Y136035D01*
X401300Y136100D01*
X401235Y136165D01*
X401105Y136230D01*
X401040D01*
X400910Y136360D01*
X400845D01*
X400715Y136425D01*
X400520Y136490D01*
D02*
G37*
G36*
X479235Y136490D02*
X478650D01*
X478390Y136425D01*
X478130Y136360D01*
X478065Y136295D01*
X478000Y136230D01*
X477740Y135840D01*
X477675Y135775D01*
X477545Y135580D01*
X477480Y135515D01*
X477350Y135320D01*
Y134540D01*
Y133760D01*
X477415Y133695D01*
X477480Y133500D01*
Y133435D01*
X477610Y133110D01*
X477675Y133045D01*
X477805Y132980D01*
X478130Y132720D01*
X478195Y132655D01*
X478325Y132590D01*
X478520Y132525D01*
X478780Y132460D01*
X478845D01*
X479105Y132525D01*
X479300Y132590D01*
X479560Y132720D01*
X479625D01*
X479755Y132850D01*
X480080Y133110D01*
X480145Y133175D01*
X480210Y133370D01*
X480275Y133630D01*
X480340Y133760D01*
Y133825D01*
X480405Y133955D01*
X480470Y134215D01*
Y134540D01*
Y134605D01*
Y134865D01*
X480405Y135060D01*
X480340Y135320D01*
Y135385D01*
Y135515D01*
X480210Y135645D01*
X480080Y135840D01*
Y135905D01*
X479950Y136035D01*
X479820Y136230D01*
X479560Y136360D01*
X479430Y136425D01*
X479235Y136490D01*
D02*
G37*
%LPD*%
D10*
X455787Y66496D02*
G03*
X455787Y66496I-787J0D01*
G01*
X50157Y79D02*
G03*
X50157Y79I-591J0D01*
G01*
D11*
X252234Y346685D02*
G03*
X252234Y346685I-394J0D01*
G01*
X347079Y325315D02*
G03*
X347079Y325315I-394J0D01*
G01*
Y242000D02*
G03*
X347079Y242000I-394J0D01*
G01*
X230827Y316496D02*
X252284D01*
X237717Y277913D02*
X252284D01*
X136524Y12028D02*
Y207572D01*
X113476Y12028D02*
X136524D01*
X113476D02*
Y207572D01*
X136524D01*
X376524Y12028D02*
Y207572D01*
X353476Y12028D02*
X376524D01*
X353476D02*
Y207572D01*
X376524D01*
D12*
X338464Y298645D02*
G03*
X301536Y298645I-18464J-5645D01*
G01*
Y287355D02*
G03*
X338464Y287355I18464J5645D01*
G01*
X188464Y340645D02*
G03*
X151536Y340645I-18464J-5645D01*
G01*
Y329355D02*
G03*
X188464Y329355I18464J5645D01*
G01*
Y252645D02*
G03*
X151536Y252645I-18464J-5645D01*
G01*
Y241355D02*
G03*
X188464Y241355I18464J5645D01*
G01*
Y296645D02*
G03*
X151536Y296645I-18464J-5645D01*
G01*
Y285355D02*
G03*
X188464Y285355I18464J5645D01*
G01*
X302874Y272724D02*
X342835D01*
X297165Y278433D02*
Y287291D01*
Y298709D02*
Y307567D01*
X302874Y313276D02*
X342835D01*
Y298709D02*
Y313276D01*
Y272724D02*
Y287291D01*
X297165Y278433D02*
X302874Y272724D01*
X297165Y307567D02*
X302874Y313276D01*
X152874Y314724D02*
X192835D01*
X147165Y320433D02*
Y329291D01*
Y340709D02*
Y349567D01*
X152874Y355276D02*
X192835D01*
Y340709D02*
Y355276D01*
Y314724D02*
Y329291D01*
X147165Y320433D02*
X152874Y314724D01*
X147165Y349567D02*
X152874Y355276D01*
Y226724D02*
X192835D01*
X147165Y232433D02*
Y241291D01*
Y252709D02*
Y261567D01*
X152874Y267276D02*
X192835D01*
Y252709D02*
Y267276D01*
Y226724D02*
Y241291D01*
X147165Y232433D02*
X152874Y226724D01*
X147165Y261567D02*
X152874Y267276D01*
Y270724D02*
X192835D01*
X147165Y276433D02*
Y285291D01*
Y296709D02*
Y305567D01*
X152874Y311276D02*
X192835D01*
Y296709D02*
Y311276D01*
Y270724D02*
Y285291D01*
X147165Y276433D02*
X152874Y270724D01*
X147165Y305567D02*
X152874Y311276D01*
X384273Y297914D02*
X383566Y298621D01*
X383919Y298267D01*
X382152Y296500D01*
X381445D01*
X381092Y296853D01*
Y297560D01*
X383212Y294733D02*
X383919Y294026D01*
X384626Y294026D01*
X385333Y294733D01*
Y295440D01*
X384626Y296147D01*
X383919Y296147D01*
X383212Y295440D01*
Y294733D01*
X384980Y292966D02*
X386393Y294379D01*
X387454Y293319D01*
Y292612D01*
X386393Y291552D01*
X388867Y291905D02*
X389574Y291198D01*
Y290492D01*
X388514Y289431D01*
X387454Y290492D01*
Y291198D01*
X388160D01*
X389221Y290138D01*
Y288724D02*
X390281Y287664D01*
X390988Y287664D01*
X390988Y288371D01*
X390281Y289078D01*
Y289785D01*
X390988D01*
X392048Y288724D01*
X396643Y284837D02*
X396643Y285543D01*
X395936Y286250D01*
X395229D01*
X393815Y284837D01*
Y284130D01*
X394522Y283423D01*
X395229Y283423D01*
X395936Y282009D02*
X396643Y281302D01*
X397350Y281302D01*
X398057Y282009D01*
Y282716D01*
X397350Y283423D01*
X396643Y283423D01*
X395936Y282716D01*
Y282009D01*
X398057Y279888D02*
X398764Y279182D01*
X399470Y279182D01*
X400177Y279888D01*
Y280595D01*
X399470Y281302D01*
X398764Y281302D01*
X398057Y280595D01*
Y279888D01*
X399117Y277414D02*
X401238Y279535D01*
X402298Y278475D01*
Y277768D01*
X401591Y277061D01*
X400884Y277061D01*
X399824Y278121D01*
X403005Y274940D02*
X402298Y275647D01*
Y276354D01*
X403005Y277061D01*
X403712Y277061D01*
X404419Y276354D01*
Y275647D01*
X404065Y275294D01*
X402652Y276707D01*
X405479Y275294D02*
X404065Y273880D01*
X404772Y274587D01*
X405479D01*
X406186Y274587D01*
X406539Y274233D01*
X409367Y270699D02*
X410781Y269285D01*
X416082Y266104D02*
X414668Y267518D01*
X412548Y265397D01*
X413962Y263984D01*
X413608Y266458D02*
X414315Y265751D01*
X416789Y264690D02*
X416436Y264337D01*
X416082Y264690D01*
X416789Y263984D01*
X416436Y264337D01*
X415375Y263277D01*
Y262570D01*
X418556Y263630D02*
X416436Y261509D01*
X417496Y262570D01*
X418203Y262570D01*
X418910Y261863D01*
Y261156D01*
X417849Y260096D01*
X420323Y260449D02*
X421030Y259742D01*
Y259035D01*
X419970Y257975D01*
X418910Y259035D01*
Y259742D01*
X419617D01*
X420677Y258682D01*
Y257268D02*
X422091Y258682D01*
X423151Y257622D01*
Y256915D01*
X422091Y255855D01*
X424918Y253027D02*
X427039Y255148D01*
X428099Y254087D01*
X428099Y253380D01*
X427392Y252674D01*
X426685D01*
X425625Y253734D01*
X426332Y253027D02*
Y251613D01*
X428806Y251967D02*
X429513Y251260D01*
Y250553D01*
X428452Y249493D01*
X427392Y250553D01*
Y251260D01*
X428099D01*
X429159Y250200D01*
X432694Y249493D02*
X430573Y247372D01*
X429513Y248432D01*
Y249139D01*
X430220Y249846D01*
X430927Y249846D01*
X431987Y248786D01*
X433047Y247725D02*
X433754Y247019D01*
Y246312D01*
X432694Y245251D01*
X431634Y246312D01*
Y247019D01*
X432340D01*
X433401Y245958D01*
X435521Y245958D02*
X435168Y245605D01*
X434814Y245958D01*
X435521Y245251D01*
X435168Y245605D01*
X434108Y244545D01*
Y243838D01*
X436582Y244191D02*
X437995Y242777D01*
X435168D01*
X436582Y241364D01*
X272300Y51100D02*
Y54099D01*
X273799D01*
X274299Y53599D01*
Y52600D01*
X273799Y52100D01*
X272300D01*
X273300D02*
X274299Y51100D01*
X277298D02*
X275299D01*
X277298Y53099D01*
Y53599D01*
X276799Y54099D01*
X275799D01*
X275299Y53599D01*
X278298D02*
X278798Y54099D01*
X279798D01*
X280297Y53599D01*
Y51600D01*
X279798Y51100D01*
X278798D01*
X278298Y51600D01*
Y53599D01*
X252300Y51100D02*
Y54099D01*
X253800D01*
X254299Y53599D01*
Y52600D01*
X253800Y52100D01*
X252300D01*
X253300D02*
X254299Y51100D01*
X255299D02*
X256299D01*
X255799D01*
Y54099D01*
X255299Y53599D01*
X257798Y51600D02*
X258298Y51100D01*
X259298D01*
X259798Y51600D01*
Y53599D01*
X259298Y54099D01*
X258298D01*
X257798Y53599D01*
Y53099D01*
X258298Y52600D01*
X259798D01*
X232300Y51100D02*
Y54099D01*
X233800D01*
X234299Y53599D01*
Y52600D01*
X233800Y52100D01*
X232300D01*
X233300D02*
X234299Y51100D01*
X235299D02*
X236299D01*
X235799D01*
Y54099D01*
X235299Y53599D01*
X237798D02*
X238298Y54099D01*
X239298D01*
X239798Y53599D01*
Y53099D01*
X239298Y52600D01*
X239798Y52100D01*
Y51600D01*
X239298Y51100D01*
X238298D01*
X237798Y51600D01*
Y52100D01*
X238298Y52600D01*
X237798Y53099D01*
Y53599D01*
X238298Y52600D02*
X239298D01*
X212300Y51100D02*
Y54099D01*
X213800D01*
X214299Y53599D01*
Y52600D01*
X213800Y52100D01*
X212300D01*
X213300D02*
X214299Y51100D01*
X215299D02*
X216299D01*
X215799D01*
Y54099D01*
X215299Y53599D01*
X217798Y54099D02*
X219798D01*
Y53599D01*
X217798Y51600D01*
Y51100D01*
X212451Y348301D02*
Y351300D01*
X213951D01*
X214451Y350800D01*
Y349800D01*
X213951Y349300D01*
X212451D01*
X213451D02*
X214451Y348301D01*
X215450D02*
X216450D01*
X215950D01*
Y351300D01*
X215450Y350800D01*
X219949Y351300D02*
X218949Y350800D01*
X217949Y349800D01*
Y348800D01*
X218449Y348301D01*
X219449D01*
X219949Y348800D01*
Y349300D01*
X219449Y349800D01*
X217949D01*
X242801Y224400D02*
Y227399D01*
X244300D01*
X244800Y226900D01*
Y225900D01*
X244300Y225400D01*
X242801D01*
X243800D02*
X244800Y224400D01*
X245800Y227399D02*
X247799D01*
Y226900D01*
X245800Y224900D01*
Y224400D01*
X124800Y251300D02*
Y254299D01*
X126300D01*
X126799Y253799D01*
Y252800D01*
X126300Y252300D01*
X124800D01*
X125800D02*
X126799Y251300D01*
X127799D02*
X128799D01*
X128299D01*
Y254299D01*
X127799Y253799D01*
X260000Y337200D02*
Y339200D01*
X259500Y339700D01*
X258501D01*
X258001Y339200D01*
Y337200D01*
X258501Y336701D01*
X259500D01*
X259000Y337700D02*
X260000Y336701D01*
X259500D02*
X260000Y337200D01*
X262499Y336701D02*
Y339700D01*
X261000Y338200D01*
X262999D01*
X257870Y247630D02*
Y249630D01*
X257370Y250129D01*
X256371D01*
X255871Y249630D01*
Y247630D01*
X256371Y247130D01*
X257370D01*
X256871Y248130D02*
X257870Y247130D01*
X257370D02*
X257870Y247630D01*
X258870Y249630D02*
X259370Y250129D01*
X260369D01*
X260869Y249630D01*
Y249130D01*
X260369Y248630D01*
X259870D01*
X260369D01*
X260869Y248130D01*
Y247630D01*
X260369Y247130D01*
X259370D01*
X258870Y247630D01*
X234400Y247300D02*
Y249300D01*
X233900Y249799D01*
X232901D01*
X232401Y249300D01*
Y247300D01*
X232901Y246800D01*
X233900D01*
X233401Y247800D02*
X234400Y246800D01*
X233900D02*
X234400Y247300D01*
X237399Y246800D02*
X235400D01*
X237399Y248800D01*
Y249300D01*
X236899Y249799D01*
X235900D01*
X235400Y249300D01*
X230100Y337100D02*
Y339100D01*
X229600Y339599D01*
X228601D01*
X228101Y339100D01*
Y337100D01*
X228601Y336600D01*
X229600D01*
X229100Y337600D02*
X230100Y336600D01*
X229600D02*
X230100Y337100D01*
X231100Y336600D02*
X232099D01*
X231599D01*
Y339599D01*
X231100Y339100D01*
X287001Y312800D02*
Y309801D01*
X289000D01*
X291499D02*
Y312800D01*
X290000Y311300D01*
X291999D01*
X261001Y266199D02*
Y263200D01*
X263000D01*
X264000Y265700D02*
X264500Y266199D01*
X265499D01*
X265999Y265700D01*
Y265200D01*
X265499Y264700D01*
X265000D01*
X265499D01*
X265999Y264200D01*
Y263700D01*
X265499Y263200D01*
X264500D01*
X264000Y263700D01*
X212201Y272600D02*
Y269601D01*
X214200D01*
X217199D02*
X215200D01*
X217199Y271600D01*
Y272100D01*
X216699Y272600D01*
X215700D01*
X215200Y272100D01*
X212801Y318199D02*
Y315200D01*
X214800D01*
X215800D02*
X216799D01*
X216300D01*
Y318199D01*
X215800Y317700D01*
X256301Y355800D02*
X255801Y356299D01*
X254801D01*
X254301Y355800D01*
Y353800D01*
X254801Y353300D01*
X255801D01*
X256301Y353800D01*
X259300Y353300D02*
X257300D01*
X259300Y355300D01*
Y355800D01*
X258800Y356299D01*
X257800D01*
X257300Y355800D01*
X260299D02*
X260799Y356299D01*
X261799D01*
X262299Y355800D01*
Y355300D01*
X261799Y354800D01*
X262299Y354300D01*
Y353800D01*
X261799Y353300D01*
X260799D01*
X260299Y353800D01*
Y354300D01*
X260799Y354800D01*
X260299Y355300D01*
Y355800D01*
X260799Y354800D02*
X261799D01*
X225600Y266601D02*
X225100Y266101D01*
Y265101D01*
X225600Y264601D01*
X227600D01*
X228099Y265101D01*
Y266101D01*
X227600Y266601D01*
X228099Y269600D02*
Y267600D01*
X226100Y269600D01*
X225600D01*
X225100Y269100D01*
Y268100D01*
X225600Y267600D01*
X225100Y270599D02*
Y272599D01*
X225600D01*
X227600Y270599D01*
X228099D01*
X244700Y266830D02*
X244200Y266330D01*
Y265330D01*
X244700Y264830D01*
X246700D01*
X247200Y265330D01*
Y266330D01*
X246700Y266830D01*
X247200Y269829D02*
Y267829D01*
X245200Y269829D01*
X244700D01*
X244200Y269329D01*
Y268329D01*
X244700Y267829D01*
X244200Y272828D02*
X244700Y271828D01*
X245700Y270829D01*
X246700D01*
X247200Y271328D01*
Y272328D01*
X246700Y272828D01*
X246200D01*
X245700Y272328D01*
Y270829D01*
X259400Y275301D02*
X258900Y274801D01*
Y273801D01*
X259400Y273301D01*
X261400D01*
X261899Y273801D01*
Y274801D01*
X261400Y275301D01*
X261899Y278300D02*
Y276300D01*
X259900Y278300D01*
X259400D01*
X258900Y277800D01*
Y276800D01*
X259400Y276300D01*
X258900Y281299D02*
Y279299D01*
X260400D01*
X259900Y280299D01*
Y280799D01*
X260400Y281299D01*
X261400D01*
X261899Y280799D01*
Y279799D01*
X261400Y279299D01*
X267201Y293300D02*
X266701Y293799D01*
X265701D01*
X265201Y293300D01*
Y291300D01*
X265701Y290800D01*
X266701D01*
X267201Y291300D01*
X270200Y290800D02*
X268200D01*
X270200Y292800D01*
Y293300D01*
X269700Y293799D01*
X268700D01*
X268200Y293300D01*
X272699Y290800D02*
Y293799D01*
X271199Y292300D01*
X273199D01*
X198800Y223401D02*
X198301Y222901D01*
Y221901D01*
X198800Y221401D01*
X200800D01*
X201300Y221901D01*
Y222901D01*
X200800Y223401D01*
X201300Y226400D02*
Y224400D01*
X199300Y226400D01*
X198800D01*
X198301Y225900D01*
Y224900D01*
X198800Y224400D01*
Y227399D02*
X198301Y227899D01*
Y228899D01*
X198800Y229399D01*
X199300D01*
X199800Y228899D01*
Y228399D01*
Y228899D01*
X200300Y229399D01*
X200800D01*
X201300Y228899D01*
Y227899D01*
X200800Y227399D01*
X142401Y229100D02*
X141901Y229599D01*
X140901D01*
X140401Y229100D01*
Y227100D01*
X140901Y226601D01*
X141901D01*
X142401Y227100D01*
X145400Y226601D02*
X143400D01*
X145400Y228600D01*
Y229100D01*
X144900Y229599D01*
X143900D01*
X143400Y229100D01*
X148399Y226601D02*
X146399D01*
X148399Y228600D01*
Y229100D01*
X147899Y229599D01*
X146899D01*
X146399Y229100D01*
X197900Y272001D02*
X197400Y271501D01*
Y270501D01*
X197900Y270001D01*
X199900D01*
X200399Y270501D01*
Y271501D01*
X199900Y272001D01*
X200399Y274999D02*
Y273000D01*
X198400Y274999D01*
X197900D01*
X197400Y274500D01*
Y273500D01*
X197900Y273000D01*
X200399Y275999D02*
Y276999D01*
Y276499D01*
X197400D01*
X197900Y275999D01*
X287001Y320200D02*
X286501Y320700D01*
X285501D01*
X285001Y320200D01*
Y318200D01*
X285501Y317701D01*
X286501D01*
X287001Y318200D01*
X290000Y317701D02*
X288000D01*
X290000Y319700D01*
Y320200D01*
X289500Y320700D01*
X288500D01*
X288000Y320200D01*
X290999D02*
X291499Y320700D01*
X292499D01*
X292999Y320200D01*
Y318200D01*
X292499Y317701D01*
X291499D01*
X290999Y318200D01*
Y320200D01*
X283251Y299000D02*
X282751Y299500D01*
X281751D01*
X281251Y299000D01*
Y297000D01*
X281751Y296500D01*
X282751D01*
X283251Y297000D01*
X284250Y296500D02*
X285250D01*
X284750D01*
Y299500D01*
X284250Y299000D01*
X286749Y297000D02*
X287249Y296500D01*
X288249D01*
X288749Y297000D01*
Y299000D01*
X288249Y299500D01*
X287249D01*
X286749Y299000D01*
Y298500D01*
X287249Y298000D01*
X288749D01*
X276751Y275800D02*
X276251Y276300D01*
X275251D01*
X274751Y275800D01*
Y273800D01*
X275251Y273301D01*
X276251D01*
X276751Y273800D01*
X277750Y273301D02*
X278750D01*
X278250D01*
Y276300D01*
X277750Y275800D01*
X280249D02*
X280749Y276300D01*
X281749D01*
X282249Y275800D01*
Y275300D01*
X281749Y274800D01*
X282249Y274300D01*
Y273800D01*
X281749Y273301D01*
X280749D01*
X280249Y273800D01*
Y274300D01*
X280749Y274800D01*
X280249Y275300D01*
Y275800D01*
X280749Y274800D02*
X281749D01*
X212151Y283900D02*
X211651Y284400D01*
X210651D01*
X210151Y283900D01*
Y281900D01*
X210651Y281400D01*
X211651D01*
X212151Y281900D01*
X213150Y281400D02*
X214150D01*
X213650D01*
Y284400D01*
X213150Y283900D01*
X215649Y284400D02*
X217649D01*
Y283900D01*
X215649Y281900D01*
Y281400D01*
X209500Y296051D02*
X209000Y295551D01*
Y294551D01*
X209500Y294051D01*
X211500D01*
X212000Y294551D01*
Y295551D01*
X211500Y296051D01*
X212000Y297050D02*
Y298050D01*
Y297550D01*
X209000D01*
X209500Y297050D01*
X209000Y301549D02*
X209500Y300549D01*
X210500Y299549D01*
X211500D01*
X212000Y300049D01*
Y301049D01*
X211500Y301549D01*
X211000D01*
X210500Y301049D01*
Y299549D01*
X201600Y338051D02*
X201100Y337551D01*
Y336551D01*
X201600Y336051D01*
X203600D01*
X204099Y336551D01*
Y337551D01*
X203600Y338051D01*
X204099Y339050D02*
Y340050D01*
Y339550D01*
X201100D01*
X201600Y339050D01*
X201100Y343549D02*
Y341549D01*
X202600D01*
X202100Y342549D01*
Y343049D01*
X202600Y343549D01*
X203600D01*
X204099Y343049D01*
Y342049D01*
X203600Y341549D01*
X144051Y316900D02*
X143551Y317400D01*
X142551D01*
X142051Y316900D01*
Y314900D01*
X142551Y314401D01*
X143551D01*
X144051Y314900D01*
X145050Y314401D02*
X146050D01*
X145550D01*
Y317400D01*
X145050Y316900D01*
X149049Y314401D02*
Y317400D01*
X147549Y315900D01*
X149549D01*
X282100Y337751D02*
X281600Y337251D01*
Y336251D01*
X282100Y335751D01*
X284100D01*
X284599Y336251D01*
Y337251D01*
X284100Y337751D01*
X284599Y338750D02*
Y339750D01*
Y339250D01*
X281600D01*
X282100Y338750D01*
Y341249D02*
X281600Y341749D01*
Y342749D01*
X282100Y343249D01*
X282600D01*
X283100Y342749D01*
Y342249D01*
Y342749D01*
X283600Y343249D01*
X284100D01*
X284599Y342749D01*
Y341749D01*
X284100Y341249D01*
X272000Y337651D02*
X271500Y337151D01*
Y336151D01*
X272000Y335651D01*
X274000D01*
X274500Y336151D01*
Y337151D01*
X274000Y337651D01*
X274500Y338650D02*
Y339650D01*
Y339150D01*
X271500D01*
X272000Y338650D01*
X274500Y343149D02*
Y341149D01*
X272500Y343149D01*
X272000D01*
X271500Y342649D01*
Y341649D01*
X272000Y341149D01*
X278000Y239150D02*
X277501Y238651D01*
Y237651D01*
X278000Y237151D01*
X280000D01*
X280500Y237651D01*
Y238651D01*
X280000Y239150D01*
X280500Y240150D02*
Y241150D01*
Y240650D01*
X277501D01*
X278000Y240150D01*
X280500Y242649D02*
Y243649D01*
Y243149D01*
X277501D01*
X278000Y242649D01*
X268900Y238751D02*
X268401Y238251D01*
Y237251D01*
X268900Y236751D01*
X270900D01*
X271399Y237251D01*
Y238251D01*
X270900Y238751D01*
X271399Y239750D02*
Y240750D01*
Y240250D01*
X268401D01*
X268900Y239750D01*
Y242249D02*
X268401Y242749D01*
Y243749D01*
X268900Y244249D01*
X270900D01*
X271399Y243749D01*
Y242749D01*
X270900Y242249D01*
X268900D01*
X204200Y255900D02*
X203700Y255400D01*
Y254401D01*
X204200Y253901D01*
X206200D01*
X206699Y254401D01*
Y255400D01*
X206200Y255900D01*
Y256900D02*
X206699Y257400D01*
Y258399D01*
X206200Y258899D01*
X204200D01*
X203700Y258399D01*
Y257400D01*
X204200Y256900D01*
X204700D01*
X205200Y257400D01*
Y258899D01*
X199300Y309500D02*
X198800Y309999D01*
X197801D01*
X197301Y309500D01*
Y307500D01*
X197801Y307000D01*
X198800D01*
X199300Y307500D01*
X200300Y309500D02*
X200800Y309999D01*
X201799D01*
X202299Y309500D01*
Y309000D01*
X201799Y308500D01*
X202299Y308000D01*
Y307500D01*
X201799Y307000D01*
X200800D01*
X200300Y307500D01*
Y308000D01*
X200800Y308500D01*
X200300Y309000D01*
Y309500D01*
X200800Y308500D02*
X201799D01*
X288900Y284300D02*
X288401Y283800D01*
Y282801D01*
X288900Y282301D01*
X290900D01*
X291400Y282801D01*
Y283800D01*
X290900Y284300D01*
X288401Y285300D02*
Y287299D01*
X288900D01*
X290900Y285300D01*
X291400D01*
X145500Y273600D02*
X145000Y274099D01*
X144001D01*
X143501Y273600D01*
Y271600D01*
X144001Y271100D01*
X145000D01*
X145500Y271600D01*
X148499Y274099D02*
X147500Y273600D01*
X146500Y272600D01*
Y271600D01*
X147000Y271100D01*
X147999D01*
X148499Y271600D01*
Y272100D01*
X147999Y272600D01*
X146500D01*
X346300Y276200D02*
X345800Y276699D01*
X344801D01*
X344301Y276200D01*
Y274200D01*
X344801Y273700D01*
X345800D01*
X346300Y274200D01*
X349299Y276699D02*
X347300D01*
Y275200D01*
X348300Y275700D01*
X348799D01*
X349299Y275200D01*
Y274200D01*
X348799Y273700D01*
X347800D01*
X347300Y274200D01*
X215200Y256000D02*
X214701Y255500D01*
Y254501D01*
X215200Y254001D01*
X217200D01*
X217700Y254501D01*
Y255500D01*
X217200Y256000D01*
X217700Y258499D02*
X214701D01*
X216200Y257000D01*
Y258999D01*
X209200Y333300D02*
X208700Y332800D01*
Y331801D01*
X209200Y331301D01*
X211200D01*
X211700Y331801D01*
Y332800D01*
X211200Y333300D01*
X209200Y334300D02*
X208700Y334800D01*
Y335799D01*
X209200Y336299D01*
X209700D01*
X210200Y335799D01*
Y335299D01*
Y335799D01*
X210700Y336299D01*
X211200D01*
X211700Y335799D01*
Y334800D01*
X211200Y334300D01*
X218800Y333300D02*
X218301Y332800D01*
Y331801D01*
X218800Y331301D01*
X220800D01*
X221300Y331801D01*
Y332800D01*
X220800Y333300D01*
X221300Y336299D02*
Y334300D01*
X219300Y336299D01*
X218800D01*
X218301Y335799D01*
Y334800D01*
X218800Y334300D01*
X435500Y81000D02*
X435000Y81499D01*
X434000D01*
X433501Y81000D01*
Y79000D01*
X434000Y78500D01*
X435000D01*
X435500Y79000D01*
X436500Y78500D02*
X437499D01*
X437000D01*
Y81499D01*
X436500Y81000D01*
D13*
X479500Y99500D02*
X481000D01*
X439000D02*
X470500D01*
X439000D02*
Y110500D01*
X481000Y99500D02*
Y110500D01*
X439000D02*
X481000D01*
D14*
X472750Y99000D02*
X477250D01*
X475000D02*
Y100027D01*
X473750Y97500D02*
X476250D01*
X474523Y96000D02*
X475250D01*
X271600Y14350D02*
X273000Y12950D01*
X277000D01*
X278400Y14350D01*
Y18850D01*
X271600Y14350D02*
Y18950D01*
Y27050D02*
X278400D01*
Y21250D02*
Y27050D01*
X271600Y21250D02*
Y27050D01*
X251600Y14350D02*
X253000Y12950D01*
X257000D01*
X258400Y14350D01*
Y18850D01*
X251600Y14350D02*
Y18950D01*
Y27050D02*
X258400D01*
Y21250D02*
Y27050D01*
X251600Y21250D02*
Y27050D01*
X231600Y14350D02*
X233000Y12950D01*
X237000D01*
X238400Y14350D01*
Y18850D01*
X231600Y14350D02*
Y18950D01*
Y27050D02*
X238400D01*
Y21250D02*
Y27050D01*
X231600Y21250D02*
Y27050D01*
X211600Y14350D02*
X213000Y12950D01*
X217000D01*
X218400Y14350D01*
Y18850D01*
X211600Y14350D02*
Y18950D01*
Y27050D02*
X218400D01*
Y21250D02*
Y27050D01*
X211600Y21250D02*
Y27050D01*
X268386Y262559D02*
Y267441D01*
X276575Y261654D02*
X280827D01*
X269173D02*
X273425D01*
X281614Y262559D02*
Y267441D01*
X269173Y268346D02*
X273425D01*
X268386Y267441D02*
Y267559D01*
X269173Y268346D01*
X281614Y267441D02*
Y267559D01*
X280827Y268347D02*
X281614Y267559D01*
Y262441D02*
Y262559D01*
X280827Y261654D02*
X281614Y262441D01*
X268386Y262441D02*
Y262559D01*
Y262441D02*
X269173Y261654D01*
X276575Y268346D02*
X280827Y268347D01*
X284158Y308559D02*
Y313441D01*
X271717Y314346D02*
X275968D01*
X279118D02*
X283370D01*
X270929Y308559D02*
Y313441D01*
X279118Y307654D02*
X283370D01*
X284158Y308441D02*
Y308559D01*
X283370Y307654D02*
X284158Y308441D01*
X270929Y308441D02*
Y308559D01*
Y308441D02*
X271717Y307653D01*
X270929Y313441D02*
Y313559D01*
X271717Y314346D01*
X284158Y313441D02*
Y313559D01*
X283370Y314346D02*
X284158Y313559D01*
X271717Y307653D02*
X275968Y307654D01*
X55000Y130000D02*
X60000D01*
Y140000D01*
X50000D02*
X60000D01*
X50000D02*
Y190000D01*
X60000D01*
Y140000D02*
Y190000D01*
X50000Y130000D02*
Y140000D01*
Y130000D02*
X55000D01*
X35000Y100000D02*
X45000D01*
X35000Y90000D02*
Y100000D01*
X45000D02*
Y190000D01*
X35000D02*
X45000D01*
X35000Y100000D02*
Y190000D01*
X45000Y90000D02*
Y100000D01*
X35000Y90000D02*
X45000D01*
X25000Y130000D02*
X30000D01*
Y140000D01*
X20000D02*
X30000D01*
X20000D02*
Y190000D01*
X30000D01*
Y140000D02*
Y190000D01*
X20000Y130000D02*
Y140000D01*
Y130000D02*
X25000D01*
X247953Y229484D02*
Y233819D01*
X242047Y229484D02*
Y233819D01*
X247933Y236184D02*
Y240516D01*
X242027Y236184D02*
Y240516D01*
X242047D02*
X247953Y240514D01*
X242047Y229488D02*
X247953D01*
X208386Y262559D02*
Y267441D01*
X216575Y261654D02*
X220827D01*
X209173D02*
X213425D01*
X221614Y262559D02*
Y267441D01*
X209173Y268346D02*
X213425D01*
X208386Y267441D02*
Y267559D01*
X209173Y268346D01*
X221614Y267441D02*
Y267559D01*
X220827Y268347D02*
X221614Y267559D01*
Y262441D02*
Y262559D01*
X220827Y261654D02*
X221614Y262441D01*
X208386Y262441D02*
Y262559D01*
Y262441D02*
X209173Y261654D01*
X216575Y268346D02*
X220827Y268347D01*
X208386Y307559D02*
Y312441D01*
X216575Y306654D02*
X220827D01*
X209173D02*
X213425D01*
X221614Y307559D02*
Y312441D01*
X209173Y313346D02*
X213425D01*
X208386Y312441D02*
Y312559D01*
X209173Y313346D01*
X221614Y312441D02*
Y312559D01*
X220827Y313347D02*
X221614Y312559D01*
Y307441D02*
Y307559D01*
X220827Y306654D02*
X221614Y307441D01*
X208386Y307441D02*
Y307559D01*
Y307441D02*
X209173Y306654D01*
X216575Y313346D02*
X220827Y313347D01*
X228425Y352953D02*
X232760D01*
X228425Y347047D02*
X232760D01*
X221729Y352933D02*
X226061D01*
X221729Y347027D02*
X226061D01*
X221729Y347047D02*
X221730Y352953D01*
X232756Y347047D02*
Y352953D01*
X124488Y242047D02*
Y247953D01*
X135514Y242047D02*
X135516Y247953D01*
X131184Y247973D02*
X135516D01*
X131184Y242067D02*
X135516D01*
X124484Y247953D02*
X128819D01*
X124484Y242047D02*
X128819D01*
X133400Y262950D02*
Y268750D01*
X126600Y262950D02*
Y268750D01*
Y262950D02*
X133400D01*
Y271050D02*
Y275650D01*
X126600Y271150D02*
Y275650D01*
X128000Y277050D01*
X132000D01*
X133400Y275650D01*
X212047Y47756D02*
X217953D01*
X212047Y36730D02*
X217953Y36728D01*
X217973D02*
Y41060D01*
X212067Y36728D02*
Y41060D01*
X217953Y43425D02*
Y47760D01*
X212047Y43425D02*
Y47760D01*
X232047Y47756D02*
X237953D01*
X232047Y36730D02*
X237953Y36728D01*
X237973D02*
Y41060D01*
X232067Y36728D02*
Y41060D01*
X237953Y43425D02*
Y47760D01*
X232047Y43425D02*
Y47760D01*
X252047Y47756D02*
X257953D01*
X252047Y36730D02*
X257953Y36728D01*
X257973D02*
Y41060D01*
X252067Y36728D02*
Y41060D01*
X257953Y43425D02*
Y47760D01*
X252047Y43425D02*
Y47760D01*
X272047Y47756D02*
X277953D01*
X272047Y36730D02*
X277953Y36728D01*
X277973D02*
Y41060D01*
X272067Y36728D02*
Y41060D01*
X277953Y43425D02*
Y47760D01*
X272047Y43425D02*
Y47760D01*
X363345Y333442D02*
X361932Y334856D01*
X362639Y334149D01*
X359104Y330615D01*
X357690D01*
X356983Y331322D01*
Y332736D01*
X367587Y329201D02*
X366173Y330615D01*
X366880Y329908D01*
X363345Y326374D01*
X361932D01*
X361225Y327081D01*
Y328494D01*
X366880Y325667D02*
X369707Y322839D01*
X375362Y320012D02*
Y321426D01*
X373949Y322839D01*
X372535D01*
X369707Y320012D01*
Y318598D01*
X371121Y317184D01*
X372535D01*
X373949Y318598D01*
X372535Y320012D01*
X380311Y316477D02*
X377483Y319305D01*
X373242Y315064D01*
X376069Y312236D01*
X375362Y317184D02*
X376776Y315771D01*
X384552Y312236D02*
X381724Y315064D01*
X377483Y310822D01*
X380311Y307995D01*
X379604Y312943D02*
X381017Y311529D01*
X385965Y310822D02*
X384552Y303754D01*
X388793Y307995D02*
X381724Y306581D01*
X385259Y301633D02*
X388086Y298805D01*
X394448Y302340D02*
X390207Y298099D01*
X392327Y300219D01*
X395155Y297392D01*
X397276Y299512D01*
X393034Y295271D01*
X400810Y295978D02*
X399396Y297392D01*
X397983D01*
X395155Y294564D01*
Y293150D01*
X396569Y291737D01*
X397983D01*
X400810Y294564D01*
Y295978D01*
X398689Y289616D02*
X402931Y293857D01*
Y291030D01*
X405758Y291030D01*
X401517Y286789D01*
X407172Y289616D02*
X408586Y288202D01*
X407879Y288909D01*
X403638Y284668D01*
X402931Y285375D01*
X404344Y283961D01*
X413534Y283254D02*
X410706Y286082D01*
X406465Y281840D01*
X409293Y279013D01*
X408586Y283961D02*
X409999Y282547D01*
Y276892D02*
X412827Y274065D01*
X417775Y276185D02*
X414948Y273358D01*
X416361Y274772D01*
X417775D01*
X419189Y274772D01*
X419896Y274065D01*
X421310Y266996D02*
X419896Y268410D01*
Y269824D01*
X421310Y271237D01*
X422723D01*
X424137Y269824D01*
Y268410D01*
X423430Y267703D01*
X420603Y270530D01*
X426258Y267703D02*
X424844Y263462D01*
X429085Y264875D01*
X426965Y259927D02*
X429792Y257100D01*
X435447Y259927D02*
X436861D01*
X438274Y258513D01*
Y257100D01*
X435447Y254272D01*
X434033D01*
X432619Y255686D01*
Y257100D01*
X435447Y259927D01*
X438274Y254272D02*
X441102Y251445D01*
X443223Y245083D02*
X440395Y247910D01*
X446050D01*
X446757Y248617D01*
Y250031D01*
X445343Y251445D01*
X443930D01*
Y242962D02*
X446757Y240135D01*
X448171Y238721D02*
X450998Y235893D01*
X453119Y235187D02*
X454533Y233773D01*
X453826Y234480D01*
X458067Y238721D01*
X456653D01*
Y231652D02*
X462308D01*
X463722Y224583D02*
X460895Y227411D01*
X466550D01*
X467256Y228118D01*
Y229531D01*
X465843Y230945D01*
X464429D01*
X472205Y224583D02*
X469377Y227411D01*
X467256Y225290D01*
X469377Y224583D01*
X470084Y223876D01*
Y222463D01*
X468670Y221049D01*
X467256D01*
X465843Y222463D01*
Y223876D01*
X469377Y218928D02*
X475032D01*
X476446Y211859D02*
X473618Y214687D01*
X479274D01*
X479980Y215394D01*
Y216808D01*
X478567Y218221D01*
X477153D01*
X477860Y210446D02*
X479273Y209032D01*
X478567Y209739D01*
X482808Y213980D01*
X481394D01*
X121665Y10686D02*
X122498Y9853D01*
Y8187D01*
X121665Y7354D01*
X120832D01*
X119999Y8187D01*
Y9020D01*
Y8187D01*
X119166Y7354D01*
X118333D01*
X117500Y8187D01*
Y9853D01*
X118333Y10686D01*
X121665Y5687D02*
X122498Y4854D01*
Y3188D01*
X121665Y2355D01*
X120832D01*
X119999Y3188D01*
X119166Y2355D01*
X118333D01*
X117500Y3188D01*
Y4854D01*
X118333Y5687D01*
X119166D01*
X119999Y4854D01*
X120832Y5687D01*
X121665D01*
X119999Y4854D02*
Y3188D01*
X131665Y10686D02*
X132498Y9853D01*
Y8187D01*
X131665Y7354D01*
X130832D01*
X129999Y8187D01*
Y9020D01*
Y8187D01*
X129166Y7354D01*
X128333D01*
X127500Y8187D01*
Y9853D01*
X128333Y10686D01*
X132498Y5687D02*
Y2355D01*
X131665D01*
X128333Y5687D01*
X127500D01*
X117500Y209633D02*
Y212965D01*
X120832Y209633D01*
X121665D01*
X122498Y210466D01*
Y212132D01*
X121665Y212965D01*
X127500D02*
Y211299D01*
Y212132D01*
X132498D01*
X131665Y212965D01*
X361665Y10686D02*
X362498Y9853D01*
Y8187D01*
X361665Y7354D01*
X360832D01*
X359999Y8187D01*
Y9020D01*
Y8187D01*
X359166Y7354D01*
X358333D01*
X357500Y8187D01*
Y9853D01*
X358333Y10686D01*
X361665Y5687D02*
X362498Y4854D01*
Y3188D01*
X361665Y2355D01*
X360832D01*
X359999Y3188D01*
X359166Y2355D01*
X358333D01*
X357500Y3188D01*
Y4854D01*
X358333Y5687D01*
X359166D01*
X359999Y4854D01*
X360832Y5687D01*
X361665D01*
X359999Y4854D02*
Y3188D01*
X371665Y10686D02*
X372498Y9853D01*
Y8187D01*
X371665Y7354D01*
X370832D01*
X369999Y8187D01*
Y9020D01*
Y8187D01*
X369166Y7354D01*
X368333D01*
X367500Y8187D01*
Y9853D01*
X368333Y10686D01*
X372498Y5687D02*
Y2355D01*
X371665D01*
X368333Y5687D01*
X367500D01*
X357500Y209633D02*
Y212965D01*
X360832Y209633D01*
X361665D01*
X362498Y210466D01*
Y212132D01*
X361665Y212965D01*
X367500D02*
Y211299D01*
Y212132D01*
X372498D01*
X371665Y212965D01*
X36701Y195404D02*
X42699D01*
X40700Y197403D01*
X42699Y199403D01*
X36701D01*
Y201402D02*
Y203401D01*
Y202402D01*
X42699D01*
Y201402D01*
Y203401D01*
X36701Y210399D02*
Y206400D01*
X39700D01*
Y208400D01*
Y206400D01*
X42699D01*
X36701Y212398D02*
Y214398D01*
Y213398D01*
X42699D01*
Y212398D01*
Y214398D01*
Y217397D02*
Y219396D01*
Y218396D01*
X36701D01*
X37701Y217397D01*
X230901Y325399D02*
Y320401D01*
X231901Y319401D01*
X233900D01*
X234900Y320401D01*
Y325399D01*
X236899Y319401D02*
X238899D01*
X237899D01*
Y325399D01*
X236899Y324399D01*
X449203Y119899D02*
X453202D01*
X451203D01*
Y113901D01*
X455201D02*
Y119899D01*
X458200D01*
X459200Y118899D01*
Y116900D01*
X458200Y115900D01*
X455201D01*
X461199Y112901D02*
X465198D01*
X467197Y113901D02*
X469197D01*
X468197D01*
Y119899D01*
X467197Y118899D01*
X270902Y348801D02*
Y354799D01*
X272902Y352800D01*
X274901Y354799D01*
Y348801D01*
X276900Y354799D02*
Y348801D01*
Y350800D01*
X280899Y354799D01*
X277900Y351800D01*
X280899Y348801D01*
X282898D02*
X284898D01*
X283898D01*
Y354799D01*
X282898Y353799D01*
X15400Y65498D02*
Y59500D01*
X19399D01*
X21398Y65498D02*
X23397D01*
X22398D01*
Y59500D01*
X21398D01*
X23397D01*
X26396D02*
Y65498D01*
X30395Y59500D01*
Y65498D01*
X36393D02*
X32394D01*
Y59500D01*
X36393D01*
X32394Y62499D02*
X34394D01*
X47390Y65498D02*
X45390D01*
X44391Y64498D01*
Y60500D01*
X45390Y59500D01*
X47390D01*
X48389Y60500D01*
Y64498D01*
X47390Y65498D01*
X50389D02*
Y60500D01*
X51388Y59500D01*
X53388D01*
X54387Y60500D01*
Y65498D01*
X56387D02*
X60386D01*
X58386D01*
Y59500D01*
X62385D02*
X64384D01*
X63384D01*
Y65498D01*
X62385Y64498D01*
X344701Y333901D02*
Y331902D01*
Y332901D01*
X349699D01*
X350699Y331902D01*
Y330902D01*
X349699Y329902D01*
X350699Y335900D02*
X344701D01*
Y338899D01*
X345701Y339899D01*
X347700D01*
X348700Y338899D01*
Y335900D01*
Y337900D02*
X350699Y339899D01*
Y341898D02*
Y343898D01*
Y342898D01*
X344701D01*
X345701Y341898D01*
X344101Y255301D02*
Y253302D01*
Y254301D01*
X349099D01*
X350099Y253302D01*
Y252302D01*
X349099Y251302D01*
X344101Y257300D02*
X350099D01*
Y261299D01*
Y263298D02*
Y265298D01*
Y264298D01*
X344101D01*
X345101Y263298D01*
X21101Y198100D02*
Y196101D01*
Y197101D01*
X26099D01*
X27099Y196101D01*
Y195101D01*
X26099Y194102D01*
X27099Y204098D02*
Y200100D01*
X23100Y204098D01*
X22101D01*
X21101Y203099D01*
Y201099D01*
X22101Y200100D01*
X442200Y12899D02*
X440201D01*
X441200D01*
Y7901D01*
X440201Y6901D01*
X439201D01*
X438201Y7901D01*
X444199Y6901D02*
X446199D01*
X445199D01*
Y12899D01*
X444199Y11899D01*
X51601Y196105D02*
X57599D01*
Y199104D01*
X56599Y200104D01*
X52601D01*
X51601Y199104D01*
Y196105D01*
Y202103D02*
Y204102D01*
Y203103D01*
X57599D01*
Y202103D01*
Y204102D01*
X52601Y211100D02*
X51601Y210101D01*
Y208101D01*
X52601Y207101D01*
X53600D01*
X54600Y208101D01*
Y210101D01*
X55600Y211100D01*
X56599D01*
X57599Y210101D01*
Y208101D01*
X56599Y207101D01*
X57599Y213100D02*
X51601D01*
Y216098D01*
X52601Y217098D01*
X54600D01*
X55600Y216098D01*
Y213100D01*
X51601Y219098D02*
X57599D01*
Y223096D01*
Y225096D02*
Y227095D01*
Y226095D01*
X51601D01*
X52601Y225096D01*
X385001Y214699D02*
X384002Y215699D01*
X382002D01*
X381003Y214699D01*
Y210701D01*
X382002Y209701D01*
X384002D01*
X385001Y210701D01*
X387001Y209701D02*
Y215699D01*
X390999Y209701D01*
Y215699D01*
X396997Y209701D02*
X392999D01*
X396997Y213700D01*
Y214699D01*
X395998Y215699D01*
X393998D01*
X392999Y214699D01*
X101701Y214099D02*
X100701Y215099D01*
X98702D01*
X97702Y214099D01*
Y210101D01*
X98702Y209101D01*
X100701D01*
X101701Y210101D01*
X103700Y209101D02*
Y215099D01*
X107699Y209101D01*
Y215099D01*
X109698Y209101D02*
X111698D01*
X110698D01*
Y215099D01*
X109698Y214099D01*
D15*
X289200Y2900D02*
Y48800D01*
X278800Y59200D02*
X289200Y48800D01*
X204900Y59200D02*
X278800D01*
X194500Y48800D02*
X204900Y59200D01*
X194500Y2900D02*
Y48800D01*
D16*
X275031Y19710D02*
Y20400D01*
X273500D02*
X276600D01*
X255031Y19710D02*
Y20400D01*
X253500D02*
X256600D01*
X235031Y19710D02*
Y20400D01*
X233500D02*
X236600D01*
X215031Y19710D02*
Y20400D01*
X213500D02*
X216600D01*
X128400Y269600D02*
X131500D01*
X129969D02*
Y270290D01*
D17*
X465039Y61378D02*
X472717D01*
Y4685D02*
Y36772D01*
X437284Y61378D02*
X444567D01*
X472717Y56850D02*
Y61378D01*
X437284Y4685D02*
Y61378D01*
Y4685D02*
X472717D01*
X260409Y351772D02*
X261591D01*
X260409Y348228D02*
X261591D01*
X239784Y345110D02*
X250217D01*
Y358890D01*
X239784D02*
X250217D01*
X239784Y345110D02*
Y358890D01*
X342748Y315472D02*
Y354842D01*
X307315Y315472D02*
Y354842D01*
X342748D01*
X307315Y315472D02*
X342748D01*
Y232157D02*
Y271528D01*
X307315Y232157D02*
Y271528D01*
X342748D01*
X307315Y232157D02*
X342748D01*
X16102Y4409D02*
X53898D01*
Y54803D01*
X16102D02*
X53898D01*
X16102Y4409D02*
Y54803D01*
D18*
X275599Y5700D02*
Y9699D01*
X273600Y7699D01*
X276266D01*
X253500Y9232D02*
X254166Y9899D01*
X255499D01*
X256166Y9232D01*
Y8566D01*
X255499Y7899D01*
X254833D01*
X255499D01*
X256166Y7233D01*
Y6566D01*
X255499Y5900D01*
X254166D01*
X253500Y6566D01*
X236166Y5800D02*
X233500D01*
X236166Y8466D01*
Y9132D01*
X235499Y9799D01*
X234166D01*
X233500Y9132D01*
X214100Y5900D02*
X215433D01*
X214766D01*
Y9899D01*
X214100Y9232D01*
X205600Y65232D02*
Y61233D01*
X207599D01*
X208266Y61899D01*
Y64565D01*
X207599Y65232D01*
X205600D01*
X209599Y61233D02*
X210932D01*
X210265D01*
Y63899D01*
X209599D01*
X213597D02*
X214930D01*
X215597Y63232D01*
Y61233D01*
X213597D01*
X212931Y61899D01*
X213597Y62566D01*
X215597D01*
X218263Y59900D02*
X218929D01*
X219596Y60566D01*
Y63899D01*
X217596D01*
X216930Y63232D01*
Y61899D01*
X217596Y61233D01*
X219596D01*
X220928D02*
Y63899D01*
X222928D01*
X223594Y63232D01*
Y61233D01*
X225594D02*
X226926D01*
X227593Y61899D01*
Y63232D01*
X226926Y63899D01*
X225594D01*
X224927Y63232D01*
Y61899D01*
X225594Y61233D01*
X228926D02*
X230925D01*
X231592Y61899D01*
X230925Y62566D01*
X229592D01*
X228926Y63232D01*
X229592Y63899D01*
X231592D01*
X233591Y64565D02*
Y63899D01*
X232925D01*
X234257D01*
X233591D01*
Y61899D01*
X234257Y61233D01*
X236257D02*
X237590D01*
X236923D01*
Y63899D01*
X236257D01*
X242255D02*
X240255D01*
X239589Y63232D01*
Y61899D01*
X240255Y61233D01*
X242255D01*
X243588D02*
X245587D01*
X246253Y61899D01*
X245587Y62566D01*
X244254D01*
X243588Y63232D01*
X244254Y63899D01*
X246253D01*
M02*
