G04*
G04 #@! TF.GenerationSoftware,Altium Limited,Altium Designer,20.2.4 (192)*
G04*
G04 Layer_Color=8388736*
%FSLAX25Y25*%
%MOIN*%
G70*
G04*
G04 #@! TF.SameCoordinates,B3AF9CCF-9D14-4356-84A3-7319CC5DFEB4*
G04*
G04*
G04 #@! TF.FilePolarity,Negative*
G04*
G01*
G75*
%ADD20R,0.05512X0.01181*%
%ADD32C,0.01968*%
%ADD33C,0.00000*%
%ADD34R,0.04461X0.04225*%
%ADD35R,0.04700X0.05100*%
%ADD36R,0.05367X0.06587*%
%ADD37R,0.06587X0.05367*%
%ADD38R,0.04225X0.04461*%
%ADD39R,0.04737X0.05131*%
%ADD40R,0.06312X0.04737*%
%ADD41R,0.05131X0.04737*%
%ADD42R,0.03162X0.02855*%
%ADD43R,0.17729X0.10642*%
%ADD44R,0.04343X0.03950*%
%ADD45R,0.03950X0.04343*%
%ADD46R,0.07099X0.08674*%
%ADD47C,0.00800*%
%ADD48C,0.00769*%
%ADD49C,0.01968*%
%ADD50C,0.07800*%
%ADD51O,0.09658X0.18517*%
%ADD52O,0.18517X0.09658*%
%ADD53O,0.20485X0.10642*%
%ADD54C,0.02769*%
%ADD55C,0.06800*%
%ADD56C,0.08477*%
%ADD57R,0.08477X0.08477*%
%ADD58C,0.05131*%
%ADD59C,0.02600*%
%ADD60C,0.02650*%
G36*
X239295Y288091D02*
X239291Y288124D01*
Y306285D01*
X239295Y306319D01*
X239304Y306351D01*
X239320Y306381D01*
X239341Y306406D01*
X239368Y306428D01*
X239397Y306444D01*
X239429Y306453D01*
X239463Y306457D01*
X250537D01*
X250571Y306453D01*
X250603Y306444D01*
X250633Y306428D01*
X250658Y306406D01*
X250680Y306381D01*
X250696Y306351D01*
X250705Y306319D01*
X250709Y306285D01*
Y288124D01*
X250705Y288091D01*
X250696Y288058D01*
X250680Y288029D01*
X250658Y288003D01*
X250633Y287982D01*
X250603Y287966D01*
X250571Y287956D01*
X250537Y287953D01*
X239463D01*
X239429Y287956D01*
X239397Y287966D01*
X239368Y287982D01*
X239341Y288003D01*
X239320Y288029D01*
X239304Y288058D01*
X239295Y288091D01*
D02*
G37*
D20*
X256614Y314921D02*
D03*
Y312953D02*
D03*
Y310984D02*
D03*
Y309016D02*
D03*
Y307047D02*
D03*
Y305079D02*
D03*
Y303110D02*
D03*
Y301142D02*
D03*
Y299173D02*
D03*
Y297205D02*
D03*
Y295236D02*
D03*
Y293268D02*
D03*
Y291299D02*
D03*
Y289331D02*
D03*
Y287362D02*
D03*
Y285394D02*
D03*
Y283425D02*
D03*
Y281457D02*
D03*
Y279488D02*
D03*
X233386D02*
D03*
Y281457D02*
D03*
Y283425D02*
D03*
Y285394D02*
D03*
Y287362D02*
D03*
Y289331D02*
D03*
Y291299D02*
D03*
Y293268D02*
D03*
Y295236D02*
D03*
Y297205D02*
D03*
Y299173D02*
D03*
Y301142D02*
D03*
Y303110D02*
D03*
Y305079D02*
D03*
Y307047D02*
D03*
Y309016D02*
D03*
Y310984D02*
D03*
Y312953D02*
D03*
Y314921D02*
D03*
D32*
X247618Y354807D02*
G03*
X247618Y354807I-2618J0D01*
G01*
D33*
X123429Y19800D02*
G03*
X123429Y19800I-3429J0D01*
G01*
X133429D02*
G03*
X133429Y19800I-3429J0D01*
G01*
X123429Y29800D02*
G03*
X123429Y29800I-3429J0D01*
G01*
X133429D02*
G03*
X133429Y29800I-3429J0D01*
G01*
X123429Y39800D02*
G03*
X123429Y39800I-3429J0D01*
G01*
X133429D02*
G03*
X133429Y39800I-3429J0D01*
G01*
X123429Y49800D02*
G03*
X123429Y49800I-3429J0D01*
G01*
X133429D02*
G03*
X133429Y49800I-3429J0D01*
G01*
X123429Y59800D02*
G03*
X123429Y59800I-3429J0D01*
G01*
X133429D02*
G03*
X133429Y59800I-3429J0D01*
G01*
X123429Y69800D02*
G03*
X123429Y69800I-3429J0D01*
G01*
X133429D02*
G03*
X133429Y69800I-3429J0D01*
G01*
X123429Y79800D02*
G03*
X123429Y79800I-3429J0D01*
G01*
X133429D02*
G03*
X133429Y79800I-3429J0D01*
G01*
X123429Y89800D02*
G03*
X123429Y89800I-3429J0D01*
G01*
X133429D02*
G03*
X133429Y89800I-3429J0D01*
G01*
X123429Y99800D02*
G03*
X123429Y99800I-3429J0D01*
G01*
X133429D02*
G03*
X133429Y99800I-3429J0D01*
G01*
X123429Y109800D02*
G03*
X123429Y109800I-3429J0D01*
G01*
X133429D02*
G03*
X133429Y109800I-3429J0D01*
G01*
X123429Y119800D02*
G03*
X123429Y119800I-3429J0D01*
G01*
X133429D02*
G03*
X133429Y119800I-3429J0D01*
G01*
X123429Y129800D02*
G03*
X123429Y129800I-3429J0D01*
G01*
X133429D02*
G03*
X133429Y129800I-3429J0D01*
G01*
X123429Y139800D02*
G03*
X123429Y139800I-3429J0D01*
G01*
X133429D02*
G03*
X133429Y139800I-3429J0D01*
G01*
X123429Y149800D02*
G03*
X123429Y149800I-3429J0D01*
G01*
X133429D02*
G03*
X133429Y149800I-3429J0D01*
G01*
X123429Y159800D02*
G03*
X123429Y159800I-3429J0D01*
G01*
X133429D02*
G03*
X133429Y159800I-3429J0D01*
G01*
X123429Y169800D02*
G03*
X123429Y169800I-3429J0D01*
G01*
X133429D02*
G03*
X133429Y169800I-3429J0D01*
G01*
X123429Y179800D02*
G03*
X123429Y179800I-3429J0D01*
G01*
X133429D02*
G03*
X133429Y179800I-3429J0D01*
G01*
X123429Y189800D02*
G03*
X123429Y189800I-3429J0D01*
G01*
X133429D02*
G03*
X133429Y189800I-3429J0D01*
G01*
X123429Y199800D02*
G03*
X123429Y199800I-3429J0D01*
G01*
X133429D02*
G03*
X133429Y199800I-3429J0D01*
G01*
X363429Y19800D02*
G03*
X363429Y19800I-3429J0D01*
G01*
X373429D02*
G03*
X373429Y19800I-3429J0D01*
G01*
X363429Y29800D02*
G03*
X363429Y29800I-3429J0D01*
G01*
X373429D02*
G03*
X373429Y29800I-3429J0D01*
G01*
X363429Y39800D02*
G03*
X363429Y39800I-3429J0D01*
G01*
X373429D02*
G03*
X373429Y39800I-3429J0D01*
G01*
X363429Y49800D02*
G03*
X363429Y49800I-3429J0D01*
G01*
X373429D02*
G03*
X373429Y49800I-3429J0D01*
G01*
X363429Y59800D02*
G03*
X363429Y59800I-3429J0D01*
G01*
X373429D02*
G03*
X373429Y59800I-3429J0D01*
G01*
X363429Y69800D02*
G03*
X363429Y69800I-3429J0D01*
G01*
X373429D02*
G03*
X373429Y69800I-3429J0D01*
G01*
X363429Y79800D02*
G03*
X363429Y79800I-3429J0D01*
G01*
X373429D02*
G03*
X373429Y79800I-3429J0D01*
G01*
X363429Y89800D02*
G03*
X363429Y89800I-3429J0D01*
G01*
X373429D02*
G03*
X373429Y89800I-3429J0D01*
G01*
X363429Y99800D02*
G03*
X363429Y99800I-3429J0D01*
G01*
X373429D02*
G03*
X373429Y99800I-3429J0D01*
G01*
X363429Y109800D02*
G03*
X363429Y109800I-3429J0D01*
G01*
X373429D02*
G03*
X373429Y109800I-3429J0D01*
G01*
X363429Y119800D02*
G03*
X363429Y119800I-3429J0D01*
G01*
X373429D02*
G03*
X373429Y119800I-3429J0D01*
G01*
X363429Y129800D02*
G03*
X363429Y129800I-3429J0D01*
G01*
X373429D02*
G03*
X373429Y129800I-3429J0D01*
G01*
X363429Y139800D02*
G03*
X363429Y139800I-3429J0D01*
G01*
X373429D02*
G03*
X373429Y139800I-3429J0D01*
G01*
X363429Y149800D02*
G03*
X363429Y149800I-3429J0D01*
G01*
X373429D02*
G03*
X373429Y149800I-3429J0D01*
G01*
X363429Y159800D02*
G03*
X363429Y159800I-3429J0D01*
G01*
X373429D02*
G03*
X373429Y159800I-3429J0D01*
G01*
X363429Y169800D02*
G03*
X363429Y169800I-3429J0D01*
G01*
X373429D02*
G03*
X373429Y169800I-3429J0D01*
G01*
X363429Y179800D02*
G03*
X363429Y179800I-3429J0D01*
G01*
X373429D02*
G03*
X373429Y179800I-3429J0D01*
G01*
X363429Y189800D02*
G03*
X363429Y189800I-3429J0D01*
G01*
X373429D02*
G03*
X373429Y189800I-3429J0D01*
G01*
X363429Y199800D02*
G03*
X363429Y199800I-3429J0D01*
G01*
X373429D02*
G03*
X373429Y199800I-3429J0D01*
G01*
D34*
X231400Y271371D02*
D03*
Y265229D02*
D03*
X240900Y271671D02*
D03*
Y265529D02*
D03*
X265000Y281071D02*
D03*
Y274929D02*
D03*
X273000Y332071D02*
D03*
Y325929D02*
D03*
X283000Y332071D02*
D03*
Y325929D02*
D03*
X279000Y247929D02*
D03*
Y254071D02*
D03*
X270000Y247929D02*
D03*
Y254071D02*
D03*
X221000Y249929D02*
D03*
Y256071D02*
D03*
X210000Y249929D02*
D03*
Y256071D02*
D03*
X199000Y286071D02*
D03*
Y279929D02*
D03*
X220000Y328071D02*
D03*
Y321929D02*
D03*
X210000Y328071D02*
D03*
Y321929D02*
D03*
D35*
X275000Y16750D02*
D03*
Y23450D02*
D03*
X255000Y16750D02*
D03*
Y23450D02*
D03*
X235000Y16750D02*
D03*
Y23450D02*
D03*
X215000Y16750D02*
D03*
Y23450D02*
D03*
X130000Y266550D02*
D03*
Y273250D02*
D03*
D36*
X448445Y80000D02*
D03*
X441555D02*
D03*
X278445Y280000D02*
D03*
X271555D02*
D03*
X274000Y319000D02*
D03*
X280890D02*
D03*
X211555Y277000D02*
D03*
X218445D02*
D03*
X215555Y299000D02*
D03*
X222445D02*
D03*
D37*
X290000Y271555D02*
D03*
Y278445D02*
D03*
X200000Y240445D02*
D03*
Y233555D02*
D03*
Y296355D02*
D03*
Y303245D02*
D03*
Y331890D02*
D03*
Y325000D02*
D03*
D38*
X265929Y288000D02*
D03*
X272071D02*
D03*
X271929Y298000D02*
D03*
X278071D02*
D03*
D39*
X278543Y265000D02*
D03*
X271457D02*
D03*
X274000Y311000D02*
D03*
X281087D02*
D03*
X218543Y265000D02*
D03*
X211457D02*
D03*
X218543Y310000D02*
D03*
X211457D02*
D03*
D40*
X229669Y333000D02*
D03*
X238331Y336740D02*
D03*
Y329260D02*
D03*
X261331Y333000D02*
D03*
X252669Y329260D02*
D03*
Y336740D02*
D03*
X232669Y255000D02*
D03*
X241331Y258740D02*
D03*
Y251260D02*
D03*
X259331Y255000D02*
D03*
X250669Y251260D02*
D03*
Y258740D02*
D03*
D41*
X257653Y350000D02*
D03*
X264347D02*
D03*
D42*
X248543Y346642D02*
D03*
Y349878D02*
D03*
X241457D02*
D03*
Y346642D02*
D03*
X245000D02*
D03*
D43*
X303661Y293000D02*
D03*
X336339D02*
D03*
X153661Y335000D02*
D03*
X186339D02*
D03*
X153661Y247000D02*
D03*
X186339D02*
D03*
X153661Y291000D02*
D03*
X186339D02*
D03*
D44*
X245000Y237756D02*
D03*
Y232245D02*
D03*
X215000Y44999D02*
D03*
Y39488D02*
D03*
X235000Y44999D02*
D03*
Y39488D02*
D03*
X255000Y44999D02*
D03*
Y39488D02*
D03*
X275000Y44999D02*
D03*
Y39488D02*
D03*
D45*
X224488Y350000D02*
D03*
X230000D02*
D03*
X127245Y245000D02*
D03*
X132756D02*
D03*
D46*
X20433Y11890D02*
D03*
Y24882D02*
D03*
Y49685D02*
D03*
X49567Y11890D02*
D03*
Y49685D02*
D03*
D47*
X390000Y250000D02*
D03*
Y50000D02*
D03*
X100000Y250000D02*
D03*
Y50000D02*
D03*
D48*
X250118Y299764D02*
D03*
X239882D02*
D03*
X250118Y304882D02*
D03*
X239882D02*
D03*
Y289528D02*
D03*
X250118D02*
D03*
X239882Y294646D02*
D03*
X250118D02*
D03*
D49*
X245000Y299764D02*
D03*
Y304882D02*
D03*
X239882Y315118D02*
D03*
X245000D02*
D03*
X250118D02*
D03*
X239882Y310000D02*
D03*
X245000D02*
D03*
X250118D02*
D03*
Y284409D02*
D03*
X245000D02*
D03*
X239882D02*
D03*
X250118Y279291D02*
D03*
X245000D02*
D03*
X239882D02*
D03*
X245000Y289528D02*
D03*
Y294646D02*
D03*
D50*
X475000Y105000D02*
D03*
X445000D02*
D03*
D51*
X473504Y46811D02*
D03*
D52*
X455000Y35000D02*
D03*
D53*
Y58622D02*
D03*
D54*
X245000Y354807D02*
D03*
D55*
X55000Y185000D02*
D03*
Y175000D02*
D03*
Y165000D02*
D03*
Y155000D02*
D03*
Y145000D02*
D03*
Y135000D02*
D03*
X40000Y95000D02*
D03*
Y105000D02*
D03*
Y115000D02*
D03*
Y125000D02*
D03*
Y135000D02*
D03*
Y145000D02*
D03*
Y155000D02*
D03*
Y165000D02*
D03*
Y175000D02*
D03*
Y185000D02*
D03*
X25000D02*
D03*
Y175000D02*
D03*
Y165000D02*
D03*
Y155000D02*
D03*
Y145000D02*
D03*
Y135000D02*
D03*
D56*
X327000Y345000D02*
D03*
Y261685D02*
D03*
D57*
Y325315D02*
D03*
Y242000D02*
D03*
D58*
X35000Y11890D02*
D03*
Y30000D02*
D03*
D59*
X293000Y333828D02*
D03*
X12700Y11700D02*
D03*
X338000Y279000D02*
D03*
X186000Y238000D02*
D03*
X224200Y331000D02*
D03*
X205655Y240445D02*
D03*
X453800Y80100D02*
D03*
X282800Y298900D02*
D03*
X274800Y248100D02*
D03*
X274535Y252000D02*
D03*
X205000Y250000D02*
D03*
Y280000D02*
D03*
X296000Y271000D02*
D03*
X265000Y355000D02*
D03*
Y270000D02*
D03*
X216000Y250000D02*
D03*
X230000Y344000D02*
D03*
X277887Y331600D02*
D03*
X200000Y290900D02*
D03*
X186000Y279000D02*
D03*
X58000Y12000D02*
D03*
X215000Y328000D02*
D03*
X188000Y345000D02*
D03*
X200000Y338000D02*
D03*
X138000Y274000D02*
D03*
D60*
X291000Y339000D02*
D03*
X245700Y265713D02*
D03*
X209600Y271500D02*
D03*
X236100Y266405D02*
D03*
X134200Y224400D02*
D03*
X154061Y257939D02*
D03*
X203900Y274225D02*
D03*
X235800Y262300D02*
D03*
X223975Y260000D02*
D03*
X243100Y184200D02*
D03*
X242800Y189500D02*
D03*
X239882Y236518D02*
D03*
X249125Y244056D02*
D03*
X264300Y261300D02*
D03*
X253300Y229900D02*
D03*
X93000Y72000D02*
D03*
X284000Y254000D02*
D03*
X225905Y277000D02*
D03*
X242000Y276000D02*
D03*
X227975Y299217D02*
D03*
X223000Y310000D02*
D03*
X227748Y283452D02*
D03*
X267000Y305000D02*
D03*
X248000Y319000D02*
D03*
X227900Y311800D02*
D03*
X227100Y295133D02*
D03*
X248000Y276000D02*
D03*
X226000Y315000D02*
D03*
X287025Y248000D02*
D03*
X268000Y309000D02*
D03*
X218800Y314800D02*
D03*
X353200Y183200D02*
D03*
X225200Y354800D02*
D03*
X244100Y342800D02*
D03*
X252300Y344000D02*
D03*
X299300Y284800D02*
D03*
X207200Y306300D02*
D03*
X220400Y292500D02*
D03*
X252000Y267000D02*
D03*
X245000Y326000D02*
D03*
X236000Y240000D02*
D03*
X349975Y180025D02*
D03*
X344000Y180000D02*
D03*
X352000Y107000D02*
D03*
X332375Y210000D02*
D03*
X154000Y325000D02*
D03*
X323000Y289000D02*
D03*
X237000Y348000D02*
D03*
X387000Y110000D02*
D03*
X278437Y284437D02*
D03*
X272000Y273000D02*
D03*
X145000Y214000D02*
D03*
X177429Y178000D02*
D03*
X173000D02*
D03*
X96000Y74000D02*
D03*
X280000Y17000D02*
D03*
X260000D02*
D03*
X241000D02*
D03*
X221000D02*
D03*
X238000Y355000D02*
D03*
X215000Y293000D02*
D03*
X212000Y283000D02*
D03*
X218000D02*
D03*
M02*
