G04*
G04 #@! TF.GenerationSoftware,Altium Limited,Altium Designer,20.2.4 (192)*
G04*
G04 Layer_Color=255*
%FSLAX25Y25*%
%MOIN*%
G70*
G04*
G04 #@! TF.SameCoordinates,B3AF9CCF-9D14-4356-84A3-7319CC5DFEB4*
G04*
G04*
G04 #@! TF.FilePolarity,Positive*
G04*
G01*
G75*
%ADD19R,0.03661X0.03425*%
%ADD20R,0.05512X0.01181*%
%ADD21R,0.03900X0.04300*%
%ADD22R,0.04567X0.05787*%
%ADD23R,0.05787X0.04567*%
%ADD24R,0.03425X0.03661*%
%ADD25R,0.03937X0.04331*%
%ADD26R,0.05512X0.03937*%
%ADD27R,0.04331X0.03937*%
%ADD28R,0.16929X0.09843*%
%ADD29R,0.03543X0.03150*%
%ADD30R,0.03150X0.03543*%
%ADD31R,0.06299X0.07874*%
%ADD49C,0.01968*%
%ADD61R,0.14173X0.38189*%
%ADD62R,0.02362X0.02055*%
%ADD63R,0.00394X0.00394*%
%ADD66C,0.07000*%
%ADD67O,0.08858X0.17717*%
%ADD68O,0.17717X0.08858*%
%ADD69O,0.19685X0.09843*%
%ADD70C,0.06000*%
%ADD71C,0.07677*%
%ADD72R,0.07677X0.07677*%
%ADD73C,0.06457*%
%ADD74C,0.04331*%
D19*
X231400Y271371D02*
D03*
Y265229D02*
D03*
X240900Y271671D02*
D03*
Y265529D02*
D03*
X265000Y281071D02*
D03*
Y274929D02*
D03*
X273000Y332071D02*
D03*
Y325929D02*
D03*
X283000Y332071D02*
D03*
Y325929D02*
D03*
X279000Y247929D02*
D03*
Y254071D02*
D03*
X270000Y247929D02*
D03*
Y254071D02*
D03*
X221000Y249929D02*
D03*
Y256071D02*
D03*
X210000Y249929D02*
D03*
Y256071D02*
D03*
X199000Y286071D02*
D03*
Y279929D02*
D03*
X220000Y328071D02*
D03*
Y321929D02*
D03*
X210000Y328071D02*
D03*
Y321929D02*
D03*
D20*
X256614Y314921D02*
D03*
Y312953D02*
D03*
Y310984D02*
D03*
Y309016D02*
D03*
Y307047D02*
D03*
Y305079D02*
D03*
Y303110D02*
D03*
Y301142D02*
D03*
Y299173D02*
D03*
Y297205D02*
D03*
Y295236D02*
D03*
Y293268D02*
D03*
Y291299D02*
D03*
Y289331D02*
D03*
Y287362D02*
D03*
Y285394D02*
D03*
Y283425D02*
D03*
Y281457D02*
D03*
Y279488D02*
D03*
X233386D02*
D03*
Y281457D02*
D03*
Y283425D02*
D03*
Y285394D02*
D03*
Y287362D02*
D03*
Y289331D02*
D03*
Y291299D02*
D03*
Y293268D02*
D03*
Y295236D02*
D03*
Y297205D02*
D03*
Y299173D02*
D03*
Y301142D02*
D03*
Y303110D02*
D03*
Y305079D02*
D03*
Y307047D02*
D03*
Y309016D02*
D03*
Y310984D02*
D03*
Y312953D02*
D03*
Y314921D02*
D03*
D21*
X275000Y16750D02*
D03*
Y23450D02*
D03*
X255000Y16750D02*
D03*
Y23450D02*
D03*
X235000Y16750D02*
D03*
Y23450D02*
D03*
X215000Y16750D02*
D03*
Y23450D02*
D03*
X130000Y266550D02*
D03*
Y273250D02*
D03*
D22*
X448445Y80000D02*
D03*
X441555D02*
D03*
X278445Y280000D02*
D03*
X271555D02*
D03*
X274000Y319000D02*
D03*
X280890D02*
D03*
X211555Y277000D02*
D03*
X218445D02*
D03*
X215555Y299000D02*
D03*
X222445D02*
D03*
D23*
X290000Y271555D02*
D03*
Y278445D02*
D03*
X200000Y240445D02*
D03*
Y233555D02*
D03*
Y296355D02*
D03*
Y303245D02*
D03*
Y331890D02*
D03*
Y325000D02*
D03*
D24*
X265929Y288000D02*
D03*
X272071D02*
D03*
X271929Y298000D02*
D03*
X278071D02*
D03*
D25*
X278543Y265000D02*
D03*
X271457D02*
D03*
X274000Y311000D02*
D03*
X281087D02*
D03*
X218543Y265000D02*
D03*
X211457D02*
D03*
X218543Y310000D02*
D03*
X211457D02*
D03*
D26*
X229669Y333000D02*
D03*
X238331Y336740D02*
D03*
Y329260D02*
D03*
X261331Y333000D02*
D03*
X252669Y329260D02*
D03*
Y336740D02*
D03*
X232669Y255000D02*
D03*
X241331Y258740D02*
D03*
Y251260D02*
D03*
X259331Y255000D02*
D03*
X250669Y251260D02*
D03*
Y258740D02*
D03*
D27*
X257653Y350000D02*
D03*
X264347D02*
D03*
D28*
X303661Y293000D02*
D03*
X336339D02*
D03*
X153661Y335000D02*
D03*
X186339D02*
D03*
X153661Y247000D02*
D03*
X186339D02*
D03*
X153661Y291000D02*
D03*
X186339D02*
D03*
D29*
X245000Y237756D02*
D03*
Y232245D02*
D03*
X215000Y44999D02*
D03*
Y39488D02*
D03*
X235000Y44999D02*
D03*
Y39488D02*
D03*
X255000Y44999D02*
D03*
Y39488D02*
D03*
X275000Y44999D02*
D03*
Y39488D02*
D03*
D30*
X224488Y350000D02*
D03*
X230000D02*
D03*
X127245Y245000D02*
D03*
X132756D02*
D03*
D31*
X20433Y11890D02*
D03*
Y24882D02*
D03*
Y49685D02*
D03*
X49567Y11890D02*
D03*
Y49685D02*
D03*
D49*
X250118Y299764D02*
D03*
X245000D02*
D03*
X239882D02*
D03*
X250118Y304882D02*
D03*
X245000D02*
D03*
X239882D02*
D03*
Y315118D02*
D03*
X245000D02*
D03*
X250118D02*
D03*
X239882Y310000D02*
D03*
X245000D02*
D03*
X250118D02*
D03*
Y284409D02*
D03*
X245000D02*
D03*
X239882D02*
D03*
X250118Y279291D02*
D03*
X245000D02*
D03*
X239882D02*
D03*
Y289528D02*
D03*
X245000D02*
D03*
X250118D02*
D03*
X239882Y294646D02*
D03*
X245000D02*
D03*
X250118D02*
D03*
X245000Y354807D02*
D03*
D61*
Y297205D02*
D03*
D62*
X248543Y346642D02*
D03*
Y349878D02*
D03*
X241457D02*
D03*
Y346642D02*
D03*
X245000D02*
D03*
D63*
X245061Y357445D02*
D03*
D66*
X475000Y105000D02*
D03*
X445000D02*
D03*
D67*
X473504Y46811D02*
D03*
D68*
X455000Y35000D02*
D03*
D69*
Y58622D02*
D03*
D70*
X55000Y185000D02*
D03*
Y175000D02*
D03*
Y165000D02*
D03*
Y155000D02*
D03*
Y145000D02*
D03*
Y135000D02*
D03*
X40000Y95000D02*
D03*
Y105000D02*
D03*
Y115000D02*
D03*
Y125000D02*
D03*
Y135000D02*
D03*
Y145000D02*
D03*
Y155000D02*
D03*
Y165000D02*
D03*
Y175000D02*
D03*
Y185000D02*
D03*
X25000D02*
D03*
Y175000D02*
D03*
Y165000D02*
D03*
Y155000D02*
D03*
Y145000D02*
D03*
Y135000D02*
D03*
D71*
X327000Y345000D02*
D03*
Y261685D02*
D03*
D72*
Y325315D02*
D03*
Y242000D02*
D03*
D73*
X120000Y19800D02*
D03*
X130000D02*
D03*
X120000Y29800D02*
D03*
X130000D02*
D03*
X120000Y39800D02*
D03*
X130000D02*
D03*
X120000Y49800D02*
D03*
X130000D02*
D03*
X120000Y59800D02*
D03*
X130000D02*
D03*
X120000Y69800D02*
D03*
X130000D02*
D03*
X120000Y79800D02*
D03*
X130000D02*
D03*
X120000Y89800D02*
D03*
X130000D02*
D03*
X120000Y99800D02*
D03*
X130000D02*
D03*
X120000Y109800D02*
D03*
X130000D02*
D03*
X120000Y119800D02*
D03*
X130000D02*
D03*
X120000Y129800D02*
D03*
X130000D02*
D03*
X120000Y139800D02*
D03*
X130000D02*
D03*
X120000Y149800D02*
D03*
X130000D02*
D03*
X120000Y159800D02*
D03*
X130000D02*
D03*
X120000Y169800D02*
D03*
X130000D02*
D03*
X120000Y179800D02*
D03*
X130000D02*
D03*
X120000Y189800D02*
D03*
X130000D02*
D03*
X120000Y199800D02*
D03*
X130000D02*
D03*
X360000Y19800D02*
D03*
X370000D02*
D03*
X360000Y29800D02*
D03*
X370000D02*
D03*
X360000Y39800D02*
D03*
X370000D02*
D03*
X360000Y49800D02*
D03*
X370000D02*
D03*
X360000Y59800D02*
D03*
X370000D02*
D03*
X360000Y69800D02*
D03*
X370000D02*
D03*
X360000Y79800D02*
D03*
X370000D02*
D03*
X360000Y89800D02*
D03*
X370000D02*
D03*
X360000Y99800D02*
D03*
X370000D02*
D03*
X360000Y109800D02*
D03*
X370000D02*
D03*
X360000Y119800D02*
D03*
X370000D02*
D03*
X360000Y129800D02*
D03*
X370000D02*
D03*
X360000Y139800D02*
D03*
X370000D02*
D03*
X360000Y149800D02*
D03*
X370000D02*
D03*
X360000Y159800D02*
D03*
X370000D02*
D03*
X360000Y169800D02*
D03*
X370000D02*
D03*
X360000Y179800D02*
D03*
X370000D02*
D03*
X360000Y189800D02*
D03*
X370000D02*
D03*
X360000Y199800D02*
D03*
X370000D02*
D03*
D74*
X35000Y11890D02*
D03*
Y30000D02*
D03*
M02*
