G04*
G04 #@! TF.GenerationSoftware,Altium Limited,Altium Designer,20.2.4 (192)*
G04*
G04 Layer_Color=255*
%FSLAX25Y25*%
%MOIN*%
G70*
G04*
G04 #@! TF.SameCoordinates,B3AF9CCF-9D14-4356-84A3-7319CC5DFEB4*
G04*
G04*
G04 #@! TF.FilePolarity,Positive*
G04*
G01*
G75*
%ADD49C,0.01968*%
%ADD66C,0.07000*%
%ADD67O,0.08858X0.17717*%
%ADD68O,0.17717X0.08858*%
%ADD69O,0.19685X0.09843*%
%ADD70C,0.06000*%
%ADD71C,0.07677*%
%ADD72R,0.07677X0.07677*%
%ADD73C,0.06457*%
%ADD74C,0.04331*%
D49*
X250118Y299764D02*
D03*
X245000D02*
D03*
X239882D02*
D03*
X250118Y304882D02*
D03*
X245000D02*
D03*
X239882D02*
D03*
Y315118D02*
D03*
X245000D02*
D03*
X250118D02*
D03*
X239882Y310000D02*
D03*
X245000D02*
D03*
X250118D02*
D03*
Y284409D02*
D03*
X245000D02*
D03*
X239882D02*
D03*
X250118Y279291D02*
D03*
X245000D02*
D03*
X239882D02*
D03*
Y289528D02*
D03*
X245000D02*
D03*
X250118D02*
D03*
X239882Y294646D02*
D03*
X245000D02*
D03*
X250118D02*
D03*
X245000Y354807D02*
D03*
D66*
X475000Y105000D02*
D03*
X445000D02*
D03*
D67*
X473504Y46811D02*
D03*
D68*
X455000Y35000D02*
D03*
D69*
Y58622D02*
D03*
D70*
X55000Y185000D02*
D03*
Y175000D02*
D03*
Y165000D02*
D03*
Y155000D02*
D03*
Y145000D02*
D03*
Y135000D02*
D03*
X40000Y95000D02*
D03*
Y105000D02*
D03*
Y115000D02*
D03*
Y125000D02*
D03*
Y135000D02*
D03*
Y145000D02*
D03*
Y155000D02*
D03*
Y165000D02*
D03*
Y175000D02*
D03*
Y185000D02*
D03*
X25000D02*
D03*
Y175000D02*
D03*
Y165000D02*
D03*
Y155000D02*
D03*
Y145000D02*
D03*
Y135000D02*
D03*
D71*
X327000Y345000D02*
D03*
Y261685D02*
D03*
D72*
Y325315D02*
D03*
Y242000D02*
D03*
D73*
X120000Y19800D02*
D03*
X130000D02*
D03*
X120000Y29800D02*
D03*
X130000D02*
D03*
X120000Y39800D02*
D03*
X130000D02*
D03*
X120000Y49800D02*
D03*
X130000D02*
D03*
X120000Y59800D02*
D03*
X130000D02*
D03*
X120000Y69800D02*
D03*
X130000D02*
D03*
X120000Y79800D02*
D03*
X130000D02*
D03*
X120000Y89800D02*
D03*
X130000D02*
D03*
X120000Y99800D02*
D03*
X130000D02*
D03*
X120000Y109800D02*
D03*
X130000D02*
D03*
X120000Y119800D02*
D03*
X130000D02*
D03*
X120000Y129800D02*
D03*
X130000D02*
D03*
X120000Y139800D02*
D03*
X130000D02*
D03*
X120000Y149800D02*
D03*
X130000D02*
D03*
X120000Y159800D02*
D03*
X130000D02*
D03*
X120000Y169800D02*
D03*
X130000D02*
D03*
X120000Y179800D02*
D03*
X130000D02*
D03*
X120000Y189800D02*
D03*
X130000D02*
D03*
X120000Y199800D02*
D03*
X130000D02*
D03*
X360000Y19800D02*
D03*
X370000D02*
D03*
X360000Y29800D02*
D03*
X370000D02*
D03*
X360000Y39800D02*
D03*
X370000D02*
D03*
X360000Y49800D02*
D03*
X370000D02*
D03*
X360000Y59800D02*
D03*
X370000D02*
D03*
X360000Y69800D02*
D03*
X370000D02*
D03*
X360000Y79800D02*
D03*
X370000D02*
D03*
X360000Y89800D02*
D03*
X370000D02*
D03*
X360000Y99800D02*
D03*
X370000D02*
D03*
X360000Y109800D02*
D03*
X370000D02*
D03*
X360000Y119800D02*
D03*
X370000D02*
D03*
X360000Y129800D02*
D03*
X370000D02*
D03*
X360000Y139800D02*
D03*
X370000D02*
D03*
X360000Y149800D02*
D03*
X370000D02*
D03*
X360000Y159800D02*
D03*
X370000D02*
D03*
X360000Y169800D02*
D03*
X370000D02*
D03*
X360000Y179800D02*
D03*
X370000D02*
D03*
X360000Y189800D02*
D03*
X370000D02*
D03*
X360000Y199800D02*
D03*
X370000D02*
D03*
D74*
X35000Y11890D02*
D03*
Y30000D02*
D03*
M02*
