M48
;Layer_Color=9474304
;FILE_FORMAT=2:5
INCH,LZ
;TYPE=PLATED
T1F00S00C0.00800
T2F00S00C0.00827
T3F00S00C0.01300
T5F00S00C0.04000
T6F00S00C0.04094
T7F00S00C0.04331
T8F00S00C0.05118
;TYPE=NON_PLATED
T9F00S00C0.01968
T10F00S00C0.04331
T11F00S00C0.07874
%
T01
X0239882Y0279291
Y0284409
X0245
X0250118
Y0279291
X0245
Y0289528
X0239882
Y0294646
X0245
X0250118
Y0289528
Y0299764
X0245
X0239882
Y0304882
X0245
X0250118
Y031
Y0315118
X0245
X0239882
Y031
X0245
T02
X0387Y011
X0352Y0107
X0349975Y0180025
X0344Y018
X03532Y01832
X0332375Y021
X02428Y01895
X02431Y01842
X0177429Y0178
X0173
X0096Y0074
X0093Y0072
X01342Y02244
X0145Y0214
X0154061Y0257939
X02039Y0274225
X02096Y02715
X0212Y0283
X02072Y03063
X0154Y0325
X02188Y03148
X0226Y0315
X02279Y03118
X0223Y031
X0227975Y0299217
X02271Y0295133
X02204Y02925
X0215Y0293
X0218Y0283
X0227748Y0283452
X0225905Y0277
X0223975Y026
X02358Y02623
X02361Y0266405
X02457Y0265713
X0252Y0267
X02643Y02613
X0272Y0273
X0278437Y0284437
X02993Y02848
X0323Y0289
X0267Y0305
X0268Y0309
X0245Y0326
X02441Y03428
X02523Y0344
X0237Y0348
X02252Y03548
X0291Y0339
X0284Y0254
X0287025Y0248
X0249125Y0244056
X0239882Y0236518
X0236Y024
X02533Y02299
T03
X00127Y00117
X0058Y0012
X0221Y0017
X0241
X026
X028
X04538Y00801
X0205655Y0240445
X0205Y025
Y028
X02Y02909
X0186Y0279
Y0238
X0138Y0274
X0188Y0345
X02Y0338
X0215Y0328
X02242Y0331
X023Y0344
X0238Y0355
X0265
X0277887Y03316
X0293Y0333828
X02828Y02989
X0296Y0271
X0265Y027
X0248Y0276
X0242
X0248Y0319
X0274535Y0252
X02748Y02481
X0216Y025
X0338Y0279
T05
X0445Y0105
X0475
T06
X012Y00198
X013
Y00298
X012
Y00398
X013
Y00498
X012
X036
Y00398
Y00298
Y00198
X037
Y00298
Y00398
Y00498
Y00598
Y00698
Y00798
Y00898
Y00998
Y01098
Y01198
Y01298
Y01398
Y01498
Y01598
Y01698
Y01798
Y01898
Y01998
X036
Y01898
Y01798
Y01698
Y01598
Y01498
Y01398
Y01298
Y01198
Y01098
Y00998
Y00898
Y00798
Y00698
Y00598
X013
X012
Y00698
X013
Y00798
X012
Y00898
X013
Y00998
X012
Y01098
X013
Y01198
X012
Y01298
X013
Y01398
X012
Y01498
X013
Y01598
X012
Y01698
X013
Y01798
X012
Y01898
X013
Y01998
X012
T07
X004Y0095
Y0105
Y0115
Y0125
Y0135
Y0145
Y0155
Y0165
Y0175
Y0185
X0055
Y0175
Y0165
Y0155
Y0145
Y0135
X0025
Y0145
Y0155
Y0165
Y0175
Y0185
T08
X0327Y0242
Y0261685
Y0325315
Y0345
T09
X0245Y0354807
T10
X0035Y001189
Y003
T11
X01Y005
X039
X01Y025
X039
M30
